<?xml version="1.0" encoding="utf-8" standalone="no"?>
<!DOCTYPE svg PUBLIC "-//W3C//DTD SVG 1.1//EN"
  "http://www.w3.org/Graphics/SVG/1.1/DTD/svg11.dtd">
<!-- Created with matplotlib (https://matplotlib.org/) -->
<svg height="331.674375pt" version="1.1" viewBox="0 0 653.834375 331.674375" width="653.834375pt" xmlns="http://www.w3.org/2000/svg" xmlns:xlink="http://www.w3.org/1999/xlink">
 <defs>
  <style type="text/css">
*{stroke-linecap:butt;stroke-linejoin:round;}
  </style>
 </defs>
 <g id="figure_1">
  <g id="patch_1">
   <path d="M 0 331.674375 
L 653.834375 331.674375 
L 653.834375 0 
L 0 0 
z
" style="fill:none;"/>
  </g>
  <g id="axes_1">
   <g id="patch_2">
    <path d="M 85.134375 294.118125 
L 643.134375 294.118125 
L 643.134375 22.318125 
L 85.134375 22.318125 
z
" style="fill:#ffffff;"/>
   </g>
   <g id="matplotlib.axis_1">
    <g id="xtick_1">
     <g id="line2d_1">
      <defs>
       <path d="M 0 0 
L 0 3.5 
" id="mda20ed0020" style="stroke:#000000;stroke-width:0.8;"/>
      </defs>
      <g>
       <use style="stroke:#000000;stroke-width:0.8;" x="137.354377" xlink:href="#mda20ed0020" y="294.118125"/>
      </g>
     </g>
     <g id="text_1">
      <!-- 1996 -->
      <defs>
       <path d="M 12.40625 8.296875 
L 28.515625 8.296875 
L 28.515625 63.921875 
L 10.984375 60.40625 
L 10.984375 69.390625 
L 28.421875 72.90625 
L 38.28125 72.90625 
L 38.28125 8.296875 
L 54.390625 8.296875 
L 54.390625 0 
L 12.40625 0 
z
" id="DejaVuSans-49"/>
       <path d="M 10.984375 1.515625 
L 10.984375 10.5 
Q 14.703125 8.734375 18.5 7.8125 
Q 22.3125 6.890625 25.984375 6.890625 
Q 35.75 6.890625 40.890625 13.453125 
Q 46.046875 20.015625 46.78125 33.40625 
Q 43.953125 29.203125 39.59375 26.953125 
Q 35.25 24.703125 29.984375 24.703125 
Q 19.046875 24.703125 12.671875 31.3125 
Q 6.296875 37.9375 6.296875 49.421875 
Q 6.296875 60.640625 12.9375 67.421875 
Q 19.578125 74.21875 30.609375 74.21875 
Q 43.265625 74.21875 49.921875 64.515625 
Q 56.59375 54.828125 56.59375 36.375 
Q 56.59375 19.140625 48.40625 8.859375 
Q 40.234375 -1.421875 26.421875 -1.421875 
Q 22.703125 -1.421875 18.890625 -0.6875 
Q 15.09375 0.046875 10.984375 1.515625 
z
M 30.609375 32.421875 
Q 37.25 32.421875 41.125 36.953125 
Q 45.015625 41.5 45.015625 49.421875 
Q 45.015625 57.28125 41.125 61.84375 
Q 37.25 66.40625 30.609375 66.40625 
Q 23.96875 66.40625 20.09375 61.84375 
Q 16.21875 57.28125 16.21875 49.421875 
Q 16.21875 41.5 20.09375 36.953125 
Q 23.96875 32.421875 30.609375 32.421875 
z
" id="DejaVuSans-57"/>
       <path d="M 33.015625 40.375 
Q 26.375 40.375 22.484375 35.828125 
Q 18.609375 31.296875 18.609375 23.390625 
Q 18.609375 15.53125 22.484375 10.953125 
Q 26.375 6.390625 33.015625 6.390625 
Q 39.65625 6.390625 43.53125 10.953125 
Q 47.40625 15.53125 47.40625 23.390625 
Q 47.40625 31.296875 43.53125 35.828125 
Q 39.65625 40.375 33.015625 40.375 
z
M 52.59375 71.296875 
L 52.59375 62.3125 
Q 48.875 64.0625 45.09375 64.984375 
Q 41.3125 65.921875 37.59375 65.921875 
Q 27.828125 65.921875 22.671875 59.328125 
Q 17.53125 52.734375 16.796875 39.40625 
Q 19.671875 43.65625 24.015625 45.921875 
Q 28.375 48.1875 33.59375 48.1875 
Q 44.578125 48.1875 50.953125 41.515625 
Q 57.328125 34.859375 57.328125 23.390625 
Q 57.328125 12.15625 50.6875 5.359375 
Q 44.046875 -1.421875 33.015625 -1.421875 
Q 20.359375 -1.421875 13.671875 8.265625 
Q 6.984375 17.96875 6.984375 36.375 
Q 6.984375 53.65625 15.1875 63.9375 
Q 23.390625 74.21875 37.203125 74.21875 
Q 40.921875 74.21875 44.703125 73.484375 
Q 48.484375 72.75 52.59375 71.296875 
z
" id="DejaVuSans-54"/>
      </defs>
      <g transform="translate(124.629377 308.716563)scale(0.1 -0.1)">
       <use xlink:href="#DejaVuSans-49"/>
       <use x="63.623047" xlink:href="#DejaVuSans-57"/>
       <use x="127.246094" xlink:href="#DejaVuSans-57"/>
       <use x="190.869141" xlink:href="#DejaVuSans-54"/>
      </g>
     </g>
    </g>
    <g id="xtick_2">
     <g id="line2d_2">
      <g>
       <use style="stroke:#000000;stroke-width:0.8;" x="230.554258" xlink:href="#mda20ed0020" y="294.118125"/>
      </g>
     </g>
     <g id="text_2">
      <!-- 2000 -->
      <defs>
       <path d="M 19.1875 8.296875 
L 53.609375 8.296875 
L 53.609375 0 
L 7.328125 0 
L 7.328125 8.296875 
Q 12.9375 14.109375 22.625 23.890625 
Q 32.328125 33.6875 34.8125 36.53125 
Q 39.546875 41.84375 41.421875 45.53125 
Q 43.3125 49.21875 43.3125 52.78125 
Q 43.3125 58.59375 39.234375 62.25 
Q 35.15625 65.921875 28.609375 65.921875 
Q 23.96875 65.921875 18.8125 64.3125 
Q 13.671875 62.703125 7.8125 59.421875 
L 7.8125 69.390625 
Q 13.765625 71.78125 18.9375 73 
Q 24.125 74.21875 28.421875 74.21875 
Q 39.75 74.21875 46.484375 68.546875 
Q 53.21875 62.890625 53.21875 53.421875 
Q 53.21875 48.921875 51.53125 44.890625 
Q 49.859375 40.875 45.40625 35.40625 
Q 44.1875 33.984375 37.640625 27.21875 
Q 31.109375 20.453125 19.1875 8.296875 
z
" id="DejaVuSans-50"/>
       <path d="M 31.78125 66.40625 
Q 24.171875 66.40625 20.328125 58.90625 
Q 16.5 51.421875 16.5 36.375 
Q 16.5 21.390625 20.328125 13.890625 
Q 24.171875 6.390625 31.78125 6.390625 
Q 39.453125 6.390625 43.28125 13.890625 
Q 47.125 21.390625 47.125 36.375 
Q 47.125 51.421875 43.28125 58.90625 
Q 39.453125 66.40625 31.78125 66.40625 
z
M 31.78125 74.21875 
Q 44.046875 74.21875 50.515625 64.515625 
Q 56.984375 54.828125 56.984375 36.375 
Q 56.984375 17.96875 50.515625 8.265625 
Q 44.046875 -1.421875 31.78125 -1.421875 
Q 19.53125 -1.421875 13.0625 8.265625 
Q 6.59375 17.96875 6.59375 36.375 
Q 6.59375 54.828125 13.0625 64.515625 
Q 19.53125 74.21875 31.78125 74.21875 
z
" id="DejaVuSans-48"/>
      </defs>
      <g transform="translate(217.829258 308.716563)scale(0.1 -0.1)">
       <use xlink:href="#DejaVuSans-50"/>
       <use x="63.623047" xlink:href="#DejaVuSans-48"/>
       <use x="127.246094" xlink:href="#DejaVuSans-48"/>
       <use x="190.869141" xlink:href="#DejaVuSans-48"/>
      </g>
     </g>
    </g>
    <g id="xtick_3">
     <g id="line2d_3">
      <g>
       <use style="stroke:#000000;stroke-width:0.8;" x="323.754139" xlink:href="#mda20ed0020" y="294.118125"/>
      </g>
     </g>
     <g id="text_3">
      <!-- 2004 -->
      <defs>
       <path d="M 37.796875 64.3125 
L 12.890625 25.390625 
L 37.796875 25.390625 
z
M 35.203125 72.90625 
L 47.609375 72.90625 
L 47.609375 25.390625 
L 58.015625 25.390625 
L 58.015625 17.1875 
L 47.609375 17.1875 
L 47.609375 0 
L 37.796875 0 
L 37.796875 17.1875 
L 4.890625 17.1875 
L 4.890625 26.703125 
z
" id="DejaVuSans-52"/>
      </defs>
      <g transform="translate(311.029139 308.716563)scale(0.1 -0.1)">
       <use xlink:href="#DejaVuSans-50"/>
       <use x="63.623047" xlink:href="#DejaVuSans-48"/>
       <use x="127.246094" xlink:href="#DejaVuSans-48"/>
       <use x="190.869141" xlink:href="#DejaVuSans-52"/>
      </g>
     </g>
    </g>
    <g id="xtick_4">
     <g id="line2d_4">
      <g>
       <use style="stroke:#000000;stroke-width:0.8;" x="416.95402" xlink:href="#mda20ed0020" y="294.118125"/>
      </g>
     </g>
     <g id="text_4">
      <!-- 2008 -->
      <defs>
       <path d="M 31.78125 34.625 
Q 24.75 34.625 20.71875 30.859375 
Q 16.703125 27.09375 16.703125 20.515625 
Q 16.703125 13.921875 20.71875 10.15625 
Q 24.75 6.390625 31.78125 6.390625 
Q 38.8125 6.390625 42.859375 10.171875 
Q 46.921875 13.96875 46.921875 20.515625 
Q 46.921875 27.09375 42.890625 30.859375 
Q 38.875 34.625 31.78125 34.625 
z
M 21.921875 38.8125 
Q 15.578125 40.375 12.03125 44.71875 
Q 8.5 49.078125 8.5 55.328125 
Q 8.5 64.0625 14.71875 69.140625 
Q 20.953125 74.21875 31.78125 74.21875 
Q 42.671875 74.21875 48.875 69.140625 
Q 55.078125 64.0625 55.078125 55.328125 
Q 55.078125 49.078125 51.53125 44.71875 
Q 48 40.375 41.703125 38.8125 
Q 48.828125 37.15625 52.796875 32.3125 
Q 56.78125 27.484375 56.78125 20.515625 
Q 56.78125 9.90625 50.3125 4.234375 
Q 43.84375 -1.421875 31.78125 -1.421875 
Q 19.734375 -1.421875 13.25 4.234375 
Q 6.78125 9.90625 6.78125 20.515625 
Q 6.78125 27.484375 10.78125 32.3125 
Q 14.796875 37.15625 21.921875 38.8125 
z
M 18.3125 54.390625 
Q 18.3125 48.734375 21.84375 45.5625 
Q 25.390625 42.390625 31.78125 42.390625 
Q 38.140625 42.390625 41.71875 45.5625 
Q 45.3125 48.734375 45.3125 54.390625 
Q 45.3125 60.0625 41.71875 63.234375 
Q 38.140625 66.40625 31.78125 66.40625 
Q 25.390625 66.40625 21.84375 63.234375 
Q 18.3125 60.0625 18.3125 54.390625 
z
" id="DejaVuSans-56"/>
      </defs>
      <g transform="translate(404.22902 308.716563)scale(0.1 -0.1)">
       <use xlink:href="#DejaVuSans-50"/>
       <use x="63.623047" xlink:href="#DejaVuSans-48"/>
       <use x="127.246094" xlink:href="#DejaVuSans-48"/>
       <use x="190.869141" xlink:href="#DejaVuSans-56"/>
      </g>
     </g>
    </g>
    <g id="xtick_5">
     <g id="line2d_5">
      <g>
       <use style="stroke:#000000;stroke-width:0.8;" x="510.153901" xlink:href="#mda20ed0020" y="294.118125"/>
      </g>
     </g>
     <g id="text_5">
      <!-- 2012 -->
      <g transform="translate(497.428901 308.716563)scale(0.1 -0.1)">
       <use xlink:href="#DejaVuSans-50"/>
       <use x="63.623047" xlink:href="#DejaVuSans-48"/>
       <use x="127.246094" xlink:href="#DejaVuSans-49"/>
       <use x="190.869141" xlink:href="#DejaVuSans-50"/>
      </g>
     </g>
    </g>
    <g id="xtick_6">
     <g id="line2d_6">
      <g>
       <use style="stroke:#000000;stroke-width:0.8;" x="603.353782" xlink:href="#mda20ed0020" y="294.118125"/>
      </g>
     </g>
     <g id="text_6">
      <!-- 2016 -->
      <g transform="translate(590.628782 308.716563)scale(0.1 -0.1)">
       <use xlink:href="#DejaVuSans-50"/>
       <use x="63.623047" xlink:href="#DejaVuSans-48"/>
       <use x="127.246094" xlink:href="#DejaVuSans-49"/>
       <use x="190.869141" xlink:href="#DejaVuSans-54"/>
      </g>
     </g>
    </g>
    <g id="text_7">
     <!-- Date -->
     <defs>
      <path d="M 19.671875 64.796875 
L 19.671875 8.109375 
L 31.59375 8.109375 
Q 46.6875 8.109375 53.6875 14.9375 
Q 60.6875 21.78125 60.6875 36.53125 
Q 60.6875 51.171875 53.6875 57.984375 
Q 46.6875 64.796875 31.59375 64.796875 
z
M 9.8125 72.90625 
L 30.078125 72.90625 
Q 51.265625 72.90625 61.171875 64.09375 
Q 71.09375 55.28125 71.09375 36.53125 
Q 71.09375 17.671875 61.125 8.828125 
Q 51.171875 0 30.078125 0 
L 9.8125 0 
z
" id="DejaVuSans-68"/>
      <path d="M 34.28125 27.484375 
Q 23.390625 27.484375 19.1875 25 
Q 14.984375 22.515625 14.984375 16.5 
Q 14.984375 11.71875 18.140625 8.90625 
Q 21.296875 6.109375 26.703125 6.109375 
Q 34.1875 6.109375 38.703125 11.40625 
Q 43.21875 16.703125 43.21875 25.484375 
L 43.21875 27.484375 
z
M 52.203125 31.203125 
L 52.203125 0 
L 43.21875 0 
L 43.21875 8.296875 
Q 40.140625 3.328125 35.546875 0.953125 
Q 30.953125 -1.421875 24.3125 -1.421875 
Q 15.921875 -1.421875 10.953125 3.296875 
Q 6 8.015625 6 15.921875 
Q 6 25.140625 12.171875 29.828125 
Q 18.359375 34.515625 30.609375 34.515625 
L 43.21875 34.515625 
L 43.21875 35.40625 
Q 43.21875 41.609375 39.140625 45 
Q 35.0625 48.390625 27.6875 48.390625 
Q 23 48.390625 18.546875 47.265625 
Q 14.109375 46.140625 10.015625 43.890625 
L 10.015625 52.203125 
Q 14.9375 54.109375 19.578125 55.046875 
Q 24.21875 56 28.609375 56 
Q 40.484375 56 46.34375 49.84375 
Q 52.203125 43.703125 52.203125 31.203125 
z
" id="DejaVuSans-97"/>
      <path d="M 18.3125 70.21875 
L 18.3125 54.6875 
L 36.8125 54.6875 
L 36.8125 47.703125 
L 18.3125 47.703125 
L 18.3125 18.015625 
Q 18.3125 11.328125 20.140625 9.421875 
Q 21.96875 7.515625 27.59375 7.515625 
L 36.8125 7.515625 
L 36.8125 0 
L 27.59375 0 
Q 17.1875 0 13.234375 3.875 
Q 9.28125 7.765625 9.28125 18.015625 
L 9.28125 47.703125 
L 2.6875 47.703125 
L 2.6875 54.6875 
L 9.28125 54.6875 
L 9.28125 70.21875 
z
" id="DejaVuSans-116"/>
      <path d="M 56.203125 29.59375 
L 56.203125 25.203125 
L 14.890625 25.203125 
Q 15.484375 15.921875 20.484375 11.0625 
Q 25.484375 6.203125 34.421875 6.203125 
Q 39.59375 6.203125 44.453125 7.46875 
Q 49.3125 8.734375 54.109375 11.28125 
L 54.109375 2.78125 
Q 49.265625 0.734375 44.1875 -0.34375 
Q 39.109375 -1.421875 33.890625 -1.421875 
Q 20.796875 -1.421875 13.15625 6.1875 
Q 5.515625 13.8125 5.515625 26.8125 
Q 5.515625 40.234375 12.765625 48.109375 
Q 20.015625 56 32.328125 56 
Q 43.359375 56 49.78125 48.890625 
Q 56.203125 41.796875 56.203125 29.59375 
z
M 47.21875 32.234375 
Q 47.125 39.59375 43.09375 43.984375 
Q 39.0625 48.390625 32.421875 48.390625 
Q 24.90625 48.390625 20.390625 44.140625 
Q 15.875 39.890625 15.1875 32.171875 
z
" id="DejaVuSans-101"/>
     </defs>
     <g transform="translate(352.183594 322.394687)scale(0.1 -0.1)">
      <use xlink:href="#DejaVuSans-68"/>
      <use x="77.001953" xlink:href="#DejaVuSans-97"/>
      <use x="138.28125" xlink:href="#DejaVuSans-116"/>
      <use x="177.490234" xlink:href="#DejaVuSans-101"/>
     </g>
    </g>
   </g>
   <g id="matplotlib.axis_2">
    <g id="ytick_1">
     <g id="line2d_7">
      <defs>
       <path d="M 0 0 
L -3.5 0 
" id="mdc2d1c4e50" style="stroke:#000000;stroke-width:0.8;"/>
      </defs>
      <g>
       <use style="stroke:#000000;stroke-width:0.8;" x="85.134375" xlink:href="#mdc2d1c4e50" y="293.223198"/>
      </g>
     </g>
     <g id="text_8">
      <!-- $0 -->
      <defs>
       <path d="M 33.796875 -14.703125 
L 28.90625 -14.703125 
L 28.859375 0 
Q 23.734375 0.09375 18.609375 1.1875 
Q 13.484375 2.296875 8.296875 4.5 
L 8.296875 13.28125 
Q 13.28125 10.15625 18.375 8.5625 
Q 23.484375 6.984375 28.90625 6.9375 
L 28.90625 29.203125 
Q 18.109375 30.953125 13.203125 35.15625 
Q 8.296875 39.359375 8.296875 46.6875 
Q 8.296875 54.640625 13.625 59.21875 
Q 18.953125 63.8125 28.90625 64.5 
L 28.90625 75.984375 
L 33.796875 75.984375 
L 33.796875 64.65625 
Q 38.328125 64.453125 42.578125 63.6875 
Q 46.828125 62.9375 50.875 61.625 
L 50.875 53.078125 
Q 46.828125 55.125 42.546875 56.25 
Q 38.28125 57.375 33.796875 57.5625 
L 33.796875 36.71875 
Q 44.875 35.015625 50.09375 30.609375 
Q 55.328125 26.21875 55.328125 18.609375 
Q 55.328125 10.359375 49.78125 5.59375 
Q 44.234375 0.828125 33.796875 0.09375 
z
M 28.90625 37.59375 
L 28.90625 57.625 
Q 23.25 56.984375 20.265625 54.390625 
Q 17.28125 51.8125 17.28125 47.515625 
Q 17.28125 43.3125 20.03125 40.96875 
Q 22.796875 38.625 28.90625 37.59375 
z
M 33.796875 28.21875 
L 33.796875 7.078125 
Q 39.984375 7.90625 43.140625 10.59375 
Q 46.296875 13.28125 46.296875 17.671875 
Q 46.296875 21.96875 43.28125 24.5 
Q 40.28125 27.046875 33.796875 28.21875 
z
" id="DejaVuSans-36"/>
      </defs>
      <g transform="translate(65.409375 297.022417)scale(0.1 -0.1)">
       <use xlink:href="#DejaVuSans-36"/>
       <use x="63.623047" xlink:href="#DejaVuSans-48"/>
      </g>
     </g>
    </g>
    <g id="ytick_2">
     <g id="line2d_8">
      <g>
       <use style="stroke:#000000;stroke-width:0.8;" x="85.134375" xlink:href="#mdc2d1c4e50" y="248.41951"/>
      </g>
     </g>
     <g id="text_9">
      <!-- $500,000 -->
      <defs>
       <path d="M 10.796875 72.90625 
L 49.515625 72.90625 
L 49.515625 64.59375 
L 19.828125 64.59375 
L 19.828125 46.734375 
Q 21.96875 47.46875 24.109375 47.828125 
Q 26.265625 48.1875 28.421875 48.1875 
Q 40.625 48.1875 47.75 41.5 
Q 54.890625 34.8125 54.890625 23.390625 
Q 54.890625 11.625 47.5625 5.09375 
Q 40.234375 -1.421875 26.90625 -1.421875 
Q 22.3125 -1.421875 17.546875 -0.640625 
Q 12.796875 0.140625 7.71875 1.703125 
L 7.71875 11.625 
Q 12.109375 9.234375 16.796875 8.0625 
Q 21.484375 6.890625 26.703125 6.890625 
Q 35.15625 6.890625 40.078125 11.328125 
Q 45.015625 15.765625 45.015625 23.390625 
Q 45.015625 31 40.078125 35.4375 
Q 35.15625 39.890625 26.703125 39.890625 
Q 22.75 39.890625 18.8125 39.015625 
Q 14.890625 38.140625 10.796875 36.28125 
z
" id="DejaVuSans-53"/>
       <path d="M 11.71875 12.40625 
L 22.015625 12.40625 
L 22.015625 4 
L 14.015625 -11.625 
L 7.71875 -11.625 
L 11.71875 4 
z
" id="DejaVuSans-44"/>
      </defs>
      <g transform="translate(30.41875 252.218728)scale(0.1 -0.1)">
       <use xlink:href="#DejaVuSans-36"/>
       <use x="63.623047" xlink:href="#DejaVuSans-53"/>
       <use x="127.246094" xlink:href="#DejaVuSans-48"/>
       <use x="190.869141" xlink:href="#DejaVuSans-48"/>
       <use x="254.492188" xlink:href="#DejaVuSans-44"/>
       <use x="286.279297" xlink:href="#DejaVuSans-48"/>
       <use x="349.902344" xlink:href="#DejaVuSans-48"/>
       <use x="413.525391" xlink:href="#DejaVuSans-48"/>
      </g>
     </g>
    </g>
    <g id="ytick_3">
     <g id="line2d_9">
      <g>
       <use style="stroke:#000000;stroke-width:0.8;" x="85.134375" xlink:href="#mdc2d1c4e50" y="203.615821"/>
      </g>
     </g>
     <g id="text_10">
      <!-- $1,000,000 -->
      <g transform="translate(20.878125 207.41504)scale(0.1 -0.1)">
       <use xlink:href="#DejaVuSans-36"/>
       <use x="63.623047" xlink:href="#DejaVuSans-49"/>
       <use x="127.246094" xlink:href="#DejaVuSans-44"/>
       <use x="159.033203" xlink:href="#DejaVuSans-48"/>
       <use x="222.65625" xlink:href="#DejaVuSans-48"/>
       <use x="286.279297" xlink:href="#DejaVuSans-48"/>
       <use x="349.902344" xlink:href="#DejaVuSans-44"/>
       <use x="381.689453" xlink:href="#DejaVuSans-48"/>
       <use x="445.3125" xlink:href="#DejaVuSans-48"/>
       <use x="508.935547" xlink:href="#DejaVuSans-48"/>
      </g>
     </g>
    </g>
    <g id="ytick_4">
     <g id="line2d_10">
      <g>
       <use style="stroke:#000000;stroke-width:0.8;" x="85.134375" xlink:href="#mdc2d1c4e50" y="158.812132"/>
      </g>
     </g>
     <g id="text_11">
      <!-- $1,500,000 -->
      <g transform="translate(20.878125 162.611351)scale(0.1 -0.1)">
       <use xlink:href="#DejaVuSans-36"/>
       <use x="63.623047" xlink:href="#DejaVuSans-49"/>
       <use x="127.246094" xlink:href="#DejaVuSans-44"/>
       <use x="159.033203" xlink:href="#DejaVuSans-53"/>
       <use x="222.65625" xlink:href="#DejaVuSans-48"/>
       <use x="286.279297" xlink:href="#DejaVuSans-48"/>
       <use x="349.902344" xlink:href="#DejaVuSans-44"/>
       <use x="381.689453" xlink:href="#DejaVuSans-48"/>
       <use x="445.3125" xlink:href="#DejaVuSans-48"/>
       <use x="508.935547" xlink:href="#DejaVuSans-48"/>
      </g>
     </g>
    </g>
    <g id="ytick_5">
     <g id="line2d_11">
      <g>
       <use style="stroke:#000000;stroke-width:0.8;" x="85.134375" xlink:href="#mdc2d1c4e50" y="114.008444"/>
      </g>
     </g>
     <g id="text_12">
      <!-- $2,000,000 -->
      <g transform="translate(20.878125 117.807662)scale(0.1 -0.1)">
       <use xlink:href="#DejaVuSans-36"/>
       <use x="63.623047" xlink:href="#DejaVuSans-50"/>
       <use x="127.246094" xlink:href="#DejaVuSans-44"/>
       <use x="159.033203" xlink:href="#DejaVuSans-48"/>
       <use x="222.65625" xlink:href="#DejaVuSans-48"/>
       <use x="286.279297" xlink:href="#DejaVuSans-48"/>
       <use x="349.902344" xlink:href="#DejaVuSans-44"/>
       <use x="381.689453" xlink:href="#DejaVuSans-48"/>
       <use x="445.3125" xlink:href="#DejaVuSans-48"/>
       <use x="508.935547" xlink:href="#DejaVuSans-48"/>
      </g>
     </g>
    </g>
    <g id="ytick_6">
     <g id="line2d_12">
      <g>
       <use style="stroke:#000000;stroke-width:0.8;" x="85.134375" xlink:href="#mdc2d1c4e50" y="69.204755"/>
      </g>
     </g>
     <g id="text_13">
      <!-- $2,500,000 -->
      <g transform="translate(20.878125 73.003974)scale(0.1 -0.1)">
       <use xlink:href="#DejaVuSans-36"/>
       <use x="63.623047" xlink:href="#DejaVuSans-50"/>
       <use x="127.246094" xlink:href="#DejaVuSans-44"/>
       <use x="159.033203" xlink:href="#DejaVuSans-53"/>
       <use x="222.65625" xlink:href="#DejaVuSans-48"/>
       <use x="286.279297" xlink:href="#DejaVuSans-48"/>
       <use x="349.902344" xlink:href="#DejaVuSans-44"/>
       <use x="381.689453" xlink:href="#DejaVuSans-48"/>
       <use x="445.3125" xlink:href="#DejaVuSans-48"/>
       <use x="508.935547" xlink:href="#DejaVuSans-48"/>
      </g>
     </g>
    </g>
    <g id="ytick_7">
     <g id="line2d_13">
      <g>
       <use style="stroke:#000000;stroke-width:0.8;" x="85.134375" xlink:href="#mdc2d1c4e50" y="24.401066"/>
      </g>
     </g>
     <g id="text_14">
      <!-- $3,000,000 -->
      <defs>
       <path d="M 40.578125 39.3125 
Q 47.65625 37.796875 51.625 33 
Q 55.609375 28.21875 55.609375 21.1875 
Q 55.609375 10.40625 48.1875 4.484375 
Q 40.765625 -1.421875 27.09375 -1.421875 
Q 22.515625 -1.421875 17.65625 -0.515625 
Q 12.796875 0.390625 7.625 2.203125 
L 7.625 11.71875 
Q 11.71875 9.328125 16.59375 8.109375 
Q 21.484375 6.890625 26.8125 6.890625 
Q 36.078125 6.890625 40.9375 10.546875 
Q 45.796875 14.203125 45.796875 21.1875 
Q 45.796875 27.640625 41.28125 31.265625 
Q 36.765625 34.90625 28.71875 34.90625 
L 20.21875 34.90625 
L 20.21875 43.015625 
L 29.109375 43.015625 
Q 36.375 43.015625 40.234375 45.921875 
Q 44.09375 48.828125 44.09375 54.296875 
Q 44.09375 59.90625 40.109375 62.90625 
Q 36.140625 65.921875 28.71875 65.921875 
Q 24.65625 65.921875 20.015625 65.03125 
Q 15.375 64.15625 9.8125 62.3125 
L 9.8125 71.09375 
Q 15.4375 72.65625 20.34375 73.4375 
Q 25.25 74.21875 29.59375 74.21875 
Q 40.828125 74.21875 47.359375 69.109375 
Q 53.90625 64.015625 53.90625 55.328125 
Q 53.90625 49.265625 50.4375 45.09375 
Q 46.96875 40.921875 40.578125 39.3125 
z
" id="DejaVuSans-51"/>
      </defs>
      <g transform="translate(20.878125 28.200285)scale(0.1 -0.1)">
       <use xlink:href="#DejaVuSans-36"/>
       <use x="63.623047" xlink:href="#DejaVuSans-51"/>
       <use x="127.246094" xlink:href="#DejaVuSans-44"/>
       <use x="159.033203" xlink:href="#DejaVuSans-48"/>
       <use x="222.65625" xlink:href="#DejaVuSans-48"/>
       <use x="286.279297" xlink:href="#DejaVuSans-48"/>
       <use x="349.902344" xlink:href="#DejaVuSans-44"/>
       <use x="381.689453" xlink:href="#DejaVuSans-48"/>
       <use x="445.3125" xlink:href="#DejaVuSans-48"/>
       <use x="508.935547" xlink:href="#DejaVuSans-48"/>
      </g>
     </g>
    </g>
    <g id="text_15">
     <!-- Weekly Gross Revenue -->
     <defs>
      <path d="M 3.328125 72.90625 
L 13.28125 72.90625 
L 28.609375 11.28125 
L 43.890625 72.90625 
L 54.984375 72.90625 
L 70.3125 11.28125 
L 85.59375 72.90625 
L 95.609375 72.90625 
L 77.296875 0 
L 64.890625 0 
L 49.515625 63.28125 
L 33.984375 0 
L 21.578125 0 
z
" id="DejaVuSans-87"/>
      <path d="M 9.078125 75.984375 
L 18.109375 75.984375 
L 18.109375 31.109375 
L 44.921875 54.6875 
L 56.390625 54.6875 
L 27.390625 29.109375 
L 57.625 0 
L 45.90625 0 
L 18.109375 26.703125 
L 18.109375 0 
L 9.078125 0 
z
" id="DejaVuSans-107"/>
      <path d="M 9.421875 75.984375 
L 18.40625 75.984375 
L 18.40625 0 
L 9.421875 0 
z
" id="DejaVuSans-108"/>
      <path d="M 32.171875 -5.078125 
Q 28.375 -14.84375 24.75 -17.8125 
Q 21.140625 -20.796875 15.09375 -20.796875 
L 7.90625 -20.796875 
L 7.90625 -13.28125 
L 13.1875 -13.28125 
Q 16.890625 -13.28125 18.9375 -11.515625 
Q 21 -9.765625 23.484375 -3.21875 
L 25.09375 0.875 
L 2.984375 54.6875 
L 12.5 54.6875 
L 29.59375 11.921875 
L 46.6875 54.6875 
L 56.203125 54.6875 
z
" id="DejaVuSans-121"/>
      <path id="DejaVuSans-32"/>
      <path d="M 59.515625 10.40625 
L 59.515625 29.984375 
L 43.40625 29.984375 
L 43.40625 38.09375 
L 69.28125 38.09375 
L 69.28125 6.78125 
Q 63.578125 2.734375 56.6875 0.65625 
Q 49.8125 -1.421875 42 -1.421875 
Q 24.90625 -1.421875 15.25 8.5625 
Q 5.609375 18.5625 5.609375 36.375 
Q 5.609375 54.25 15.25 64.234375 
Q 24.90625 74.21875 42 74.21875 
Q 49.125 74.21875 55.546875 72.453125 
Q 61.96875 70.703125 67.390625 67.28125 
L 67.390625 56.78125 
Q 61.921875 61.421875 55.765625 63.765625 
Q 49.609375 66.109375 42.828125 66.109375 
Q 29.4375 66.109375 22.71875 58.640625 
Q 16.015625 51.171875 16.015625 36.375 
Q 16.015625 21.625 22.71875 14.15625 
Q 29.4375 6.6875 42.828125 6.6875 
Q 48.046875 6.6875 52.140625 7.59375 
Q 56.25 8.5 59.515625 10.40625 
z
" id="DejaVuSans-71"/>
      <path d="M 41.109375 46.296875 
Q 39.59375 47.171875 37.8125 47.578125 
Q 36.03125 48 33.890625 48 
Q 26.265625 48 22.1875 43.046875 
Q 18.109375 38.09375 18.109375 28.8125 
L 18.109375 0 
L 9.078125 0 
L 9.078125 54.6875 
L 18.109375 54.6875 
L 18.109375 46.1875 
Q 20.953125 51.171875 25.484375 53.578125 
Q 30.03125 56 36.53125 56 
Q 37.453125 56 38.578125 55.875 
Q 39.703125 55.765625 41.0625 55.515625 
z
" id="DejaVuSans-114"/>
      <path d="M 30.609375 48.390625 
Q 23.390625 48.390625 19.1875 42.75 
Q 14.984375 37.109375 14.984375 27.296875 
Q 14.984375 17.484375 19.15625 11.84375 
Q 23.34375 6.203125 30.609375 6.203125 
Q 37.796875 6.203125 41.984375 11.859375 
Q 46.1875 17.53125 46.1875 27.296875 
Q 46.1875 37.015625 41.984375 42.703125 
Q 37.796875 48.390625 30.609375 48.390625 
z
M 30.609375 56 
Q 42.328125 56 49.015625 48.375 
Q 55.71875 40.765625 55.71875 27.296875 
Q 55.71875 13.875 49.015625 6.21875 
Q 42.328125 -1.421875 30.609375 -1.421875 
Q 18.84375 -1.421875 12.171875 6.21875 
Q 5.515625 13.875 5.515625 27.296875 
Q 5.515625 40.765625 12.171875 48.375 
Q 18.84375 56 30.609375 56 
z
" id="DejaVuSans-111"/>
      <path d="M 44.28125 53.078125 
L 44.28125 44.578125 
Q 40.484375 46.53125 36.375 47.5 
Q 32.28125 48.484375 27.875 48.484375 
Q 21.1875 48.484375 17.84375 46.4375 
Q 14.5 44.390625 14.5 40.28125 
Q 14.5 37.15625 16.890625 35.375 
Q 19.28125 33.59375 26.515625 31.984375 
L 29.59375 31.296875 
Q 39.15625 29.25 43.1875 25.515625 
Q 47.21875 21.78125 47.21875 15.09375 
Q 47.21875 7.46875 41.1875 3.015625 
Q 35.15625 -1.421875 24.609375 -1.421875 
Q 20.21875 -1.421875 15.453125 -0.5625 
Q 10.6875 0.296875 5.421875 2 
L 5.421875 11.28125 
Q 10.40625 8.6875 15.234375 7.390625 
Q 20.0625 6.109375 24.8125 6.109375 
Q 31.15625 6.109375 34.5625 8.28125 
Q 37.984375 10.453125 37.984375 14.40625 
Q 37.984375 18.0625 35.515625 20.015625 
Q 33.0625 21.96875 24.703125 23.78125 
L 21.578125 24.515625 
Q 13.234375 26.265625 9.515625 29.90625 
Q 5.8125 33.546875 5.8125 39.890625 
Q 5.8125 47.609375 11.28125 51.796875 
Q 16.75 56 26.8125 56 
Q 31.78125 56 36.171875 55.265625 
Q 40.578125 54.546875 44.28125 53.078125 
z
" id="DejaVuSans-115"/>
      <path d="M 44.390625 34.1875 
Q 47.5625 33.109375 50.5625 29.59375 
Q 53.5625 26.078125 56.59375 19.921875 
L 66.609375 0 
L 56 0 
L 46.6875 18.703125 
Q 43.0625 26.03125 39.671875 28.421875 
Q 36.28125 30.8125 30.421875 30.8125 
L 19.671875 30.8125 
L 19.671875 0 
L 9.8125 0 
L 9.8125 72.90625 
L 32.078125 72.90625 
Q 44.578125 72.90625 50.734375 67.671875 
Q 56.890625 62.453125 56.890625 51.90625 
Q 56.890625 45.015625 53.6875 40.46875 
Q 50.484375 35.9375 44.390625 34.1875 
z
M 19.671875 64.796875 
L 19.671875 38.921875 
L 32.078125 38.921875 
Q 39.203125 38.921875 42.84375 42.21875 
Q 46.484375 45.515625 46.484375 51.90625 
Q 46.484375 58.296875 42.84375 61.546875 
Q 39.203125 64.796875 32.078125 64.796875 
z
" id="DejaVuSans-82"/>
      <path d="M 2.984375 54.6875 
L 12.5 54.6875 
L 29.59375 8.796875 
L 46.6875 54.6875 
L 56.203125 54.6875 
L 35.6875 0 
L 23.484375 0 
z
" id="DejaVuSans-118"/>
      <path d="M 54.890625 33.015625 
L 54.890625 0 
L 45.90625 0 
L 45.90625 32.71875 
Q 45.90625 40.484375 42.875 44.328125 
Q 39.84375 48.1875 33.796875 48.1875 
Q 26.515625 48.1875 22.3125 43.546875 
Q 18.109375 38.921875 18.109375 30.90625 
L 18.109375 0 
L 9.078125 0 
L 9.078125 54.6875 
L 18.109375 54.6875 
L 18.109375 46.1875 
Q 21.34375 51.125 25.703125 53.5625 
Q 30.078125 56 35.796875 56 
Q 45.21875 56 50.046875 50.171875 
Q 54.890625 44.34375 54.890625 33.015625 
z
" id="DejaVuSans-110"/>
      <path d="M 8.5 21.578125 
L 8.5 54.6875 
L 17.484375 54.6875 
L 17.484375 21.921875 
Q 17.484375 14.15625 20.5 10.265625 
Q 23.53125 6.390625 29.59375 6.390625 
Q 36.859375 6.390625 41.078125 11.03125 
Q 45.3125 15.671875 45.3125 23.6875 
L 45.3125 54.6875 
L 54.296875 54.6875 
L 54.296875 0 
L 45.3125 0 
L 45.3125 8.40625 
Q 42.046875 3.421875 37.71875 1 
Q 33.40625 -1.421875 27.6875 -1.421875 
Q 18.265625 -1.421875 13.375 4.4375 
Q 8.5 10.296875 8.5 21.578125 
z
M 31.109375 56 
z
" id="DejaVuSans-117"/>
     </defs>
     <g transform="translate(14.798438 215.9275)rotate(-90)scale(0.1 -0.1)">
      <use xlink:href="#DejaVuSans-87"/>
      <use x="98.798828" xlink:href="#DejaVuSans-101"/>
      <use x="160.322266" xlink:href="#DejaVuSans-101"/>
      <use x="221.845703" xlink:href="#DejaVuSans-107"/>
      <use x="279.755859" xlink:href="#DejaVuSans-108"/>
      <use x="307.539062" xlink:href="#DejaVuSans-121"/>
      <use x="366.71875" xlink:href="#DejaVuSans-32"/>
      <use x="398.505859" xlink:href="#DejaVuSans-71"/>
      <use x="475.996094" xlink:href="#DejaVuSans-114"/>
      <use x="517.078125" xlink:href="#DejaVuSans-111"/>
      <use x="578.259766" xlink:href="#DejaVuSans-115"/>
      <use x="630.359375" xlink:href="#DejaVuSans-115"/>
      <use x="682.458984" xlink:href="#DejaVuSans-32"/>
      <use x="714.246094" xlink:href="#DejaVuSans-82"/>
      <use x="783.666016" xlink:href="#DejaVuSans-101"/>
      <use x="845.189453" xlink:href="#DejaVuSans-118"/>
      <use x="904.369141" xlink:href="#DejaVuSans-101"/>
      <use x="965.892578" xlink:href="#DejaVuSans-110"/>
      <use x="1029.271484" xlink:href="#DejaVuSans-117"/>
      <use x="1092.650391" xlink:href="#DejaVuSans-101"/>
     </g>
    </g>
   </g>
   <g id="line2d_14">
    <path clip-path="url(#p3de8db8ef9)" d="M 110.498011 228.953561 
L 110.944554 220.58486 
L 111.391097 236.586587 
L 111.83764 221.661044 
L 112.284183 219.939597 
L 112.730726 219.512528 
L 113.177269 219.511722 
L 113.623812 219.018523 
L 114.070355 222.078794 
L 114.516897 219.141195 
L 114.96344 218.813232 
L 115.409983 228.129711 
L 115.856526 218.857588 
L 116.303069 219.651688 
L 116.749612 221.092933 
L 117.196155 221.252793 
L 117.642698 219.825437 
L 118.089241 222.200749 
L 118.535783 242.172083 
L 118.982326 241.698867 
L 119.428869 220.071947 
L 119.875412 219.079187 
L 120.321955 219.413064 
L 120.768498 218.728105 
L 121.661584 219.289764 
L 122.108127 219.281789 
L 122.554669 219.007501 
L 123.001212 220.320518 
L 123.447755 218.770221 
L 124.787384 218.722191 
L 125.233927 218.657853 
L 125.68047 218.08114 
L 126.127013 228.445488 
L 126.573556 221.97458 
L 127.020098 224.760205 
L 127.466641 222.612137 
L 127.913184 225.453856 
L 128.359727 220.063882 
L 128.80627 222.172165 
L 129.252813 226.877806 
L 129.699356 225.707534 
L 130.145899 227.528535 
L 130.592442 226.444286 
L 131.038984 223.496651 
L 131.485527 225.705921 
L 131.93207 225.790152 
L 132.378613 224.919885 
L 132.825156 225.490595 
L 133.271699 221.522601 
L 134.164785 229.209301 
L 134.611328 226.413461 
L 135.057871 221.879328 
L 147.114529 245.746073 
L 147.561072 239.038065 
L 148.007614 244.039859 
L 148.454157 235.972328 
L 148.9007 236.624042 
L 149.347243 244.901524 
L 149.793786 242.190005 
L 150.240329 240.206814 
L 151.133415 242.541176 
L 151.579958 241.753079 
L 152.0265 236.124929 
L 152.919586 239.019696 
L 153.366129 253.432684 
L 153.812672 249.895881 
L 154.259215 248.064306 
L 154.705758 243.74998 
L 155.152301 240.53863 
L 155.598844 241.222066 
L 156.045387 237.331851 
L 156.491929 239.89059 
L 156.938472 250.017657 
L 157.385015 248.739946 
L 157.831558 246.839552 
L 158.278101 248.694067 
L 158.724644 235.621963 
L 159.61773 239.551964 
L 160.064273 253.606164 
L 160.510815 229.66827 
L 160.957358 233.606693 
L 161.403901 257.675414 
L 161.850444 258.398366 
L 162.296987 257.02137 
L 162.74353 257.27469 
L 163.190073 259.840149 
L 164.083159 248.637524 
L 164.529702 256.739017 
L 164.976244 253.310191 
L 165.86933 241.822525 
L 178.819074 253.663244 
L 179.265617 252.58464 
L 179.71216 247.918604 
L 180.158703 253.996135 
L 180.605246 256.597527 
L 181.051789 241.940717 
L 181.498331 241.96052 
L 181.944874 235.988099 
L 183.284503 259.462544 
L 183.731046 241.970198 
L 184.177589 244.667559 
L 184.624132 261.797174 
L 185.070675 257.538942 
L 185.517218 261.674233 
L 185.96376 264.494894 
L 186.410303 261.348958 
L 186.856846 251.26535 
L 187.303389 258.561631 
L 187.749932 259.288795 
L 188.196475 254.337002 
L 188.643018 253.742188 
L 189.089561 254.226068 
L 189.536104 257.807137 
L 189.982646 267.992718 
L 190.875732 248.165025 
L 191.322275 257.368419 
L 191.768818 261.130585 
L 192.215361 263.636634 
L 192.661904 259.642296 
L 193.108447 259.276608 
L 193.55499 270.319105 
L 194.001532 260.389621 
L 194.448075 260.32152 
L 194.894618 260.832192 
L 195.341161 256.928357 
L 195.787704 267.393692 
L 196.234247 262.654986 
L 196.68079 264.07365 
L 197.127333 266.928989 
L 197.573876 266.40604 
L 198.020419 260.787478 
L 199.360047 265.916067 
L 199.80659 262.757496 
L 200.253133 268.381972 
L 200.699676 267.456597 
L 201.146219 267.56323 
L 201.592762 281.76358 
L 202.039305 274.013796 
L 202.485847 260.129043 
L 202.93239 258.449532 
L 203.378933 273.701783 
L 203.825476 260.388815 
L 204.272019 251.264633 
L 204.718562 254.941672 
L 205.165105 245.471248 
L 205.611648 246.851739 
L 206.058191 247.142156 
L 206.504734 254.122213 
L 206.951276 244.557073 
L 207.397819 230.774114 
L 207.844362 260.024113 
L 208.290905 254.95368 
L 208.737448 258.337523 
L 209.183991 256.755415 
L 209.630534 258.662439 
L 210.077077 251.966528 
L 210.52362 249.091296 
L 210.970162 255.915167 
L 211.416705 254.920256 
L 211.863248 250.508258 
L 212.756334 245.192569 
L 213.202877 246.782024 
L 213.64942 241.969481 
L 214.095963 251.335334 
L 214.542506 248.323719 
L 215.435591 257.447094 
L 215.882134 249.544799 
L 216.328677 247.850324 
L 216.77522 247.948712 
L 225.259535 229.106252 
L 225.706078 233.164302 
L 226.152621 232.746373 
L 226.599164 230.336024 
L 227.045707 220.120514 
L 227.49225 221.467671 
L 227.938792 221.202792 
L 228.385335 216.246877 
L 228.831878 223.189477 
L 229.278421 223.139656 
L 229.724964 226.391776 
L 230.171507 230.987828 
L 230.61805 212.37996 
L 231.064593 230.968562 
L 231.511136 228.262509 
L 231.957678 237.697449 
L 232.404221 241.800033 
L 232.850764 241.621177 
L 233.74385 232.712591 
L 234.190393 233.659024 
L 234.636936 246.08246 
L 235.083479 242.699243 
L 235.530022 238.165648 
L 236.423107 242.062493 
L 236.86965 241.900394 
L 237.316193 243.87534 
L 237.762736 231.551638 
L 238.209279 230.0448 
L 238.655822 249.130813 
L 239.102365 251.509441 
L 239.548908 247.966275 
L 239.995451 255.012372 
L 240.441993 255.265961 
L 240.888536 250.842851 
L 241.335079 254.640591 
L 241.781622 250.453239 
L 242.228165 256.474496 
L 242.674708 257.642259 
L 243.567794 246.902457 
L 244.014337 247.019574 
L 244.460879 253.408669 
L 244.907422 251.456124 
L 245.353965 250.228951 
L 245.800508 251.537488 
L 246.247051 251.581754 
L 246.693594 261.385876 
L 247.140137 257.392613 
L 247.58668 257.201391 
L 248.033223 261.952733 
L 248.479766 250.763728 
L 248.926308 251.45702 
L 249.372851 250.136208 
L 249.819394 255.307897 
L 250.265937 254.167196 
L 250.71248 246.93812 
L 251.159023 251.939646 
L 251.605566 243.114394 
L 252.052109 248.295403 
L 252.498652 243.218608 
L 252.945194 247.494313 
L 253.391737 263.96854 
L 253.83828 216.496165 
L 259.643338 270.383801 
L 260.089881 273.076682 
L 260.536424 251.851831 
L 260.982967 255.19329 
L 261.429509 267.308565 
L 261.876052 268.420055 
L 262.322595 268.131968 
L 295.813312 247.690733 
L 296.259855 227.624326 
L 296.706398 228.409465 
L 297.152941 227.405773 
L 297.599484 224.682426 
L 298.046027 232.021539 
L 298.49257 225.112093 
L 298.939113 227.448337 
L 299.385655 235.709689 
L 299.832198 248.661629 
L 300.278741 224.29111 
L 300.725284 250.482361 
L 301.171827 252.02316 
L 301.61837 251.410693 
L 302.064913 250.264705 
L 325.285143 253.679463 
L 325.731686 240.219718 
L 326.178229 240.24669 
L 326.624772 235.748578 
L 327.071315 227.706854 
L 327.517858 239.152673 
L 327.964401 233.67829 
L 328.410944 223.082038 
L 328.857486 219.859757 
L 329.304029 219.789773 
L 329.750572 233.787969 
L 330.197115 213.337415 
L 330.643658 225.718825 
L 331.090201 230.233782 
L 331.536744 239.799549 
L 331.983287 234.953851 
L 332.42983 238.215021 
L 332.876372 239.048728 
L 333.322915 243.963604 
L 333.769458 242.345832 
L 334.216001 245.31094 
L 334.662544 234.910839 
L 335.109087 228.7394 
L 335.55563 248.800162 
L 336.002173 253.795415 
L 336.448716 241.245453 
L 336.895258 240.517752 
L 337.341801 243.349972 
L 337.788344 244.470423 
L 338.234887 243.93009 
L 339.127973 252.247626 
L 339.574516 258.46136 
L 340.021059 258.922301 
L 340.467602 247.891633 
L 340.914145 254.195512 
L 341.360687 253.308936 
L 341.80723 240.966237 
L 342.253773 241.329236 
L 342.700316 240.855392 
L 343.146859 256.811868 
L 343.593402 254.961296 
L 344.039945 247.724604 
L 344.486488 253.644874 
L 344.933031 222.685256 
L 345.379573 244.757256 
L 345.826116 238.715927 
L 346.272659 247.762687 
L 346.719202 236.622609 
L 347.165745 190.541029 
L 347.612288 239.284306 
L 348.058831 235.994013 
L 348.505374 249.895522 
L 348.951917 242.165631 
L 349.39846 246.453972 
L 349.845002 235.46067 
L 350.291545 228.074961 
L 350.738088 222.556401 
L 351.184631 245.028139 
L 351.631174 238.723723 
L 352.52426 215.343903 
L 352.970803 225.544449 
L 353.417346 245.755393 
L 353.863888 246.556124 
L 354.310431 248.706343 
L 354.756974 240.890519 
L 355.203517 253.850165 
L 355.65006 251.368847 
L 356.096603 251.382557 
L 356.543146 250.579495 
L 356.989689 257.112411 
L 357.436232 256.988036 
L 357.882774 254.305818 
L 358.329317 245.607361 
L 358.77586 251.932298 
L 359.222403 255.280388 
L 359.668946 253.34236 
L 360.115489 255.352701 
L 361.008575 252.302914 
L 361.455118 253.77373 
L 361.901661 254.523833 
L 362.348203 259.476612 
L 362.794746 258.64864 
L 363.241289 269.894993 
L 363.687832 266.506131 
L 364.134375 249.595606 
L 364.580918 251.290351 
L 365.027461 247.104969 
L 365.474004 250.095705 
L 365.920547 241.047242 
L 366.367089 251.004772 
L 366.813632 257.49611 
L 367.260175 243.123086 
L 367.706718 253.39021 
L 368.153261 230.893113 
L 368.599804 249.900809 
L 369.046347 244.134843 
L 369.939433 259.80108 
L 370.385976 195.138067 
L 370.832518 232.264912 
L 381.103005 186.155286 
L 381.549548 187.688826 
L 381.996091 183.437225 
L 382.442634 185.030265 
L 382.889177 181.840243 
L 383.335719 180.323548 
L 383.782262 180.838522 
L 384.228805 180.864777 
L 385.121891 183.843057 
L 385.568434 186.732268 
L 386.014977 188.581585 
L 386.46152 222.254693 
L 386.908063 216.910688 
L 387.354605 216.879057 
L 388.247691 194.657682 
L 388.694234 189.774886 
L 389.58732 201.161923 
L 390.480406 198.291709 
L 390.926949 201.335851 
L 391.373492 167.505482 
L 391.820034 195.874371 
L 392.266577 187.488285 
L 392.71312 192.28909 
L 393.159663 174.184188 
L 393.606206 161.77733 
L 394.499292 200.693545 
L 394.945835 215.798213 
L 395.392378 211.378687 
L 395.83892 220.163436 
L 396.285463 212.54887 
L 396.732006 192.650477 
L 397.178549 192.364898 
L 397.625092 213.276034 
L 398.518178 191.999837 
L 398.964721 189.560725 
L 399.411264 186.277331 
L 399.857806 175.764414 
L 400.304349 185.942289 
L 400.750892 188.651299 
L 401.197435 190.054461 
L 401.643978 192.716428 
L 402.090521 193.796645 
L 402.537064 188.98894 
L 402.983607 186.894367 
L 403.43015 188.132293 
L 404.323235 181.832716 
L 404.769778 181.297043 
L 405.216321 179.302024 
L 405.662864 179.849615 
L 406.109407 177.459607 
L 406.55595 178.231933 
L 407.002493 175.666025 
L 407.449036 174.521291 
L 407.895579 174.890026 
L 408.342121 174.684825 
L 408.788664 176.438083 
L 409.235207 180.103114 
L 409.68175 208.638583 
L 410.128293 204.779552 
L 410.574836 199.292265 
L 411.021379 201.602254 
L 411.467922 188.25174 
L 411.914465 189.611174 
L 412.361008 187.466331 
L 412.80755 188.925229 
L 413.254093 195.220147 
L 413.700636 247.741182 
L 415.040265 210.946511 
L 415.486808 186.404484 
L 415.933351 192.312746 
L 416.826436 152.365688 
L 417.719522 201.379669 
L 418.166065 199.106419 
L 418.612608 208.558026 
L 419.059151 214.747835 
L 419.505694 206.938014 
L 419.952237 188.491888 
L 420.39878 194.301224 
L 420.845323 206.112641 
L 421.291865 205.44865 
L 422.184951 174.645397 
L 422.631494 181.193725 
L 423.078037 185.894887 
L 423.52458 185.104102 
L 423.971123 183.220375 
L 424.417666 176.983075 
L 425.310751 188.232206 
L 425.757294 183.773611 
L 426.203837 181.110928 
L 426.65038 186.123565 
L 427.096923 182.490971 
L 427.543466 181.709416 
L 427.990009 178.401291 
L 428.436552 176.661295 
L 428.883095 176.854309 
L 429.329637 175.670058 
L 429.77618 174.841458 
L 430.222723 174.554894 
L 430.669266 173.096803 
L 431.115809 174.32989 
L 431.562352 173.203794 
L 432.008895 174.919327 
L 432.455438 174.702477 
L 432.901981 204.413416 
L 433.348524 194.914676 
L 433.795066 196.534598 
L 434.241609 197.685067 
L 434.688152 194.969067 
L 435.134695 181.775008 
L 435.581238 186.736121 
L 436.474324 204.838066 
L 436.920867 204.121027 
L 437.36741 212.931762 
L 437.813952 206.454851 
L 438.260495 161.450711 
L 438.707038 197.406209 
L 439.153581 198.567521 
L 439.600124 193.536066 
L 440.046667 155.663687 
L 440.49321 153.795553 
L 440.939753 200.865412 
L 441.386296 201.54365 
L 441.832839 216.02931 
L 442.279381 221.186663 
L 442.725924 219.268438 
L 443.172467 199.070756 
L 443.61901 190.642823 
L 444.065553 214.051048 
L 444.512096 220.330643 
L 445.405182 192.133621 
L 445.851725 194.679546 
L 446.298267 199.309918 
L 446.74481 166.929575 
L 447.191353 169.002642 
L 447.637896 192.142134 
L 448.084439 199.210005 
L 448.530982 199.213679 
L 448.977525 198.334183 
L 449.424068 192.960697 
L 449.870611 184.78492 
L 450.317153 184.383031 
L 450.763696 175.633229 
L 451.210239 174.364299 
L 451.656782 170.332415 
L 452.103325 177.257004 
L 452.549868 165.24182 
L 452.996411 162.769015 
L 453.442954 161.170509 
L 453.889497 161.748566 
L 454.33604 159.394401 
L 454.782582 160.638958 
L 455.229125 163.773424 
L 456.122211 182.134155 
L 456.568754 194.153461 
L 457.015297 192.575744 
L 457.46184 185.314231 
L 457.908383 189.112508 
L 458.354926 166.562185 
L 458.801468 170.114132 
L 459.248011 177.464177 
L 459.694554 191.396242 
L 460.141097 181.716764 
L 460.58764 188.697358 
L 461.034183 186.494898 
L 461.480726 141.511278 
L 461.927269 171.692297 
L 462.820355 159.70964 
L 463.266897 139.585436 
L 463.71344 137.294713 
L 464.159983 169.747906 
L 464.606526 177.834434 
L 465.053069 200.975181 
L 465.499612 209.035006 
L 465.946155 208.568152 
L 466.839241 162.851812 
L 467.285783 202.491696 
L 467.732326 199.793797 
L 468.625412 174.202199 
L 469.071955 171.545699 
L 469.518498 154.812686 
L 469.965041 156.07624 
L 470.411584 169.727476 
L 470.858127 166.622042 
L 471.304669 176.787014 
L 471.751212 170.336985 
L 472.644298 167.147948 
L 473.090841 166.427953 
L 473.537384 161.304293 
L 473.983927 159.17092 
L 475.323556 151.342641 
L 475.770098 146.771858 
L 476.216641 147.692574 
L 476.663184 148.30952 
L 477.109727 145.980983 
L 477.55627 146.571944 
L 478.002813 145.966377 
L 478.449356 146.927775 
L 479.342442 161.699372 
L 479.788984 183.157113 
L 480.235527 184.795583 
L 480.68207 179.480612 
L 481.128613 179.739756 
L 481.575156 154.847812 
L 482.021699 163.067855 
L 482.468242 166.745253 
L 482.914785 180.373459 
L 483.361328 170.774896 
L 483.807871 170.328741 
L 484.254413 173.915635 
L 484.700956 125.606775 
L 485.147499 156.211816 
L 485.594042 152.0388 
L 486.040585 152.364613 
L 486.487128 129.80031 
L 486.933671 114.589099 
L 487.380214 154.274415 
L 487.826757 173.655236 
L 488.273299 204.227929 
L 488.719842 191.145969 
L 489.166385 195.608775 
L 489.612928 178.297077 
L 490.059471 155.695677 
L 490.506014 155.077118 
L 490.952557 184.581601 
L 491.3991 158.909804 
L 491.845643 148.726912 
L 492.292185 151.855822 
L 492.738728 151.567555 
L 493.185271 153.379147 
L 493.631814 148.097241 
L 494.078357 121.976511 
L 494.971443 149.703184 
L 495.417986 153.21185 
L 495.864529 145.427926 
L 496.757614 144.816446 
L 497.204157 141.775978 
L 497.6507 137.802876 
L 498.097243 136.570237 
L 498.543786 136.089762 
L 498.990329 127.50439 
L 499.436872 128.191499 
L 499.883415 127.022661 
L 500.329958 126.950706 
L 500.7765 127.311376 
L 501.223043 128.128416 
L 501.669586 132.798304 
L 502.116129 196.34472 
L 502.562672 150.526228 
L 503.009215 176.808071 
L 503.455758 166.433419 
L 503.902301 171.993736 
L 504.348844 166.448563 
L 504.795387 144.472891 
L 505.241929 143.618037 
L 505.688472 153.311135 
L 506.135015 155.414221 
L 506.581558 151.708059 
L 507.028101 152.748401 
L 507.474644 155.881881 
L 507.921187 106.874263 
L 508.36773 142.453858 
L 508.814273 132.654216 
L 509.260815 128.893932 
L 509.707358 115.671377 
L 510.153901 74.21094 
L 510.600444 125.439657 
L 511.046987 150.74926 
L 511.49353 163.65102 
L 511.940073 169.354171 
L 512.386616 183.303531 
L 512.833159 172.267845 
L 513.279702 144.01428 
L 513.726244 137.936122 
L 514.172787 168.092052 
L 514.61933 157.012458 
L 515.065873 135.45122 
L 515.512416 137.122398 
L 515.958959 128.019364 
L 516.405502 106.73331 
L 516.852045 111.645139 
L 517.298588 131.548371 
L 517.74513 135.347993 
L 518.191673 132.362006 
L 518.638216 139.342152 
L 519.084759 128.053056 
L 519.977845 133.571347 
L 520.424388 127.685755 
L 520.870931 124.90022 
L 521.317474 118.186298 
L 521.764016 118.963373 
L 522.210559 114.173411 
L 522.657102 113.797598 
L 523.103645 94.336578 
L 523.550188 110.45121 
L 523.996731 112.759048 
L 524.443274 94.318477 
L 525.33636 136.107415 
L 525.782903 138.971536 
L 526.229445 152.811754 
L 526.675988 149.932579 
L 527.122531 153.816342 
L 527.569074 149.839835 
L 528.015617 129.143309 
L 528.908703 139.213386 
L 529.801789 192.728435 
L 530.248331 158.223322 
L 530.694874 167.578512 
L 531.141417 102.748291 
L 531.58796 145.553108 
L 532.034503 128.949757 
L 532.481046 128.310408 
L 532.927589 102.394521 
L 533.374132 54.274732 
L 533.820675 112.40259 
L 534.267218 147.991862 
L 534.71376 154.550405 
L 535.160303 157.393916 
L 535.606846 168.214366 
L 536.053389 173.707656 
L 536.499932 132.352956 
L 536.946475 133.782641 
L 537.393018 164.976672 
L 537.839561 152.743114 
L 538.286104 134.011767 
L 538.732646 123.614086 
L 539.179189 79.502345 
L 540.072275 137.908255 
L 540.518818 128.756922 
L 540.965361 126.140297 
L 541.411904 129.280229 
L 541.858447 127.720613 
L 542.30499 124.074488 
L 542.751532 121.472917 
L 543.198075 125.605072 
L 543.644618 125.752745 
L 544.091161 118.360853 
L 544.537704 117.247571 
L 544.984247 116.571842 
L 545.43079 111.457232 
L 545.877333 107.69184 
L 546.323876 85.675577 
L 546.770419 100.051378 
L 547.216961 100.972004 
L 547.663504 100.635259 
L 548.110047 103.901807 
L 548.55659 125.130332 
L 549.003133 130.279082 
L 549.449676 142.653503 
L 549.896219 141.102399 
L 550.342762 137.024188 
L 550.789305 139.912682 
L 551.235847 138.854777 
L 551.68239 124.308453 
L 552.128933 131.491739 
L 552.575476 132.076786 
L 553.022019 140.922288 
L 553.468562 140.394232 
L 553.915105 164.403812 
L 554.361648 153.366423 
L 554.808191 81.265729 
L 555.254734 117.958068 
L 555.701276 130.24306 
L 556.147819 95.515363 
L 556.594362 38.992911 
L 557.487448 139.612766 
L 557.933991 145.090375 
L 558.380534 149.079785 
L 558.827077 177.345895 
L 559.27362 168.032463 
L 560.166705 136.03322 
L 560.613248 161.123555 
L 561.059791 157.762113 
L 561.506334 137.87277 
L 561.952877 129.34609 
L 562.39942 124.298776 
L 562.845963 142.408427 
L 563.292506 121.630716 
L 563.739048 65.317856 
L 564.185591 101.127742 
L 565.078677 141.468714 
L 565.52522 123.28684 
L 565.971763 113.412465 
L 566.418306 117.638887 
L 566.864849 118.517128 
L 567.311392 110.097709 
L 567.757935 105.149141 
L 568.204477 109.982563 
L 568.65102 108.079213 
L 569.097563 100.44108 
L 569.544106 75.386141 
L 569.990649 86.696294 
L 570.437192 63.91111 
L 570.883735 87.54622 
L 571.330278 95.326918 
L 571.776821 118.005291 
L 572.223363 120.098878 
L 572.669906 142.897504 
L 573.116449 138.599665 
L 574.009535 136.034295 
L 574.456078 127.111193 
L 574.902621 109.503881 
L 575.349164 123.399297 
L 575.795707 127.347846 
L 576.24225 140.873631 
L 576.688792 137.50986 
L 577.135335 156.304111 
L 577.581878 139.863129 
L 578.028421 76.129703 
L 578.474964 121.198092 
L 578.921507 120.723352 
L 579.36805 96.050319 
L 579.814593 34.67267 
L 580.261136 67.861182 
L 580.707678 128.304046 
L 581.154221 138.954152 
L 581.600764 146.158943 
L 582.047307 173.330051 
L 582.49385 162.099469 
L 583.386936 119.343936 
L 583.833479 159.619584 
L 584.280022 163.289455 
L 584.726565 129.723158 
L 585.173107 122.80529 
L 585.61965 108.255471 
L 586.066193 57.239392 
L 586.512736 87.748016 
L 586.959279 128.035314 
L 587.405822 116.450514 
L 587.852365 122.22553 
L 588.298908 140.729543 
L 588.745451 117.004287 
L 589.191993 108.043012 
L 589.638536 111.597109 
L 590.085079 117.625356 
L 590.531622 104.801465 
L 590.978165 100.14448 
L 591.424708 103.195521 
L 591.871251 101.163764 
L 592.317794 86.329531 
L 592.764337 58.450436 
L 593.210879 77.40374 
L 593.657422 58.067633 
L 594.103965 84.121068 
L 595.443594 128.774216 
L 595.890137 137.175625 
L 596.33668 138.442583 
L 596.783223 132.665506 
L 597.229766 135.643607 
L 598.122851 111.030791 
L 598.569394 120.089917 
L 599.015937 122.7983 
L 599.46248 146.20769 
L 599.909023 135.081231 
L 600.355566 146.863526 
L 600.802109 139.770565 
L 601.248652 74.895003 
L 601.695194 115.458291 
L 602.141737 113.203232 
L 602.58828 100.361599 
L 603.034823 61.312585 
L 603.481366 35.287915 
L 603.927909 130.85248 
L 604.374452 144.459629 
L 604.820995 197.966972 
L 605.267538 157.602612 
L 605.714081 155.818977 
L 606.160623 139.363478 
L 606.607166 127.295426 
L 607.053709 161.579208 
L 607.500252 162.27716 
L 607.946795 140.103098 
L 608.393338 110.056669 
L 608.839881 57.569775 
L 609.732967 114.363199 
L 610.179509 119.428884 
L 610.626052 114.388379 
L 611.072595 118.440514 
L 611.519138 113.315062 
L 611.965681 145.275146 
L 612.412224 108.941146 
L 612.858767 107.516389 
L 613.30531 108.663901 
L 613.751853 107.565763 
L 614.198395 104.473323 
L 614.644938 103.877254 
L 615.091481 99.286131 
L 615.538024 91.107307 
L 615.984567 67.951685 
L 616.43111 86.148524 
L 616.877653 64.325365 
L 617.324196 87.804738 
L 617.770739 93.049816 
L 617.770739 93.049816 
" style="fill:none;stroke:#1f77b4;stroke-linecap:square;"/>
   </g>
   <g id="patch_3">
    <path d="M 85.134375 294.118125 
L 85.134375 22.318125 
" style="fill:none;stroke:#000000;stroke-linecap:square;stroke-linejoin:miter;stroke-width:0.8;"/>
   </g>
   <g id="patch_4">
    <path d="M 643.134375 294.118125 
L 643.134375 22.318125 
" style="fill:none;stroke:#000000;stroke-linecap:square;stroke-linejoin:miter;stroke-width:0.8;"/>
   </g>
   <g id="patch_5">
    <path d="M 85.134375 294.118125 
L 643.134375 294.118125 
" style="fill:none;stroke:#000000;stroke-linecap:square;stroke-linejoin:miter;stroke-width:0.8;"/>
   </g>
   <g id="patch_6">
    <path d="M 85.134375 22.318125 
L 643.134375 22.318125 
" style="fill:none;stroke:#000000;stroke-linecap:square;stroke-linejoin:miter;stroke-width:0.8;"/>
   </g>
   <g id="text_16">
    <!-- Weekly Gross Revenue, Minskoff Theatre -->
    <defs>
     <path d="M 9.8125 72.90625 
L 24.515625 72.90625 
L 43.109375 23.296875 
L 61.8125 72.90625 
L 76.515625 72.90625 
L 76.515625 0 
L 66.890625 0 
L 66.890625 64.015625 
L 48.09375 14.015625 
L 38.1875 14.015625 
L 19.390625 64.015625 
L 19.390625 0 
L 9.8125 0 
z
" id="DejaVuSans-77"/>
     <path d="M 9.421875 54.6875 
L 18.40625 54.6875 
L 18.40625 0 
L 9.421875 0 
z
M 9.421875 75.984375 
L 18.40625 75.984375 
L 18.40625 64.59375 
L 9.421875 64.59375 
z
" id="DejaVuSans-105"/>
     <path d="M 37.109375 75.984375 
L 37.109375 68.5 
L 28.515625 68.5 
Q 23.6875 68.5 21.796875 66.546875 
Q 19.921875 64.59375 19.921875 59.515625 
L 19.921875 54.6875 
L 34.71875 54.6875 
L 34.71875 47.703125 
L 19.921875 47.703125 
L 19.921875 0 
L 10.890625 0 
L 10.890625 47.703125 
L 2.296875 47.703125 
L 2.296875 54.6875 
L 10.890625 54.6875 
L 10.890625 58.5 
Q 10.890625 67.625 15.140625 71.796875 
Q 19.390625 75.984375 28.609375 75.984375 
z
" id="DejaVuSans-102"/>
     <path d="M -0.296875 72.90625 
L 61.375 72.90625 
L 61.375 64.59375 
L 35.5 64.59375 
L 35.5 0 
L 25.59375 0 
L 25.59375 64.59375 
L -0.296875 64.59375 
z
" id="DejaVuSans-84"/>
     <path d="M 54.890625 33.015625 
L 54.890625 0 
L 45.90625 0 
L 45.90625 32.71875 
Q 45.90625 40.484375 42.875 44.328125 
Q 39.84375 48.1875 33.796875 48.1875 
Q 26.515625 48.1875 22.3125 43.546875 
Q 18.109375 38.921875 18.109375 30.90625 
L 18.109375 0 
L 9.078125 0 
L 9.078125 75.984375 
L 18.109375 75.984375 
L 18.109375 46.1875 
Q 21.34375 51.125 25.703125 53.5625 
Q 30.078125 56 35.796875 56 
Q 45.21875 56 50.046875 50.171875 
Q 54.890625 44.34375 54.890625 33.015625 
z
" id="DejaVuSans-104"/>
    </defs>
    <g transform="translate(240.67875 16.318125)scale(0.12 -0.12)">
     <use xlink:href="#DejaVuSans-87"/>
     <use x="98.798828" xlink:href="#DejaVuSans-101"/>
     <use x="160.322266" xlink:href="#DejaVuSans-101"/>
     <use x="221.845703" xlink:href="#DejaVuSans-107"/>
     <use x="279.755859" xlink:href="#DejaVuSans-108"/>
     <use x="307.539062" xlink:href="#DejaVuSans-121"/>
     <use x="366.71875" xlink:href="#DejaVuSans-32"/>
     <use x="398.505859" xlink:href="#DejaVuSans-71"/>
     <use x="475.996094" xlink:href="#DejaVuSans-114"/>
     <use x="517.078125" xlink:href="#DejaVuSans-111"/>
     <use x="578.259766" xlink:href="#DejaVuSans-115"/>
     <use x="630.359375" xlink:href="#DejaVuSans-115"/>
     <use x="682.458984" xlink:href="#DejaVuSans-32"/>
     <use x="714.246094" xlink:href="#DejaVuSans-82"/>
     <use x="783.666016" xlink:href="#DejaVuSans-101"/>
     <use x="845.189453" xlink:href="#DejaVuSans-118"/>
     <use x="904.369141" xlink:href="#DejaVuSans-101"/>
     <use x="965.892578" xlink:href="#DejaVuSans-110"/>
     <use x="1029.271484" xlink:href="#DejaVuSans-117"/>
     <use x="1092.650391" xlink:href="#DejaVuSans-101"/>
     <use x="1154.173828" xlink:href="#DejaVuSans-44"/>
     <use x="1185.960938" xlink:href="#DejaVuSans-32"/>
     <use x="1217.748047" xlink:href="#DejaVuSans-77"/>
     <use x="1304.027344" xlink:href="#DejaVuSans-105"/>
     <use x="1331.810547" xlink:href="#DejaVuSans-110"/>
     <use x="1395.189453" xlink:href="#DejaVuSans-115"/>
     <use x="1447.289062" xlink:href="#DejaVuSans-107"/>
     <use x="1505.152344" xlink:href="#DejaVuSans-111"/>
     <use x="1566.333984" xlink:href="#DejaVuSans-102"/>
     <use x="1601.539062" xlink:href="#DejaVuSans-102"/>
     <use x="1636.744141" xlink:href="#DejaVuSans-32"/>
     <use x="1668.53125" xlink:href="#DejaVuSans-84"/>
     <use x="1729.615234" xlink:href="#DejaVuSans-104"/>
     <use x="1792.994141" xlink:href="#DejaVuSans-101"/>
     <use x="1854.517578" xlink:href="#DejaVuSans-97"/>
     <use x="1915.796875" xlink:href="#DejaVuSans-116"/>
     <use x="1955.005859" xlink:href="#DejaVuSans-114"/>
     <use x="1996.087891" xlink:href="#DejaVuSans-101"/>
    </g>
   </g>
  </g>
 </g>
 <defs>
  <clipPath id="p3de8db8ef9">
   <rect height="271.8" width="558" x="85.134375" y="22.318125"/>
  </clipPath>
 </defs>
</svg>
