<?xml version="1.0" encoding="utf-8" standalone="no"?>
<!DOCTYPE svg PUBLIC "-//W3C//DTD SVG 1.1//EN"
  "http://www.w3.org/Graphics/SVG/1.1/DTD/svg11.dtd">
<!-- Created with matplotlib (https://matplotlib.org/) -->
<svg height="331.674375pt" version="1.1" viewBox="0 0 628.390625 331.674375" width="628.390625pt" xmlns="http://www.w3.org/2000/svg" xmlns:xlink="http://www.w3.org/1999/xlink">
 <defs>
  <style type="text/css">
*{stroke-linecap:butt;stroke-linejoin:round;}
  </style>
 </defs>
 <g id="figure_1">
  <g id="patch_1">
   <path d="M -0 331.674375 
L 628.390625 331.674375 
L 628.390625 0 
L -0 0 
z
" style="fill:none;"/>
  </g>
  <g id="axes_1">
   <g id="patch_2">
    <path d="M 59.690625 294.118125 
L 617.690625 294.118125 
L 617.690625 22.318125 
L 59.690625 22.318125 
z
" style="fill:#ffffff;"/>
   </g>
   <g id="matplotlib.axis_1">
    <g id="xtick_1">
     <g id="line2d_1">
      <defs>
       <path d="M 0 0 
L 0 3.5 
" id="mbfaa22578c" style="stroke:#000000;stroke-width:0.8;"/>
      </defs>
      <g>
       <use style="stroke:#000000;stroke-width:0.8;" x="111.910627" xlink:href="#mbfaa22578c" y="294.118125"/>
      </g>
     </g>
     <g id="text_1">
      <!-- 1996 -->
      <defs>
       <path d="M 12.40625 8.296875 
L 28.515625 8.296875 
L 28.515625 63.921875 
L 10.984375 60.40625 
L 10.984375 69.390625 
L 28.421875 72.90625 
L 38.28125 72.90625 
L 38.28125 8.296875 
L 54.390625 8.296875 
L 54.390625 0 
L 12.40625 0 
z
" id="DejaVuSans-49"/>
       <path d="M 10.984375 1.515625 
L 10.984375 10.5 
Q 14.703125 8.734375 18.5 7.8125 
Q 22.3125 6.890625 25.984375 6.890625 
Q 35.75 6.890625 40.890625 13.453125 
Q 46.046875 20.015625 46.78125 33.40625 
Q 43.953125 29.203125 39.59375 26.953125 
Q 35.25 24.703125 29.984375 24.703125 
Q 19.046875 24.703125 12.671875 31.3125 
Q 6.296875 37.9375 6.296875 49.421875 
Q 6.296875 60.640625 12.9375 67.421875 
Q 19.578125 74.21875 30.609375 74.21875 
Q 43.265625 74.21875 49.921875 64.515625 
Q 56.59375 54.828125 56.59375 36.375 
Q 56.59375 19.140625 48.40625 8.859375 
Q 40.234375 -1.421875 26.421875 -1.421875 
Q 22.703125 -1.421875 18.890625 -0.6875 
Q 15.09375 0.046875 10.984375 1.515625 
z
M 30.609375 32.421875 
Q 37.25 32.421875 41.125 36.953125 
Q 45.015625 41.5 45.015625 49.421875 
Q 45.015625 57.28125 41.125 61.84375 
Q 37.25 66.40625 30.609375 66.40625 
Q 23.96875 66.40625 20.09375 61.84375 
Q 16.21875 57.28125 16.21875 49.421875 
Q 16.21875 41.5 20.09375 36.953125 
Q 23.96875 32.421875 30.609375 32.421875 
z
" id="DejaVuSans-57"/>
       <path d="M 33.015625 40.375 
Q 26.375 40.375 22.484375 35.828125 
Q 18.609375 31.296875 18.609375 23.390625 
Q 18.609375 15.53125 22.484375 10.953125 
Q 26.375 6.390625 33.015625 6.390625 
Q 39.65625 6.390625 43.53125 10.953125 
Q 47.40625 15.53125 47.40625 23.390625 
Q 47.40625 31.296875 43.53125 35.828125 
Q 39.65625 40.375 33.015625 40.375 
z
M 52.59375 71.296875 
L 52.59375 62.3125 
Q 48.875 64.0625 45.09375 64.984375 
Q 41.3125 65.921875 37.59375 65.921875 
Q 27.828125 65.921875 22.671875 59.328125 
Q 17.53125 52.734375 16.796875 39.40625 
Q 19.671875 43.65625 24.015625 45.921875 
Q 28.375 48.1875 33.59375 48.1875 
Q 44.578125 48.1875 50.953125 41.515625 
Q 57.328125 34.859375 57.328125 23.390625 
Q 57.328125 12.15625 50.6875 5.359375 
Q 44.046875 -1.421875 33.015625 -1.421875 
Q 20.359375 -1.421875 13.671875 8.265625 
Q 6.984375 17.96875 6.984375 36.375 
Q 6.984375 53.65625 15.1875 63.9375 
Q 23.390625 74.21875 37.203125 74.21875 
Q 40.921875 74.21875 44.703125 73.484375 
Q 48.484375 72.75 52.59375 71.296875 
z
" id="DejaVuSans-54"/>
      </defs>
      <g transform="translate(99.185627 308.716563)scale(0.1 -0.1)">
       <use xlink:href="#DejaVuSans-49"/>
       <use x="63.623047" xlink:href="#DejaVuSans-57"/>
       <use x="127.246094" xlink:href="#DejaVuSans-57"/>
       <use x="190.869141" xlink:href="#DejaVuSans-54"/>
      </g>
     </g>
    </g>
    <g id="xtick_2">
     <g id="line2d_2">
      <g>
       <use style="stroke:#000000;stroke-width:0.8;" x="205.110508" xlink:href="#mbfaa22578c" y="294.118125"/>
      </g>
     </g>
     <g id="text_2">
      <!-- 2000 -->
      <defs>
       <path d="M 19.1875 8.296875 
L 53.609375 8.296875 
L 53.609375 0 
L 7.328125 0 
L 7.328125 8.296875 
Q 12.9375 14.109375 22.625 23.890625 
Q 32.328125 33.6875 34.8125 36.53125 
Q 39.546875 41.84375 41.421875 45.53125 
Q 43.3125 49.21875 43.3125 52.78125 
Q 43.3125 58.59375 39.234375 62.25 
Q 35.15625 65.921875 28.609375 65.921875 
Q 23.96875 65.921875 18.8125 64.3125 
Q 13.671875 62.703125 7.8125 59.421875 
L 7.8125 69.390625 
Q 13.765625 71.78125 18.9375 73 
Q 24.125 74.21875 28.421875 74.21875 
Q 39.75 74.21875 46.484375 68.546875 
Q 53.21875 62.890625 53.21875 53.421875 
Q 53.21875 48.921875 51.53125 44.890625 
Q 49.859375 40.875 45.40625 35.40625 
Q 44.1875 33.984375 37.640625 27.21875 
Q 31.109375 20.453125 19.1875 8.296875 
z
" id="DejaVuSans-50"/>
       <path d="M 31.78125 66.40625 
Q 24.171875 66.40625 20.328125 58.90625 
Q 16.5 51.421875 16.5 36.375 
Q 16.5 21.390625 20.328125 13.890625 
Q 24.171875 6.390625 31.78125 6.390625 
Q 39.453125 6.390625 43.28125 13.890625 
Q 47.125 21.390625 47.125 36.375 
Q 47.125 51.421875 43.28125 58.90625 
Q 39.453125 66.40625 31.78125 66.40625 
z
M 31.78125 74.21875 
Q 44.046875 74.21875 50.515625 64.515625 
Q 56.984375 54.828125 56.984375 36.375 
Q 56.984375 17.96875 50.515625 8.265625 
Q 44.046875 -1.421875 31.78125 -1.421875 
Q 19.53125 -1.421875 13.0625 8.265625 
Q 6.59375 17.96875 6.59375 36.375 
Q 6.59375 54.828125 13.0625 64.515625 
Q 19.53125 74.21875 31.78125 74.21875 
z
" id="DejaVuSans-48"/>
      </defs>
      <g transform="translate(192.385508 308.716563)scale(0.1 -0.1)">
       <use xlink:href="#DejaVuSans-50"/>
       <use x="63.623047" xlink:href="#DejaVuSans-48"/>
       <use x="127.246094" xlink:href="#DejaVuSans-48"/>
       <use x="190.869141" xlink:href="#DejaVuSans-48"/>
      </g>
     </g>
    </g>
    <g id="xtick_3">
     <g id="line2d_3">
      <g>
       <use style="stroke:#000000;stroke-width:0.8;" x="298.310389" xlink:href="#mbfaa22578c" y="294.118125"/>
      </g>
     </g>
     <g id="text_3">
      <!-- 2004 -->
      <defs>
       <path d="M 37.796875 64.3125 
L 12.890625 25.390625 
L 37.796875 25.390625 
z
M 35.203125 72.90625 
L 47.609375 72.90625 
L 47.609375 25.390625 
L 58.015625 25.390625 
L 58.015625 17.1875 
L 47.609375 17.1875 
L 47.609375 0 
L 37.796875 0 
L 37.796875 17.1875 
L 4.890625 17.1875 
L 4.890625 26.703125 
z
" id="DejaVuSans-52"/>
      </defs>
      <g transform="translate(285.585389 308.716563)scale(0.1 -0.1)">
       <use xlink:href="#DejaVuSans-50"/>
       <use x="63.623047" xlink:href="#DejaVuSans-48"/>
       <use x="127.246094" xlink:href="#DejaVuSans-48"/>
       <use x="190.869141" xlink:href="#DejaVuSans-52"/>
      </g>
     </g>
    </g>
    <g id="xtick_4">
     <g id="line2d_4">
      <g>
       <use style="stroke:#000000;stroke-width:0.8;" x="391.51027" xlink:href="#mbfaa22578c" y="294.118125"/>
      </g>
     </g>
     <g id="text_4">
      <!-- 2008 -->
      <defs>
       <path d="M 31.78125 34.625 
Q 24.75 34.625 20.71875 30.859375 
Q 16.703125 27.09375 16.703125 20.515625 
Q 16.703125 13.921875 20.71875 10.15625 
Q 24.75 6.390625 31.78125 6.390625 
Q 38.8125 6.390625 42.859375 10.171875 
Q 46.921875 13.96875 46.921875 20.515625 
Q 46.921875 27.09375 42.890625 30.859375 
Q 38.875 34.625 31.78125 34.625 
z
M 21.921875 38.8125 
Q 15.578125 40.375 12.03125 44.71875 
Q 8.5 49.078125 8.5 55.328125 
Q 8.5 64.0625 14.71875 69.140625 
Q 20.953125 74.21875 31.78125 74.21875 
Q 42.671875 74.21875 48.875 69.140625 
Q 55.078125 64.0625 55.078125 55.328125 
Q 55.078125 49.078125 51.53125 44.71875 
Q 48 40.375 41.703125 38.8125 
Q 48.828125 37.15625 52.796875 32.3125 
Q 56.78125 27.484375 56.78125 20.515625 
Q 56.78125 9.90625 50.3125 4.234375 
Q 43.84375 -1.421875 31.78125 -1.421875 
Q 19.734375 -1.421875 13.25 4.234375 
Q 6.78125 9.90625 6.78125 20.515625 
Q 6.78125 27.484375 10.78125 32.3125 
Q 14.796875 37.15625 21.921875 38.8125 
z
M 18.3125 54.390625 
Q 18.3125 48.734375 21.84375 45.5625 
Q 25.390625 42.390625 31.78125 42.390625 
Q 38.140625 42.390625 41.71875 45.5625 
Q 45.3125 48.734375 45.3125 54.390625 
Q 45.3125 60.0625 41.71875 63.234375 
Q 38.140625 66.40625 31.78125 66.40625 
Q 25.390625 66.40625 21.84375 63.234375 
Q 18.3125 60.0625 18.3125 54.390625 
z
" id="DejaVuSans-56"/>
      </defs>
      <g transform="translate(378.78527 308.716563)scale(0.1 -0.1)">
       <use xlink:href="#DejaVuSans-50"/>
       <use x="63.623047" xlink:href="#DejaVuSans-48"/>
       <use x="127.246094" xlink:href="#DejaVuSans-48"/>
       <use x="190.869141" xlink:href="#DejaVuSans-56"/>
      </g>
     </g>
    </g>
    <g id="xtick_5">
     <g id="line2d_5">
      <g>
       <use style="stroke:#000000;stroke-width:0.8;" x="484.710151" xlink:href="#mbfaa22578c" y="294.118125"/>
      </g>
     </g>
     <g id="text_5">
      <!-- 2012 -->
      <g transform="translate(471.985151 308.716563)scale(0.1 -0.1)">
       <use xlink:href="#DejaVuSans-50"/>
       <use x="63.623047" xlink:href="#DejaVuSans-48"/>
       <use x="127.246094" xlink:href="#DejaVuSans-49"/>
       <use x="190.869141" xlink:href="#DejaVuSans-50"/>
      </g>
     </g>
    </g>
    <g id="xtick_6">
     <g id="line2d_6">
      <g>
       <use style="stroke:#000000;stroke-width:0.8;" x="577.910032" xlink:href="#mbfaa22578c" y="294.118125"/>
      </g>
     </g>
     <g id="text_6">
      <!-- 2016 -->
      <g transform="translate(565.185032 308.716563)scale(0.1 -0.1)">
       <use xlink:href="#DejaVuSans-50"/>
       <use x="63.623047" xlink:href="#DejaVuSans-48"/>
       <use x="127.246094" xlink:href="#DejaVuSans-49"/>
       <use x="190.869141" xlink:href="#DejaVuSans-54"/>
      </g>
     </g>
    </g>
    <g id="text_7">
     <!-- Date -->
     <defs>
      <path d="M 19.671875 64.796875 
L 19.671875 8.109375 
L 31.59375 8.109375 
Q 46.6875 8.109375 53.6875 14.9375 
Q 60.6875 21.78125 60.6875 36.53125 
Q 60.6875 51.171875 53.6875 57.984375 
Q 46.6875 64.796875 31.59375 64.796875 
z
M 9.8125 72.90625 
L 30.078125 72.90625 
Q 51.265625 72.90625 61.171875 64.09375 
Q 71.09375 55.28125 71.09375 36.53125 
Q 71.09375 17.671875 61.125 8.828125 
Q 51.171875 0 30.078125 0 
L 9.8125 0 
z
" id="DejaVuSans-68"/>
      <path d="M 34.28125 27.484375 
Q 23.390625 27.484375 19.1875 25 
Q 14.984375 22.515625 14.984375 16.5 
Q 14.984375 11.71875 18.140625 8.90625 
Q 21.296875 6.109375 26.703125 6.109375 
Q 34.1875 6.109375 38.703125 11.40625 
Q 43.21875 16.703125 43.21875 25.484375 
L 43.21875 27.484375 
z
M 52.203125 31.203125 
L 52.203125 0 
L 43.21875 0 
L 43.21875 8.296875 
Q 40.140625 3.328125 35.546875 0.953125 
Q 30.953125 -1.421875 24.3125 -1.421875 
Q 15.921875 -1.421875 10.953125 3.296875 
Q 6 8.015625 6 15.921875 
Q 6 25.140625 12.171875 29.828125 
Q 18.359375 34.515625 30.609375 34.515625 
L 43.21875 34.515625 
L 43.21875 35.40625 
Q 43.21875 41.609375 39.140625 45 
Q 35.0625 48.390625 27.6875 48.390625 
Q 23 48.390625 18.546875 47.265625 
Q 14.109375 46.140625 10.015625 43.890625 
L 10.015625 52.203125 
Q 14.9375 54.109375 19.578125 55.046875 
Q 24.21875 56 28.609375 56 
Q 40.484375 56 46.34375 49.84375 
Q 52.203125 43.703125 52.203125 31.203125 
z
" id="DejaVuSans-97"/>
      <path d="M 18.3125 70.21875 
L 18.3125 54.6875 
L 36.8125 54.6875 
L 36.8125 47.703125 
L 18.3125 47.703125 
L 18.3125 18.015625 
Q 18.3125 11.328125 20.140625 9.421875 
Q 21.96875 7.515625 27.59375 7.515625 
L 36.8125 7.515625 
L 36.8125 0 
L 27.59375 0 
Q 17.1875 0 13.234375 3.875 
Q 9.28125 7.765625 9.28125 18.015625 
L 9.28125 47.703125 
L 2.6875 47.703125 
L 2.6875 54.6875 
L 9.28125 54.6875 
L 9.28125 70.21875 
z
" id="DejaVuSans-116"/>
      <path d="M 56.203125 29.59375 
L 56.203125 25.203125 
L 14.890625 25.203125 
Q 15.484375 15.921875 20.484375 11.0625 
Q 25.484375 6.203125 34.421875 6.203125 
Q 39.59375 6.203125 44.453125 7.46875 
Q 49.3125 8.734375 54.109375 11.28125 
L 54.109375 2.78125 
Q 49.265625 0.734375 44.1875 -0.34375 
Q 39.109375 -1.421875 33.890625 -1.421875 
Q 20.796875 -1.421875 13.15625 6.1875 
Q 5.515625 13.8125 5.515625 26.8125 
Q 5.515625 40.234375 12.765625 48.109375 
Q 20.015625 56 32.328125 56 
Q 43.359375 56 49.78125 48.890625 
Q 56.203125 41.796875 56.203125 29.59375 
z
M 47.21875 32.234375 
Q 47.125 39.59375 43.09375 43.984375 
Q 39.0625 48.390625 32.421875 48.390625 
Q 24.90625 48.390625 20.390625 44.140625 
Q 15.875 39.890625 15.1875 32.171875 
z
" id="DejaVuSans-101"/>
     </defs>
     <g transform="translate(326.739844 322.394687)scale(0.1 -0.1)">
      <use xlink:href="#DejaVuSans-68"/>
      <use x="77.001953" xlink:href="#DejaVuSans-97"/>
      <use x="138.28125" xlink:href="#DejaVuSans-116"/>
      <use x="177.490234" xlink:href="#DejaVuSans-101"/>
     </g>
    </g>
   </g>
   <g id="matplotlib.axis_2">
    <g id="ytick_1">
     <g id="line2d_7">
      <defs>
       <path d="M 0 0 
L -3.5 0 
" id="mfa1c10df58" style="stroke:#000000;stroke-width:0.8;"/>
      </defs>
      <g>
       <use style="stroke:#000000;stroke-width:0.8;" x="59.690625" xlink:href="#mfa1c10df58" y="281.001088"/>
      </g>
     </g>
     <g id="text_8">
      <!-- 4000 -->
      <g transform="translate(27.240625 284.800307)scale(0.1 -0.1)">
       <use xlink:href="#DejaVuSans-52"/>
       <use x="63.623047" xlink:href="#DejaVuSans-48"/>
       <use x="127.246094" xlink:href="#DejaVuSans-48"/>
       <use x="190.869141" xlink:href="#DejaVuSans-48"/>
      </g>
     </g>
    </g>
    <g id="ytick_2">
     <g id="line2d_8">
      <g>
       <use style="stroke:#000000;stroke-width:0.8;" x="59.690625" xlink:href="#mfa1c10df58" y="237.430129"/>
      </g>
     </g>
     <g id="text_9">
      <!-- 6000 -->
      <g transform="translate(27.240625 241.229347)scale(0.1 -0.1)">
       <use xlink:href="#DejaVuSans-54"/>
       <use x="63.623047" xlink:href="#DejaVuSans-48"/>
       <use x="127.246094" xlink:href="#DejaVuSans-48"/>
       <use x="190.869141" xlink:href="#DejaVuSans-48"/>
      </g>
     </g>
    </g>
    <g id="ytick_3">
     <g id="line2d_9">
      <g>
       <use style="stroke:#000000;stroke-width:0.8;" x="59.690625" xlink:href="#mfa1c10df58" y="193.85917"/>
      </g>
     </g>
     <g id="text_10">
      <!-- 8000 -->
      <g transform="translate(27.240625 197.658388)scale(0.1 -0.1)">
       <use xlink:href="#DejaVuSans-56"/>
       <use x="63.623047" xlink:href="#DejaVuSans-48"/>
       <use x="127.246094" xlink:href="#DejaVuSans-48"/>
       <use x="190.869141" xlink:href="#DejaVuSans-48"/>
      </g>
     </g>
    </g>
    <g id="ytick_4">
     <g id="line2d_10">
      <g>
       <use style="stroke:#000000;stroke-width:0.8;" x="59.690625" xlink:href="#mfa1c10df58" y="150.28821"/>
      </g>
     </g>
     <g id="text_11">
      <!-- 10000 -->
      <g transform="translate(20.878125 154.087429)scale(0.1 -0.1)">
       <use xlink:href="#DejaVuSans-49"/>
       <use x="63.623047" xlink:href="#DejaVuSans-48"/>
       <use x="127.246094" xlink:href="#DejaVuSans-48"/>
       <use x="190.869141" xlink:href="#DejaVuSans-48"/>
       <use x="254.492188" xlink:href="#DejaVuSans-48"/>
      </g>
     </g>
    </g>
    <g id="ytick_5">
     <g id="line2d_11">
      <g>
       <use style="stroke:#000000;stroke-width:0.8;" x="59.690625" xlink:href="#mfa1c10df58" y="106.717251"/>
      </g>
     </g>
     <g id="text_12">
      <!-- 12000 -->
      <g transform="translate(20.878125 110.51647)scale(0.1 -0.1)">
       <use xlink:href="#DejaVuSans-49"/>
       <use x="63.623047" xlink:href="#DejaVuSans-50"/>
       <use x="127.246094" xlink:href="#DejaVuSans-48"/>
       <use x="190.869141" xlink:href="#DejaVuSans-48"/>
       <use x="254.492188" xlink:href="#DejaVuSans-48"/>
      </g>
     </g>
    </g>
    <g id="ytick_6">
     <g id="line2d_12">
      <g>
       <use style="stroke:#000000;stroke-width:0.8;" x="59.690625" xlink:href="#mfa1c10df58" y="63.146292"/>
      </g>
     </g>
     <g id="text_13">
      <!-- 14000 -->
      <g transform="translate(20.878125 66.945511)scale(0.1 -0.1)">
       <use xlink:href="#DejaVuSans-49"/>
       <use x="63.623047" xlink:href="#DejaVuSans-52"/>
       <use x="127.246094" xlink:href="#DejaVuSans-48"/>
       <use x="190.869141" xlink:href="#DejaVuSans-48"/>
       <use x="254.492188" xlink:href="#DejaVuSans-48"/>
      </g>
     </g>
    </g>
    <g id="text_14">
     <!-- Weekly Attendance -->
     <defs>
      <path d="M 3.328125 72.90625 
L 13.28125 72.90625 
L 28.609375 11.28125 
L 43.890625 72.90625 
L 54.984375 72.90625 
L 70.3125 11.28125 
L 85.59375 72.90625 
L 95.609375 72.90625 
L 77.296875 0 
L 64.890625 0 
L 49.515625 63.28125 
L 33.984375 0 
L 21.578125 0 
z
" id="DejaVuSans-87"/>
      <path d="M 9.078125 75.984375 
L 18.109375 75.984375 
L 18.109375 31.109375 
L 44.921875 54.6875 
L 56.390625 54.6875 
L 27.390625 29.109375 
L 57.625 0 
L 45.90625 0 
L 18.109375 26.703125 
L 18.109375 0 
L 9.078125 0 
z
" id="DejaVuSans-107"/>
      <path d="M 9.421875 75.984375 
L 18.40625 75.984375 
L 18.40625 0 
L 9.421875 0 
z
" id="DejaVuSans-108"/>
      <path d="M 32.171875 -5.078125 
Q 28.375 -14.84375 24.75 -17.8125 
Q 21.140625 -20.796875 15.09375 -20.796875 
L 7.90625 -20.796875 
L 7.90625 -13.28125 
L 13.1875 -13.28125 
Q 16.890625 -13.28125 18.9375 -11.515625 
Q 21 -9.765625 23.484375 -3.21875 
L 25.09375 0.875 
L 2.984375 54.6875 
L 12.5 54.6875 
L 29.59375 11.921875 
L 46.6875 54.6875 
L 56.203125 54.6875 
z
" id="DejaVuSans-121"/>
      <path id="DejaVuSans-32"/>
      <path d="M 34.1875 63.1875 
L 20.796875 26.90625 
L 47.609375 26.90625 
z
M 28.609375 72.90625 
L 39.796875 72.90625 
L 67.578125 0 
L 57.328125 0 
L 50.6875 18.703125 
L 17.828125 18.703125 
L 11.1875 0 
L 0.78125 0 
z
" id="DejaVuSans-65"/>
      <path d="M 54.890625 33.015625 
L 54.890625 0 
L 45.90625 0 
L 45.90625 32.71875 
Q 45.90625 40.484375 42.875 44.328125 
Q 39.84375 48.1875 33.796875 48.1875 
Q 26.515625 48.1875 22.3125 43.546875 
Q 18.109375 38.921875 18.109375 30.90625 
L 18.109375 0 
L 9.078125 0 
L 9.078125 54.6875 
L 18.109375 54.6875 
L 18.109375 46.1875 
Q 21.34375 51.125 25.703125 53.5625 
Q 30.078125 56 35.796875 56 
Q 45.21875 56 50.046875 50.171875 
Q 54.890625 44.34375 54.890625 33.015625 
z
" id="DejaVuSans-110"/>
      <path d="M 45.40625 46.390625 
L 45.40625 75.984375 
L 54.390625 75.984375 
L 54.390625 0 
L 45.40625 0 
L 45.40625 8.203125 
Q 42.578125 3.328125 38.25 0.953125 
Q 33.9375 -1.421875 27.875 -1.421875 
Q 17.96875 -1.421875 11.734375 6.484375 
Q 5.515625 14.40625 5.515625 27.296875 
Q 5.515625 40.1875 11.734375 48.09375 
Q 17.96875 56 27.875 56 
Q 33.9375 56 38.25 53.625 
Q 42.578125 51.265625 45.40625 46.390625 
z
M 14.796875 27.296875 
Q 14.796875 17.390625 18.875 11.75 
Q 22.953125 6.109375 30.078125 6.109375 
Q 37.203125 6.109375 41.296875 11.75 
Q 45.40625 17.390625 45.40625 27.296875 
Q 45.40625 37.203125 41.296875 42.84375 
Q 37.203125 48.484375 30.078125 48.484375 
Q 22.953125 48.484375 18.875 42.84375 
Q 14.796875 37.203125 14.796875 27.296875 
z
" id="DejaVuSans-100"/>
      <path d="M 48.78125 52.59375 
L 48.78125 44.1875 
Q 44.96875 46.296875 41.140625 47.34375 
Q 37.3125 48.390625 33.40625 48.390625 
Q 24.65625 48.390625 19.8125 42.84375 
Q 14.984375 37.3125 14.984375 27.296875 
Q 14.984375 17.28125 19.8125 11.734375 
Q 24.65625 6.203125 33.40625 6.203125 
Q 37.3125 6.203125 41.140625 7.25 
Q 44.96875 8.296875 48.78125 10.40625 
L 48.78125 2.09375 
Q 45.015625 0.34375 40.984375 -0.53125 
Q 36.96875 -1.421875 32.421875 -1.421875 
Q 20.0625 -1.421875 12.78125 6.34375 
Q 5.515625 14.109375 5.515625 27.296875 
Q 5.515625 40.671875 12.859375 48.328125 
Q 20.21875 56 33.015625 56 
Q 37.15625 56 41.109375 55.140625 
Q 45.0625 54.296875 48.78125 52.59375 
z
" id="DejaVuSans-99"/>
     </defs>
     <g transform="translate(14.798438 206.961875)rotate(-90)scale(0.1 -0.1)">
      <use xlink:href="#DejaVuSans-87"/>
      <use x="98.798828" xlink:href="#DejaVuSans-101"/>
      <use x="160.322266" xlink:href="#DejaVuSans-101"/>
      <use x="221.845703" xlink:href="#DejaVuSans-107"/>
      <use x="279.755859" xlink:href="#DejaVuSans-108"/>
      <use x="307.539062" xlink:href="#DejaVuSans-121"/>
      <use x="366.71875" xlink:href="#DejaVuSans-32"/>
      <use x="398.505859" xlink:href="#DejaVuSans-65"/>
      <use x="466.898438" xlink:href="#DejaVuSans-116"/>
      <use x="506.107422" xlink:href="#DejaVuSans-116"/>
      <use x="545.316406" xlink:href="#DejaVuSans-101"/>
      <use x="606.839844" xlink:href="#DejaVuSans-110"/>
      <use x="670.21875" xlink:href="#DejaVuSans-100"/>
      <use x="733.695312" xlink:href="#DejaVuSans-97"/>
      <use x="794.974609" xlink:href="#DejaVuSans-110"/>
      <use x="858.353516" xlink:href="#DejaVuSans-99"/>
      <use x="913.333984" xlink:href="#DejaVuSans-101"/>
     </g>
    </g>
   </g>
   <g id="line2d_13">
    <path clip-path="url(#p60b6a81143)" d="M 85.054261 109.505793 
L 85.500804 74.692596 
L 85.947347 142.401867 
L 86.39389 88.657089 
L 86.840433 70.270144 
L 87.733519 70.117646 
L 88.180062 74.365814 
L 88.626605 107.370816 
L 89.073147 70.117646 
L 89.51969 70.117646 
L 89.966233 107.370816 
L 90.412776 70.117646 
L 90.859319 70.117646 
L 91.305862 75.97794 
L 91.752405 78.265415 
L 92.198948 70.117646 
L 92.645491 70.117646 
L 93.092033 85.018914 
L 93.538576 70.117646 
L 100.23672 70.117646 
L 100.683263 112.032908 
L 101.129806 87.34996 
L 101.576348 94.844165 
L 102.022891 89.942432 
L 102.469434 99.745898 
L 102.915977 79.877541 
L 103.36252 88.047095 
L 103.809063 106.782608 
L 104.255606 103.340502 
L 104.702149 110.573281 
L 105.148692 105.148697 
L 105.595234 94.190601 
L 106.041777 102.599796 
L 106.48832 103.710855 
L 106.934863 98.91805 
L 107.381406 101.358023 
L 107.827949 85.890333 
L 108.721035 117.348565 
L 109.614121 90.007789 
L 121.670779 162.030584 
L 122.117322 100.791601 
L 122.563864 119.875681 
L 123.010407 85.977475 
L 123.45695 87.153891 
L 123.903493 118.633909 
L 124.350036 103.100862 
L 124.796579 94.669881 
L 125.243122 97.894132 
L 125.689665 98.634838 
L 126.136208 97.741634 
L 126.58275 73.908319 
L 127.029293 82.14323 
L 127.475836 82.883937 
L 127.922379 168.762297 
L 128.368922 140.201533 
L 128.815465 142.706864 
L 129.708551 109.963288 
L 130.155094 115.758225 
L 130.601637 97.523779 
L 131.048179 105.845832 
L 131.494722 147.761095 
L 131.941265 151.922121 
L 132.387808 144.863626 
L 132.834351 149.329649 
L 133.280894 97.436637 
L 133.727437 117.174282 
L 134.17398 125.017054 
L 134.620523 174.775089 
L 135.067065 88.177808 
L 135.513608 86.43497 
L 135.960151 138.044771 
L 136.406694 154.14424 
L 136.853237 139.744038 
L 137.29978 144.994339 
L 137.746323 169.655502 
L 138.192866 147.695738 
L 138.639409 135.49587 
L 139.085952 147.368956 
L 139.532494 125.060625 
L 139.979037 150.462494 
L 140.42558 113.993602 
L 153.375324 114.38574 
L 153.821867 102.316584 
L 154.26841 83.25429 
L 154.714953 126.128114 
L 155.161496 89.637435 
L 155.608039 91.641699 
L 156.054581 97.589135 
L 156.501124 129.199866 
L 156.947667 136.759428 
L 157.39421 167.585881 
L 157.840753 211.483623 
L 158.287296 160.94131 
L 158.733839 153.599603 
L 159.180382 198.085553 
L 159.626925 180.199674 
L 160.073468 194.795945 
L 160.52001 204.011203 
L 160.966553 182.792146 
L 161.413096 145.03791 
L 161.859639 171.63798 
L 162.306182 185.166763 
L 162.752725 158.719191 
L 163.199268 148.153233 
L 163.645811 157.76063 
L 164.092354 170.614063 
L 164.538896 221.831725 
L 164.985439 179.045043 
L 165.431982 119.113189 
L 165.878525 164.143775 
L 166.325068 190.939915 
L 166.771611 206.364035 
L 167.218154 192.312401 
L 167.664697 171.942977 
L 168.11124 221.940653 
L 168.557782 188.913866 
L 169.004325 183.489281 
L 169.450868 179.872892 
L 169.897411 157.52099 
L 170.343954 200.242315 
L 170.790497 185.406403 
L 171.23704 194.948444 
L 171.683583 214.250378 
L 172.130126 210.982556 
L 172.576669 179.458968 
L 173.469754 195.035585 
L 173.916297 206.756173 
L 174.36284 195.798077 
L 174.809383 232.02733 
L 175.255926 221.047448 
L 175.702469 224.424197 
L 176.149012 281.76358 
L 176.595555 272.439394 
L 177.042097 186.561034 
L 177.48864 160.113462 
L 177.935183 149.264293 
L 178.381726 134.646236 
L 178.828269 128.21952 
L 179.274812 144.667557 
L 180.167898 123.121717 
L 180.614441 116.65143 
L 181.060984 150.375352 
L 181.954069 119.505328 
L 182.400612 179.872892 
L 182.847155 152.880683 
L 183.293698 153.338178 
L 183.740241 144.928982 
L 184.186784 160.048105 
L 184.633327 162.313795 
L 185.07987 109.418651 
L 185.526412 147.565025 
L 185.972955 147.172887 
L 186.419498 110.769351 
L 186.866041 99.63697 
L 187.312584 94.321313 
L 187.759127 108.111522 
L 188.20567 87.458887 
L 188.652213 133.034111 
L 189.098756 129.330579 
L 189.545298 119.113189 
L 189.991841 165.298406 
L 190.438384 122.206727 
L 190.884927 122.642437 
L 191.33147 133.600533 
L 199.369242 87.11032 
L 199.815785 73.95189 
L 200.262328 107.806525 
L 200.708871 89.877076 
L 201.155414 93.340967 
L 201.601957 89.419581 
L 202.0485 80.55289 
L 202.495042 100.225178 
L 202.941585 93.144898 
L 203.388128 114.865021 
L 203.834671 115.322516 
L 204.281214 127.979879 
L 204.727757 152.771755 
L 205.1743 104.495132 
L 205.620843 123.600998 
L 206.067386 116.302862 
L 206.513928 154.754234 
L 206.960471 141.094738 
L 207.407014 147.695738 
L 207.853557 141.160095 
L 208.3001 129.700932 
L 208.746643 123.034576 
L 209.193186 168.479086 
L 209.639729 156.279217 
L 210.086272 127.260959 
L 210.532815 144.623986 
L 210.979357 145.778616 
L 211.872443 165.886614 
L 212.318986 108.220449 
L 212.765529 95.693799 
L 213.212072 181.049308 
L 213.658615 189.197077 
L 214.105158 177.127921 
L 214.551701 189.545645 
L 214.998243 185.014265 
L 215.444786 163.490211 
L 215.891329 174.709733 
L 216.337872 157.455633 
L 216.784415 163.904135 
L 217.230958 174.557235 
L 217.677501 151.726052 
L 218.124044 121.923516 
L 218.570587 123.361358 
L 219.017129 149.917857 
L 219.463672 145.691474 
L 219.910215 112.621116 
L 220.356758 129.287008 
L 220.803301 129.679147 
L 221.249844 198.150909 
L 221.696387 173.097608 
L 222.14293 178.391479 
L 222.589473 213.204675 
L 223.036016 163.68628 
L 223.482558 163.991277 
L 223.929101 159.242043 
L 224.375644 184.709268 
L 224.822187 179.284684 
L 225.26873 149.177151 
L 225.715273 177.345776 
L 226.161816 159.655967 
L 226.608359 173.772957 
L 227.054902 148.501801 
L 227.501444 168.827654 
L 227.947987 199.34911 
L 228.39453 88.047095 
L 234.199588 176.997208 
L 234.646131 199.283754 
L 235.092674 132.968754 
L 235.539217 122.402797 
L 235.985759 135.365157 
L 236.432302 204.207272 
L 236.878845 192.944179 
L 270.369562 191.702407 
L 270.816105 92.382406 
L 271.262648 103.493 
L 271.709191 103.035505 
L 272.155734 103.405858 
L 272.602277 113.688605 
L 273.04882 133.90553 
L 273.495363 104.516918 
L 273.941905 112.141836 
L 274.388448 222.833857 
L 274.834991 116.172149 
L 275.281534 191.942047 
L 275.728077 195.493081 
L 276.17462 199.937318 
L 276.621163 136.389074 
L 299.841393 240.89402 
L 300.287936 142.859362 
L 300.734479 140.855098 
L 301.181022 138.131913 
L 301.627565 81.162884 
L 302.074108 84.060353 
L 302.520651 100.595532 
L 302.967194 91.68527 
L 303.413736 88.308521 
L 303.860279 100.726244 
L 304.306822 140.964025 
L 304.753365 86.217115 
L 305.199908 116.738572 
L 305.646451 129.483077 
L 306.092994 159.982749 
L 306.539537 149.765359 
L 306.98608 120.638173 
L 307.432622 108.089737 
L 307.879165 122.860292 
L 308.325708 148.785012 
L 308.772251 188.151374 
L 309.665337 131.770553 
L 310.11188 192.726325 
L 310.558423 206.952243 
L 311.004966 170.897274 
L 311.451508 167.433383 
L 311.898051 173.598674 
L 312.344594 177.236849 
L 312.791137 175.25437 
L 313.684223 203.009071 
L 314.130766 219.10854 
L 314.577309 231.177696 
L 315.023852 181.724657 
L 315.470395 203.510137 
L 315.916937 197.628058 
L 316.36348 148.763227 
L 317.256566 145.059695 
L 317.703109 211.83219 
L 318.149652 214.359306 
L 318.596195 187.715664 
L 319.042738 208.455441 
L 319.489281 124.276348 
L 319.935823 190.024925 
L 320.382366 163.44664 
L 320.828909 196.146645 
L 321.275452 179.633251 
L 321.721995 56.414579 
L 322.168538 96.783073 
L 322.615081 116.172149 
L 323.508167 161.072023 
L 323.95471 170.134782 
L 324.401252 141.399735 
L 325.294338 106.499397 
L 325.740881 171.83405 
L 326.187424 157.717059 
L 326.633967 112.272549 
L 327.08051 84.866415 
L 327.527053 100.486604 
L 327.973596 165.581617 
L 328.420138 180.134317 
L 328.866681 186.190681 
L 329.313224 150.593207 
L 329.759767 206.538319 
L 330.20631 196.821995 
L 330.652853 193.85917 
L 331.099396 188.543513 
L 331.545939 216.407141 
L 331.992482 220.655309 
L 332.439024 204.12013 
L 332.885567 166.605535 
L 333.33211 182.857502 
L 333.778653 203.836919 
L 334.225196 193.009536 
L 334.671739 196.84378 
L 335.118282 178.87076 
L 335.564825 189.632787 
L 336.011368 194.294879 
L 336.457911 194.512734 
L 336.904453 216.929992 
L 337.350996 221.701012 
L 337.797539 262.592358 
L 338.244082 240.131528 
L 338.690625 141.269022 
L 339.137168 184.251773 
L 339.583711 154.471023 
L 340.030254 178.369694 
L 340.476797 139.330114 
L 340.923339 182.944644 
L 341.369882 213.161104 
L 341.816425 164.034848 
L 342.262968 203.510137 
L 342.709511 147.412527 
L 343.156054 202.573361 
L 343.602597 182.574291 
L 344.495683 233.726597 
L 344.942226 68.614448 
L 345.388768 155.778151 
L 355.659255 89.572079 
L 356.105798 89.61565 
L 356.552341 89.506722 
L 356.998884 94.82238 
L 357.445427 89.61565 
L 359.231598 89.506722 
L 359.678141 92.665617 
L 360.571227 106.085472 
L 361.01777 174.165096 
L 361.464313 152.793541 
L 361.910855 158.043841 
L 363.250484 99.419116 
L 364.14357 123.579213 
L 364.590113 114.058958 
L 365.036656 115.366087 
L 365.483199 133.622319 
L 365.929742 91.423845 
L 366.376284 124.472417 
L 366.822827 100.290535 
L 367.26937 114.581809 
L 368.162456 89.572079 
L 368.608999 93.210254 
L 369.502085 139.569755 
L 369.948628 129.570219 
L 370.39517 144.6022 
L 370.841713 136.345504 
L 371.288256 104.669416 
L 371.734799 104.734773 
L 372.181342 139.852966 
L 373.074428 91.750627 
L 373.520971 91.707056 
L 373.967514 79.812184 
L 374.414056 79.703257 
L 374.860599 79.899326 
L 375.307142 87.023178 
L 375.753685 86.173544 
L 376.200228 92.513119 
L 376.646771 95.650228 
L 377.093314 83.668214 
L 377.539857 80.966815 
L 377.9864 84.84463 
L 378.432943 79.855755 
L 379.772571 79.768613 
L 380.219114 84.953557 
L 380.665657 79.855755 
L 382.898371 79.768613 
L 383.344914 81.467881 
L 383.791457 83.842498 
L 384.238 136.41086 
L 385.131086 103.950495 
L 385.577629 110.638638 
L 386.024172 91.075277 
L 386.470715 93.602393 
L 386.917258 84.866415 
L 387.3638 85.846762 
L 387.810343 100.639103 
L 388.256886 232.659109 
L 389.596515 161.202736 
L 390.043058 97.719848 
L 390.489601 115.082875 
L 390.936144 91.598129 
L 391.382686 79.790399 
L 391.829229 85.476409 
L 392.275772 103.318717 
L 392.722315 108.808657 
L 393.615401 135.386942 
L 394.508487 85.389267 
L 394.95503 109.832575 
L 395.401573 115.801796 
L 395.848115 111.030776 
L 396.294658 86.086402 
L 396.741201 79.812184 
L 397.187744 80.07361 
L 398.08083 84.866415 
L 398.527373 81.576808 
L 398.973916 85.99926 
L 399.420459 82.121445 
L 399.867001 86.609254 
L 400.313544 82.491798 
L 400.760087 79.83397 
L 401.20663 84.561419 
L 401.653173 79.659686 
L 402.099716 82.012518 
L 402.546259 79.83397 
L 403.439345 79.725042 
L 403.885887 79.83397 
L 405.225516 79.768613 
L 405.672059 79.877541 
L 406.118602 79.790399 
L 406.565145 79.877541 
L 407.011688 79.812184 
L 407.458231 125.474549 
L 407.904774 96.521647 
L 408.351316 100.922314 
L 408.797859 91.293132 
L 409.244402 92.513119 
L 409.690945 82.317514 
L 410.137488 93.95096 
L 411.030574 121.226381 
L 411.477117 122.206727 
L 411.92366 146.62825 
L 412.370202 125.975615 
L 412.816745 83.450359 
L 413.263288 130.48521 
L 413.709831 128.982011 
L 414.156374 123.818853 
L 414.602917 83.820712 
L 415.04946 79.812184 
L 415.496003 98.00306 
L 415.942546 105.606192 
L 416.389089 124.908127 
L 416.835631 127.653097 
L 417.282174 124.058493 
L 417.728717 114.472882 
L 418.17526 86.718181 
L 418.621803 120.246034 
L 419.068346 145.059695 
L 419.514889 123.121717 
L 419.961432 95.018449 
L 420.407975 95.170947 
L 420.854517 111.836839 
L 421.30106 79.855755 
L 421.747603 80.596461 
L 422.194146 89.550293 
L 422.640689 87.175676 
L 423.087232 95.170947 
L 423.533775 92.382406 
L 423.980318 84.801059 
L 424.873403 92.142766 
L 425.319946 79.83397 
L 425.766489 79.746828 
L 426.659575 104.255492 
L 427.106118 83.101792 
L 427.552661 79.921111 
L 427.999204 79.746828 
L 428.445747 81.22824 
L 428.89229 79.83397 
L 429.338832 79.83397 
L 429.785375 81.358953 
L 430.231918 94.887736 
L 430.678461 114.865021 
L 431.125004 121.008526 
L 431.571547 120.463889 
L 432.01809 105.75869 
L 432.464633 118.742836 
L 432.911176 79.746828 
L 433.804261 91.053492 
L 434.250804 113.884674 
L 434.697347 102.708723 
L 435.14389 117.544635 
L 435.590433 114.668951 
L 436.036976 79.725042 
L 436.483519 93.95096 
L 436.930062 86.042831 
L 437.376605 91.053492 
L 437.823147 79.812184 
L 438.26969 79.855755 
L 438.716233 85.08427 
L 439.162776 99.5934 
L 439.609319 134.907662 
L 440.055862 152.815326 
L 440.502405 127.130246 
L 440.948948 115.605727 
L 441.395491 80.792531 
L 441.842033 135.931579 
L 442.288576 123.644569 
L 442.735119 107.240103 
L 443.181662 80.400392 
L 443.628205 78.592197 
L 444.074748 75.760085 
L 444.521291 75.847227 
L 444.967834 82.404656 
L 445.414377 76.522577 
L 445.860919 88.591732 
L 446.307462 78.04756 
L 446.754005 75.890798 
L 447.647091 75.716514 
L 448.093634 76.435435 
L 448.540177 75.825441 
L 448.98672 75.825441 
L 449.433263 75.672943 
L 449.879806 75.760085 
L 450.772891 75.629372 
L 451.219434 75.825441 
L 453.005606 75.672943 
L 453.898692 94.038102 
L 454.345234 124.385275 
L 454.791777 130.158427 
L 455.23832 120.812457 
L 455.684863 116.150364 
L 456.131406 81.751092 
L 456.577949 95.323446 
L 457.024492 95.563086 
L 457.471035 110.52971 
L 458.364121 97.066284 
L 458.810663 111.422915 
L 459.257206 77.873276 
L 459.703749 88.613518 
L 460.150292 82.273943 
L 460.596835 91.619914 
L 461.043378 81.990732 
L 461.489921 75.738299 
L 461.936464 89.441366 
L 462.383007 123.840638 
L 462.829549 167.084815 
L 463.276092 122.228513 
L 464.615721 92.861686 
L 465.062264 93.907389 
L 465.508807 114.865021 
L 465.95535 87.807455 
L 466.401893 75.760085 
L 466.848435 78.810052 
L 467.294978 76.566148 
L 467.741521 75.956154 
L 468.188064 76.174009 
L 468.634607 75.738299 
L 469.08115 84.125709 
L 469.527693 75.760085 
L 469.974236 85.628907 
L 470.420779 75.738299 
L 470.867322 75.803656 
L 471.313864 77.13257 
L 471.760407 75.956154 
L 472.20695 76.043296 
L 472.653493 75.803656 
L 474.439665 75.825441 
L 475.33275 75.651157 
L 475.779293 75.803656 
L 476.225836 76.261151 
L 476.672379 187.759235 
L 477.118922 75.738299 
L 477.565465 99.201261 
L 478.012008 77.590065 
L 478.458551 75.738299 
L 479.351637 75.78187 
L 480.244722 75.803656 
L 480.691265 75.999725 
L 481.137808 75.716514 
L 481.584351 75.716514 
L 482.030894 80.661818 
L 482.477437 75.738299 
L 482.92398 87.872812 
L 483.370523 75.825441 
L 483.817065 78.853623 
L 484.263608 77.415781 
L 484.710151 39.269407 
L 485.156694 83.668214 
L 485.603237 75.803656 
L 486.04978 76.021511 
L 486.942866 112.7954 
L 487.389409 100.878743 
L 487.835952 75.760085 
L 488.282494 75.760085 
L 489.17558 93.166683 
L 489.622123 79.659686 
L 490.068666 75.847227 
L 490.961752 75.803656 
L 491.408295 75.803656 
L 491.854838 77.437567 
L 492.30138 78.417913 
L 492.747923 76.784002 
L 493.194466 76.784002 
L 493.641009 75.760085 
L 494.534095 75.78187 
L 494.980638 75.716514 
L 495.873724 75.847227 
L 496.320266 75.847227 
L 496.766809 76.980072 
L 497.213352 75.825441 
L 497.659895 39.182265 
L 498.106438 75.847227 
L 498.552981 75.803656 
L 498.999524 43.081866 
L 499.446067 75.825441 
L 500.339153 75.78187 
L 500.785695 77.285068 
L 501.232238 79.921111 
L 501.678781 80.095395 
L 502.125324 75.869012 
L 502.571867 75.803656 
L 503.01841 78.069346 
L 503.464953 78.330771 
L 503.911496 121.291737 
L 504.358039 175.080086 
L 504.804581 101.379809 
L 505.251124 119.505328 
L 505.697667 75.847227 
L 506.14421 93.493465 
L 506.590753 81.358953 
L 507.037296 84.103924 
L 507.483839 75.760085 
L 507.930382 39.247621 
L 508.376925 75.760085 
L 508.823468 81.032171 
L 509.27001 82.056088 
L 509.716553 79.027907 
L 510.163096 89.288868 
L 510.609639 105.802261 
L 511.502725 51.403919 
L 511.949268 92.883472 
L 512.395811 82.905722 
L 512.842354 82.012518 
L 513.288896 74.757953 
L 513.735439 34.803383 
L 514.181982 71.860484 
L 514.628525 72.949758 
L 515.075068 77.154356 
L 515.521611 72.622976 
L 515.968154 79.136834 
L 516.414697 72.12191 
L 516.86124 75.171877 
L 517.307782 71.838699 
L 517.754325 73.102256 
L 518.200868 73.755821 
L 518.647411 72.12191 
L 519.093954 71.816913 
L 519.98704 71.795128 
L 520.433583 73.559751 
L 520.880126 37.308713 
L 521.326669 71.751557 
L 522.219754 71.751557 
L 522.666297 73.799392 
L 523.11284 71.795128 
L 523.559383 73.886534 
L 524.005926 73.603322 
L 524.452469 76.043296 
L 524.899012 74.736167 
L 525.345555 72.165481 
L 525.792097 78.679339 
L 526.23864 71.795128 
L 526.685183 74.954022 
L 527.131726 72.448692 
L 527.578269 85.193198 
L 528.024812 76.261151 
L 528.471355 105.322981 
L 528.917898 86.108188 
L 529.364441 75.084735 
L 529.810984 93.101327 
L 530.257526 89.092798 
L 530.704069 76.239365 
L 531.150612 34.67267 
L 531.597155 71.795128 
L 532.043698 79.921111 
L 532.490241 78.570412 
L 532.936784 75.694728 
L 533.383327 105.344766 
L 533.82987 78.112917 
L 534.276412 78.308986 
L 534.722955 72.187266 
L 535.616041 78.134702 
L 536.062584 71.904055 
L 536.509127 72.405121 
L 536.95567 71.795128 
L 537.402213 77.045428 
L 537.848756 71.816913 
L 538.295298 34.738027 
L 538.741841 71.816913 
L 539.188384 71.816913 
L 539.634927 108.808657 
L 540.08147 73.385468 
L 540.528013 71.773342 
L 540.974556 72.470477 
L 541.421099 74.104388 
L 541.867642 71.947626 
L 542.314185 71.816913 
L 543.20727 71.838699 
L 543.653813 76.566148 
L 544.100356 37.984063 
L 544.546899 71.773342 
L 544.993442 34.694456 
L 545.439985 71.838699 
L 545.886528 75.128306 
L 546.333071 71.6862 
L 546.779613 71.795128 
L 547.226156 76.304722 
L 547.672699 74.518313 
L 548.119242 73.690464 
L 548.565785 75.215448 
L 549.012328 74.997593 
L 549.458871 71.773342 
L 549.905414 75.912583 
L 550.351957 74.126174 
L 550.7985 76.326507 
L 551.245042 73.995461 
L 551.691585 77.982204 
L 552.138128 73.973676 
L 552.584671 71.816913 
L 553.031214 98.874479 
L 553.9243 86.936036 
L 554.370843 34.694456 
L 554.817386 71.751557 
L 555.263928 77.590065 
L 556.157014 83.711785 
L 556.603557 110.05043 
L 557.0501 81.010385 
L 557.496643 75.193662 
L 557.943186 72.535834 
L 558.389729 84.147495 
L 558.836272 83.820712 
L 559.282815 72.143695 
L 559.729357 74.060817 
L 560.1759 74.169745 
L 560.622443 34.934096 
L 561.068986 75.433303 
L 561.515529 80.857887 
L 561.962072 72.79726 
L 562.408615 86.304257 
L 562.855158 118.045701 
L 563.301701 73.864748 
L 563.748243 71.838699 
L 564.641329 72.79726 
L 565.087872 74.039032 
L 565.534415 71.860484 
L 566.427501 71.795128 
L 566.874044 72.819045 
L 567.320587 39.182265 
L 567.767129 72.514048 
L 568.213672 38.376202 
L 568.660215 72.535834 
L 569.106758 82.14323 
L 569.553301 72.383336 
L 569.999844 89.768148 
L 570.446387 72.426907 
L 570.89293 72.666547 
L 571.339473 72.514048 
L 573.572187 72.535834 
L 574.01873 81.402524 
L 574.465273 73.298326 
L 574.911816 72.470477 
L 575.358359 79.376474 
L 575.804902 73.777606 
L 576.251444 81.90359 
L 576.697987 76.435435 
L 577.14453 81.184669 
L 577.591073 72.514048 
L 578.037616 37.047288 
L 578.484159 74.235101 
L 578.930702 78.178273 
L 579.377245 177.52006 
L 579.823788 85.389267 
L 580.270331 80.618247 
L 580.716873 72.79726 
L 581.163416 73.646893 
L 581.609959 73.254755 
L 582.056502 78.635768 
L 582.949588 72.862616 
L 583.396131 36.21944 
L 583.842674 72.60119 
L 584.289217 75.084735 
L 584.735759 76.174009 
L 585.628845 72.579405 
L 586.075388 74.278672 
L 586.521931 120.137107 
L 586.968474 72.731903 
L 587.86156 73.080471 
L 588.308103 72.470477 
L 589.647731 72.448692 
L 590.094274 80.901458 
L 590.540817 41.774737 
L 590.98736 75.06295 
L 591.433903 37.787994 
L 591.880446 72.775474 
L 592.326989 74.365814 
L 592.326989 74.365814 
" style="fill:none;stroke:#1f77b4;stroke-linecap:square;"/>
   </g>
   <g id="patch_3">
    <path d="M 59.690625 294.118125 
L 59.690625 22.318125 
" style="fill:none;stroke:#000000;stroke-linecap:square;stroke-linejoin:miter;stroke-width:0.8;"/>
   </g>
   <g id="patch_4">
    <path d="M 617.690625 294.118125 
L 617.690625 22.318125 
" style="fill:none;stroke:#000000;stroke-linecap:square;stroke-linejoin:miter;stroke-width:0.8;"/>
   </g>
   <g id="patch_5">
    <path d="M 59.690625 294.118125 
L 617.690625 294.118125 
" style="fill:none;stroke:#000000;stroke-linecap:square;stroke-linejoin:miter;stroke-width:0.8;"/>
   </g>
   <g id="patch_6">
    <path d="M 59.690625 22.318125 
L 617.690625 22.318125 
" style="fill:none;stroke:#000000;stroke-linecap:square;stroke-linejoin:miter;stroke-width:0.8;"/>
   </g>
   <g id="text_15">
    <!-- Weekly Attendance, Minskoff Theatre -->
    <defs>
     <path d="M 11.71875 12.40625 
L 22.015625 12.40625 
L 22.015625 4 
L 14.015625 -11.625 
L 7.71875 -11.625 
L 11.71875 4 
z
" id="DejaVuSans-44"/>
     <path d="M 9.8125 72.90625 
L 24.515625 72.90625 
L 43.109375 23.296875 
L 61.8125 72.90625 
L 76.515625 72.90625 
L 76.515625 0 
L 66.890625 0 
L 66.890625 64.015625 
L 48.09375 14.015625 
L 38.1875 14.015625 
L 19.390625 64.015625 
L 19.390625 0 
L 9.8125 0 
z
" id="DejaVuSans-77"/>
     <path d="M 9.421875 54.6875 
L 18.40625 54.6875 
L 18.40625 0 
L 9.421875 0 
z
M 9.421875 75.984375 
L 18.40625 75.984375 
L 18.40625 64.59375 
L 9.421875 64.59375 
z
" id="DejaVuSans-105"/>
     <path d="M 44.28125 53.078125 
L 44.28125 44.578125 
Q 40.484375 46.53125 36.375 47.5 
Q 32.28125 48.484375 27.875 48.484375 
Q 21.1875 48.484375 17.84375 46.4375 
Q 14.5 44.390625 14.5 40.28125 
Q 14.5 37.15625 16.890625 35.375 
Q 19.28125 33.59375 26.515625 31.984375 
L 29.59375 31.296875 
Q 39.15625 29.25 43.1875 25.515625 
Q 47.21875 21.78125 47.21875 15.09375 
Q 47.21875 7.46875 41.1875 3.015625 
Q 35.15625 -1.421875 24.609375 -1.421875 
Q 20.21875 -1.421875 15.453125 -0.5625 
Q 10.6875 0.296875 5.421875 2 
L 5.421875 11.28125 
Q 10.40625 8.6875 15.234375 7.390625 
Q 20.0625 6.109375 24.8125 6.109375 
Q 31.15625 6.109375 34.5625 8.28125 
Q 37.984375 10.453125 37.984375 14.40625 
Q 37.984375 18.0625 35.515625 20.015625 
Q 33.0625 21.96875 24.703125 23.78125 
L 21.578125 24.515625 
Q 13.234375 26.265625 9.515625 29.90625 
Q 5.8125 33.546875 5.8125 39.890625 
Q 5.8125 47.609375 11.28125 51.796875 
Q 16.75 56 26.8125 56 
Q 31.78125 56 36.171875 55.265625 
Q 40.578125 54.546875 44.28125 53.078125 
z
" id="DejaVuSans-115"/>
     <path d="M 30.609375 48.390625 
Q 23.390625 48.390625 19.1875 42.75 
Q 14.984375 37.109375 14.984375 27.296875 
Q 14.984375 17.484375 19.15625 11.84375 
Q 23.34375 6.203125 30.609375 6.203125 
Q 37.796875 6.203125 41.984375 11.859375 
Q 46.1875 17.53125 46.1875 27.296875 
Q 46.1875 37.015625 41.984375 42.703125 
Q 37.796875 48.390625 30.609375 48.390625 
z
M 30.609375 56 
Q 42.328125 56 49.015625 48.375 
Q 55.71875 40.765625 55.71875 27.296875 
Q 55.71875 13.875 49.015625 6.21875 
Q 42.328125 -1.421875 30.609375 -1.421875 
Q 18.84375 -1.421875 12.171875 6.21875 
Q 5.515625 13.875 5.515625 27.296875 
Q 5.515625 40.765625 12.171875 48.375 
Q 18.84375 56 30.609375 56 
z
" id="DejaVuSans-111"/>
     <path d="M 37.109375 75.984375 
L 37.109375 68.5 
L 28.515625 68.5 
Q 23.6875 68.5 21.796875 66.546875 
Q 19.921875 64.59375 19.921875 59.515625 
L 19.921875 54.6875 
L 34.71875 54.6875 
L 34.71875 47.703125 
L 19.921875 47.703125 
L 19.921875 0 
L 10.890625 0 
L 10.890625 47.703125 
L 2.296875 47.703125 
L 2.296875 54.6875 
L 10.890625 54.6875 
L 10.890625 58.5 
Q 10.890625 67.625 15.140625 71.796875 
Q 19.390625 75.984375 28.609375 75.984375 
z
" id="DejaVuSans-102"/>
     <path d="M -0.296875 72.90625 
L 61.375 72.90625 
L 61.375 64.59375 
L 35.5 64.59375 
L 35.5 0 
L 25.59375 0 
L 25.59375 64.59375 
L -0.296875 64.59375 
z
" id="DejaVuSans-84"/>
     <path d="M 54.890625 33.015625 
L 54.890625 0 
L 45.90625 0 
L 45.90625 32.71875 
Q 45.90625 40.484375 42.875 44.328125 
Q 39.84375 48.1875 33.796875 48.1875 
Q 26.515625 48.1875 22.3125 43.546875 
Q 18.109375 38.921875 18.109375 30.90625 
L 18.109375 0 
L 9.078125 0 
L 9.078125 75.984375 
L 18.109375 75.984375 
L 18.109375 46.1875 
Q 21.34375 51.125 25.703125 53.5625 
Q 30.078125 56 35.796875 56 
Q 45.21875 56 50.046875 50.171875 
Q 54.890625 44.34375 54.890625 33.015625 
z
" id="DejaVuSans-104"/>
     <path d="M 41.109375 46.296875 
Q 39.59375 47.171875 37.8125 47.578125 
Q 36.03125 48 33.890625 48 
Q 26.265625 48 22.1875 43.046875 
Q 18.109375 38.09375 18.109375 28.8125 
L 18.109375 0 
L 9.078125 0 
L 9.078125 54.6875 
L 18.109375 54.6875 
L 18.109375 46.1875 
Q 20.953125 51.171875 25.484375 53.578125 
Q 30.03125 56 36.53125 56 
Q 37.453125 56 38.578125 55.875 
Q 39.703125 55.765625 41.0625 55.515625 
z
" id="DejaVuSans-114"/>
    </defs>
    <g transform="translate(225.99375 16.318125)scale(0.12 -0.12)">
     <use xlink:href="#DejaVuSans-87"/>
     <use x="98.798828" xlink:href="#DejaVuSans-101"/>
     <use x="160.322266" xlink:href="#DejaVuSans-101"/>
     <use x="221.845703" xlink:href="#DejaVuSans-107"/>
     <use x="279.755859" xlink:href="#DejaVuSans-108"/>
     <use x="307.539062" xlink:href="#DejaVuSans-121"/>
     <use x="366.71875" xlink:href="#DejaVuSans-32"/>
     <use x="398.505859" xlink:href="#DejaVuSans-65"/>
     <use x="466.898438" xlink:href="#DejaVuSans-116"/>
     <use x="506.107422" xlink:href="#DejaVuSans-116"/>
     <use x="545.316406" xlink:href="#DejaVuSans-101"/>
     <use x="606.839844" xlink:href="#DejaVuSans-110"/>
     <use x="670.21875" xlink:href="#DejaVuSans-100"/>
     <use x="733.695312" xlink:href="#DejaVuSans-97"/>
     <use x="794.974609" xlink:href="#DejaVuSans-110"/>
     <use x="858.353516" xlink:href="#DejaVuSans-99"/>
     <use x="913.333984" xlink:href="#DejaVuSans-101"/>
     <use x="974.857422" xlink:href="#DejaVuSans-44"/>
     <use x="1006.644531" xlink:href="#DejaVuSans-32"/>
     <use x="1038.431641" xlink:href="#DejaVuSans-77"/>
     <use x="1124.710938" xlink:href="#DejaVuSans-105"/>
     <use x="1152.494141" xlink:href="#DejaVuSans-110"/>
     <use x="1215.873047" xlink:href="#DejaVuSans-115"/>
     <use x="1267.972656" xlink:href="#DejaVuSans-107"/>
     <use x="1325.835938" xlink:href="#DejaVuSans-111"/>
     <use x="1387.017578" xlink:href="#DejaVuSans-102"/>
     <use x="1422.222656" xlink:href="#DejaVuSans-102"/>
     <use x="1457.427734" xlink:href="#DejaVuSans-32"/>
     <use x="1489.214844" xlink:href="#DejaVuSans-84"/>
     <use x="1550.298828" xlink:href="#DejaVuSans-104"/>
     <use x="1613.677734" xlink:href="#DejaVuSans-101"/>
     <use x="1675.201172" xlink:href="#DejaVuSans-97"/>
     <use x="1736.480469" xlink:href="#DejaVuSans-116"/>
     <use x="1775.689453" xlink:href="#DejaVuSans-114"/>
     <use x="1816.771484" xlink:href="#DejaVuSans-101"/>
    </g>
   </g>
  </g>
 </g>
 <defs>
  <clipPath id="p60b6a81143">
   <rect height="271.8" width="558" x="59.690625" y="22.318125"/>
  </clipPath>
 </defs>
</svg>
