<?xml version="1.0" encoding="utf-8" standalone="no"?>
<!DOCTYPE svg PUBLIC "-//W3C//DTD SVG 1.1//EN"
  "http://www.w3.org/Graphics/SVG/1.1/DTD/svg11.dtd">
<!-- Created with matplotlib (https://matplotlib.org/) -->
<svg height="331.674375pt" version="1.1" viewBox="0 0 628.390625 331.674375" width="628.390625pt" xmlns="http://www.w3.org/2000/svg" xmlns:xlink="http://www.w3.org/1999/xlink">
 <defs>
  <style type="text/css">
*{stroke-linecap:butt;stroke-linejoin:round;}
  </style>
 </defs>
 <g id="figure_1">
  <g id="patch_1">
   <path d="M -0 331.674375 
L 628.390625 331.674375 
L 628.390625 0 
L -0 0 
z
" style="fill:none;"/>
  </g>
  <g id="axes_1">
   <g id="patch_2">
    <path d="M 59.690625 294.118125 
L 617.690625 294.118125 
L 617.690625 22.318125 
L 59.690625 22.318125 
z
" style="fill:#ffffff;"/>
   </g>
   <g id="matplotlib.axis_1">
    <g id="xtick_1">
     <g id="line2d_1">
      <defs>
       <path d="M 0 0 
L 0 3.5 
" id="m0495bb7a7d" style="stroke:#000000;stroke-width:0.8;"/>
      </defs>
      <g>
       <use style="stroke:#000000;stroke-width:0.8;" x="77.950941" xlink:href="#m0495bb7a7d" y="294.118125"/>
      </g>
     </g>
     <g id="text_1">
      <!-- 1996 -->
      <defs>
       <path d="M 12.40625 8.296875 
L 28.515625 8.296875 
L 28.515625 63.921875 
L 10.984375 60.40625 
L 10.984375 69.390625 
L 28.421875 72.90625 
L 38.28125 72.90625 
L 38.28125 8.296875 
L 54.390625 8.296875 
L 54.390625 0 
L 12.40625 0 
z
" id="DejaVuSans-49"/>
       <path d="M 10.984375 1.515625 
L 10.984375 10.5 
Q 14.703125 8.734375 18.5 7.8125 
Q 22.3125 6.890625 25.984375 6.890625 
Q 35.75 6.890625 40.890625 13.453125 
Q 46.046875 20.015625 46.78125 33.40625 
Q 43.953125 29.203125 39.59375 26.953125 
Q 35.25 24.703125 29.984375 24.703125 
Q 19.046875 24.703125 12.671875 31.3125 
Q 6.296875 37.9375 6.296875 49.421875 
Q 6.296875 60.640625 12.9375 67.421875 
Q 19.578125 74.21875 30.609375 74.21875 
Q 43.265625 74.21875 49.921875 64.515625 
Q 56.59375 54.828125 56.59375 36.375 
Q 56.59375 19.140625 48.40625 8.859375 
Q 40.234375 -1.421875 26.421875 -1.421875 
Q 22.703125 -1.421875 18.890625 -0.6875 
Q 15.09375 0.046875 10.984375 1.515625 
z
M 30.609375 32.421875 
Q 37.25 32.421875 41.125 36.953125 
Q 45.015625 41.5 45.015625 49.421875 
Q 45.015625 57.28125 41.125 61.84375 
Q 37.25 66.40625 30.609375 66.40625 
Q 23.96875 66.40625 20.09375 61.84375 
Q 16.21875 57.28125 16.21875 49.421875 
Q 16.21875 41.5 20.09375 36.953125 
Q 23.96875 32.421875 30.609375 32.421875 
z
" id="DejaVuSans-57"/>
       <path d="M 33.015625 40.375 
Q 26.375 40.375 22.484375 35.828125 
Q 18.609375 31.296875 18.609375 23.390625 
Q 18.609375 15.53125 22.484375 10.953125 
Q 26.375 6.390625 33.015625 6.390625 
Q 39.65625 6.390625 43.53125 10.953125 
Q 47.40625 15.53125 47.40625 23.390625 
Q 47.40625 31.296875 43.53125 35.828125 
Q 39.65625 40.375 33.015625 40.375 
z
M 52.59375 71.296875 
L 52.59375 62.3125 
Q 48.875 64.0625 45.09375 64.984375 
Q 41.3125 65.921875 37.59375 65.921875 
Q 27.828125 65.921875 22.671875 59.328125 
Q 17.53125 52.734375 16.796875 39.40625 
Q 19.671875 43.65625 24.015625 45.921875 
Q 28.375 48.1875 33.59375 48.1875 
Q 44.578125 48.1875 50.953125 41.515625 
Q 57.328125 34.859375 57.328125 23.390625 
Q 57.328125 12.15625 50.6875 5.359375 
Q 44.046875 -1.421875 33.015625 -1.421875 
Q 20.359375 -1.421875 13.671875 8.265625 
Q 6.984375 17.96875 6.984375 36.375 
Q 6.984375 53.65625 15.1875 63.9375 
Q 23.390625 74.21875 37.203125 74.21875 
Q 40.921875 74.21875 44.703125 73.484375 
Q 48.484375 72.75 52.59375 71.296875 
z
" id="DejaVuSans-54"/>
      </defs>
      <g transform="translate(65.225941 308.716563)scale(0.1 -0.1)">
       <use xlink:href="#DejaVuSans-49"/>
       <use x="63.623047" xlink:href="#DejaVuSans-57"/>
       <use x="127.246094" xlink:href="#DejaVuSans-57"/>
       <use x="190.869141" xlink:href="#DejaVuSans-54"/>
      </g>
     </g>
    </g>
    <g id="xtick_2">
     <g id="line2d_2">
      <g>
       <use style="stroke:#000000;stroke-width:0.8;" x="177.738938" xlink:href="#m0495bb7a7d" y="294.118125"/>
      </g>
     </g>
     <g id="text_2">
      <!-- 2000 -->
      <defs>
       <path d="M 19.1875 8.296875 
L 53.609375 8.296875 
L 53.609375 0 
L 7.328125 0 
L 7.328125 8.296875 
Q 12.9375 14.109375 22.625 23.890625 
Q 32.328125 33.6875 34.8125 36.53125 
Q 39.546875 41.84375 41.421875 45.53125 
Q 43.3125 49.21875 43.3125 52.78125 
Q 43.3125 58.59375 39.234375 62.25 
Q 35.15625 65.921875 28.609375 65.921875 
Q 23.96875 65.921875 18.8125 64.3125 
Q 13.671875 62.703125 7.8125 59.421875 
L 7.8125 69.390625 
Q 13.765625 71.78125 18.9375 73 
Q 24.125 74.21875 28.421875 74.21875 
Q 39.75 74.21875 46.484375 68.546875 
Q 53.21875 62.890625 53.21875 53.421875 
Q 53.21875 48.921875 51.53125 44.890625 
Q 49.859375 40.875 45.40625 35.40625 
Q 44.1875 33.984375 37.640625 27.21875 
Q 31.109375 20.453125 19.1875 8.296875 
z
" id="DejaVuSans-50"/>
       <path d="M 31.78125 66.40625 
Q 24.171875 66.40625 20.328125 58.90625 
Q 16.5 51.421875 16.5 36.375 
Q 16.5 21.390625 20.328125 13.890625 
Q 24.171875 6.390625 31.78125 6.390625 
Q 39.453125 6.390625 43.28125 13.890625 
Q 47.125 21.390625 47.125 36.375 
Q 47.125 51.421875 43.28125 58.90625 
Q 39.453125 66.40625 31.78125 66.40625 
z
M 31.78125 74.21875 
Q 44.046875 74.21875 50.515625 64.515625 
Q 56.984375 54.828125 56.984375 36.375 
Q 56.984375 17.96875 50.515625 8.265625 
Q 44.046875 -1.421875 31.78125 -1.421875 
Q 19.53125 -1.421875 13.0625 8.265625 
Q 6.59375 17.96875 6.59375 36.375 
Q 6.59375 54.828125 13.0625 64.515625 
Q 19.53125 74.21875 31.78125 74.21875 
z
" id="DejaVuSans-48"/>
      </defs>
      <g transform="translate(165.013938 308.716563)scale(0.1 -0.1)">
       <use xlink:href="#DejaVuSans-50"/>
       <use x="63.623047" xlink:href="#DejaVuSans-48"/>
       <use x="127.246094" xlink:href="#DejaVuSans-48"/>
       <use x="190.869141" xlink:href="#DejaVuSans-48"/>
      </g>
     </g>
    </g>
    <g id="xtick_3">
     <g id="line2d_3">
      <g>
       <use style="stroke:#000000;stroke-width:0.8;" x="277.526935" xlink:href="#m0495bb7a7d" y="294.118125"/>
      </g>
     </g>
     <g id="text_3">
      <!-- 2004 -->
      <defs>
       <path d="M 37.796875 64.3125 
L 12.890625 25.390625 
L 37.796875 25.390625 
z
M 35.203125 72.90625 
L 47.609375 72.90625 
L 47.609375 25.390625 
L 58.015625 25.390625 
L 58.015625 17.1875 
L 47.609375 17.1875 
L 47.609375 0 
L 37.796875 0 
L 37.796875 17.1875 
L 4.890625 17.1875 
L 4.890625 26.703125 
z
" id="DejaVuSans-52"/>
      </defs>
      <g transform="translate(264.801935 308.716563)scale(0.1 -0.1)">
       <use xlink:href="#DejaVuSans-50"/>
       <use x="63.623047" xlink:href="#DejaVuSans-48"/>
       <use x="127.246094" xlink:href="#DejaVuSans-48"/>
       <use x="190.869141" xlink:href="#DejaVuSans-52"/>
      </g>
     </g>
    </g>
    <g id="xtick_4">
     <g id="line2d_4">
      <g>
       <use style="stroke:#000000;stroke-width:0.8;" x="377.314932" xlink:href="#m0495bb7a7d" y="294.118125"/>
      </g>
     </g>
     <g id="text_4">
      <!-- 2008 -->
      <defs>
       <path d="M 31.78125 34.625 
Q 24.75 34.625 20.71875 30.859375 
Q 16.703125 27.09375 16.703125 20.515625 
Q 16.703125 13.921875 20.71875 10.15625 
Q 24.75 6.390625 31.78125 6.390625 
Q 38.8125 6.390625 42.859375 10.171875 
Q 46.921875 13.96875 46.921875 20.515625 
Q 46.921875 27.09375 42.890625 30.859375 
Q 38.875 34.625 31.78125 34.625 
z
M 21.921875 38.8125 
Q 15.578125 40.375 12.03125 44.71875 
Q 8.5 49.078125 8.5 55.328125 
Q 8.5 64.0625 14.71875 69.140625 
Q 20.953125 74.21875 31.78125 74.21875 
Q 42.671875 74.21875 48.875 69.140625 
Q 55.078125 64.0625 55.078125 55.328125 
Q 55.078125 49.078125 51.53125 44.71875 
Q 48 40.375 41.703125 38.8125 
Q 48.828125 37.15625 52.796875 32.3125 
Q 56.78125 27.484375 56.78125 20.515625 
Q 56.78125 9.90625 50.3125 4.234375 
Q 43.84375 -1.421875 31.78125 -1.421875 
Q 19.734375 -1.421875 13.25 4.234375 
Q 6.78125 9.90625 6.78125 20.515625 
Q 6.78125 27.484375 10.78125 32.3125 
Q 14.796875 37.15625 21.921875 38.8125 
z
M 18.3125 54.390625 
Q 18.3125 48.734375 21.84375 45.5625 
Q 25.390625 42.390625 31.78125 42.390625 
Q 38.140625 42.390625 41.71875 45.5625 
Q 45.3125 48.734375 45.3125 54.390625 
Q 45.3125 60.0625 41.71875 63.234375 
Q 38.140625 66.40625 31.78125 66.40625 
Q 25.390625 66.40625 21.84375 63.234375 
Q 18.3125 60.0625 18.3125 54.390625 
z
" id="DejaVuSans-56"/>
      </defs>
      <g transform="translate(364.589932 308.716563)scale(0.1 -0.1)">
       <use xlink:href="#DejaVuSans-50"/>
       <use x="63.623047" xlink:href="#DejaVuSans-48"/>
       <use x="127.246094" xlink:href="#DejaVuSans-48"/>
       <use x="190.869141" xlink:href="#DejaVuSans-56"/>
      </g>
     </g>
    </g>
    <g id="xtick_5">
     <g id="line2d_5">
      <g>
       <use style="stroke:#000000;stroke-width:0.8;" x="477.102929" xlink:href="#m0495bb7a7d" y="294.118125"/>
      </g>
     </g>
     <g id="text_5">
      <!-- 2012 -->
      <g transform="translate(464.377929 308.716563)scale(0.1 -0.1)">
       <use xlink:href="#DejaVuSans-50"/>
       <use x="63.623047" xlink:href="#DejaVuSans-48"/>
       <use x="127.246094" xlink:href="#DejaVuSans-49"/>
       <use x="190.869141" xlink:href="#DejaVuSans-50"/>
      </g>
     </g>
    </g>
    <g id="xtick_6">
     <g id="line2d_6">
      <g>
       <use style="stroke:#000000;stroke-width:0.8;" x="576.890926" xlink:href="#m0495bb7a7d" y="294.118125"/>
      </g>
     </g>
     <g id="text_6">
      <!-- 2016 -->
      <g transform="translate(564.165926 308.716563)scale(0.1 -0.1)">
       <use xlink:href="#DejaVuSans-50"/>
       <use x="63.623047" xlink:href="#DejaVuSans-48"/>
       <use x="127.246094" xlink:href="#DejaVuSans-49"/>
       <use x="190.869141" xlink:href="#DejaVuSans-54"/>
      </g>
     </g>
    </g>
    <g id="text_7">
     <!-- Date -->
     <defs>
      <path d="M 19.671875 64.796875 
L 19.671875 8.109375 
L 31.59375 8.109375 
Q 46.6875 8.109375 53.6875 14.9375 
Q 60.6875 21.78125 60.6875 36.53125 
Q 60.6875 51.171875 53.6875 57.984375 
Q 46.6875 64.796875 31.59375 64.796875 
z
M 9.8125 72.90625 
L 30.078125 72.90625 
Q 51.265625 72.90625 61.171875 64.09375 
Q 71.09375 55.28125 71.09375 36.53125 
Q 71.09375 17.671875 61.125 8.828125 
Q 51.171875 0 30.078125 0 
L 9.8125 0 
z
" id="DejaVuSans-68"/>
      <path d="M 34.28125 27.484375 
Q 23.390625 27.484375 19.1875 25 
Q 14.984375 22.515625 14.984375 16.5 
Q 14.984375 11.71875 18.140625 8.90625 
Q 21.296875 6.109375 26.703125 6.109375 
Q 34.1875 6.109375 38.703125 11.40625 
Q 43.21875 16.703125 43.21875 25.484375 
L 43.21875 27.484375 
z
M 52.203125 31.203125 
L 52.203125 0 
L 43.21875 0 
L 43.21875 8.296875 
Q 40.140625 3.328125 35.546875 0.953125 
Q 30.953125 -1.421875 24.3125 -1.421875 
Q 15.921875 -1.421875 10.953125 3.296875 
Q 6 8.015625 6 15.921875 
Q 6 25.140625 12.171875 29.828125 
Q 18.359375 34.515625 30.609375 34.515625 
L 43.21875 34.515625 
L 43.21875 35.40625 
Q 43.21875 41.609375 39.140625 45 
Q 35.0625 48.390625 27.6875 48.390625 
Q 23 48.390625 18.546875 47.265625 
Q 14.109375 46.140625 10.015625 43.890625 
L 10.015625 52.203125 
Q 14.9375 54.109375 19.578125 55.046875 
Q 24.21875 56 28.609375 56 
Q 40.484375 56 46.34375 49.84375 
Q 52.203125 43.703125 52.203125 31.203125 
z
" id="DejaVuSans-97"/>
      <path d="M 18.3125 70.21875 
L 18.3125 54.6875 
L 36.8125 54.6875 
L 36.8125 47.703125 
L 18.3125 47.703125 
L 18.3125 18.015625 
Q 18.3125 11.328125 20.140625 9.421875 
Q 21.96875 7.515625 27.59375 7.515625 
L 36.8125 7.515625 
L 36.8125 0 
L 27.59375 0 
Q 17.1875 0 13.234375 3.875 
Q 9.28125 7.765625 9.28125 18.015625 
L 9.28125 47.703125 
L 2.6875 47.703125 
L 2.6875 54.6875 
L 9.28125 54.6875 
L 9.28125 70.21875 
z
" id="DejaVuSans-116"/>
      <path d="M 56.203125 29.59375 
L 56.203125 25.203125 
L 14.890625 25.203125 
Q 15.484375 15.921875 20.484375 11.0625 
Q 25.484375 6.203125 34.421875 6.203125 
Q 39.59375 6.203125 44.453125 7.46875 
Q 49.3125 8.734375 54.109375 11.28125 
L 54.109375 2.78125 
Q 49.265625 0.734375 44.1875 -0.34375 
Q 39.109375 -1.421875 33.890625 -1.421875 
Q 20.796875 -1.421875 13.15625 6.1875 
Q 5.515625 13.8125 5.515625 26.8125 
Q 5.515625 40.234375 12.765625 48.109375 
Q 20.015625 56 32.328125 56 
Q 43.359375 56 49.78125 48.890625 
Q 56.203125 41.796875 56.203125 29.59375 
z
M 47.21875 32.234375 
Q 47.125 39.59375 43.09375 43.984375 
Q 39.0625 48.390625 32.421875 48.390625 
Q 24.90625 48.390625 20.390625 44.140625 
Q 15.875 39.890625 15.1875 32.171875 
z
" id="DejaVuSans-101"/>
     </defs>
     <g transform="translate(326.739844 322.394687)scale(0.1 -0.1)">
      <use xlink:href="#DejaVuSans-68"/>
      <use x="77.001953" xlink:href="#DejaVuSans-97"/>
      <use x="138.28125" xlink:href="#DejaVuSans-116"/>
      <use x="177.490234" xlink:href="#DejaVuSans-101"/>
     </g>
    </g>
   </g>
   <g id="matplotlib.axis_2">
    <g id="ytick_1">
     <g id="line2d_7">
      <defs>
       <path d="M 0 0 
L -3.5 0 
" id="m279c028e09" style="stroke:#000000;stroke-width:0.8;"/>
      </defs>
      <g>
       <use style="stroke:#000000;stroke-width:0.8;" x="59.690625" xlink:href="#m279c028e09" y="283.471019"/>
      </g>
     </g>
     <g id="text_8">
      <!-- 2000 -->
      <g transform="translate(27.240625 287.270238)scale(0.1 -0.1)">
       <use xlink:href="#DejaVuSans-50"/>
       <use x="63.623047" xlink:href="#DejaVuSans-48"/>
       <use x="127.246094" xlink:href="#DejaVuSans-48"/>
       <use x="190.869141" xlink:href="#DejaVuSans-48"/>
      </g>
     </g>
    </g>
    <g id="ytick_2">
     <g id="line2d_8">
      <g>
       <use style="stroke:#000000;stroke-width:0.8;" x="59.690625" xlink:href="#m279c028e09" y="239.121937"/>
      </g>
     </g>
     <g id="text_9">
      <!-- 4000 -->
      <g transform="translate(27.240625 242.921156)scale(0.1 -0.1)">
       <use xlink:href="#DejaVuSans-52"/>
       <use x="63.623047" xlink:href="#DejaVuSans-48"/>
       <use x="127.246094" xlink:href="#DejaVuSans-48"/>
       <use x="190.869141" xlink:href="#DejaVuSans-48"/>
      </g>
     </g>
    </g>
    <g id="ytick_3">
     <g id="line2d_9">
      <g>
       <use style="stroke:#000000;stroke-width:0.8;" x="59.690625" xlink:href="#m279c028e09" y="194.772856"/>
      </g>
     </g>
     <g id="text_10">
      <!-- 6000 -->
      <g transform="translate(27.240625 198.572074)scale(0.1 -0.1)">
       <use xlink:href="#DejaVuSans-54"/>
       <use x="63.623047" xlink:href="#DejaVuSans-48"/>
       <use x="127.246094" xlink:href="#DejaVuSans-48"/>
       <use x="190.869141" xlink:href="#DejaVuSans-48"/>
      </g>
     </g>
    </g>
    <g id="ytick_4">
     <g id="line2d_10">
      <g>
       <use style="stroke:#000000;stroke-width:0.8;" x="59.690625" xlink:href="#m279c028e09" y="150.423774"/>
      </g>
     </g>
     <g id="text_11">
      <!-- 8000 -->
      <g transform="translate(27.240625 154.222993)scale(0.1 -0.1)">
       <use xlink:href="#DejaVuSans-56"/>
       <use x="63.623047" xlink:href="#DejaVuSans-48"/>
       <use x="127.246094" xlink:href="#DejaVuSans-48"/>
       <use x="190.869141" xlink:href="#DejaVuSans-48"/>
      </g>
     </g>
    </g>
    <g id="ytick_5">
     <g id="line2d_11">
      <g>
       <use style="stroke:#000000;stroke-width:0.8;" x="59.690625" xlink:href="#m279c028e09" y="106.074692"/>
      </g>
     </g>
     <g id="text_12">
      <!-- 10000 -->
      <g transform="translate(20.878125 109.873911)scale(0.1 -0.1)">
       <use xlink:href="#DejaVuSans-49"/>
       <use x="63.623047" xlink:href="#DejaVuSans-48"/>
       <use x="127.246094" xlink:href="#DejaVuSans-48"/>
       <use x="190.869141" xlink:href="#DejaVuSans-48"/>
       <use x="254.492188" xlink:href="#DejaVuSans-48"/>
      </g>
     </g>
    </g>
    <g id="ytick_6">
     <g id="line2d_12">
      <g>
       <use style="stroke:#000000;stroke-width:0.8;" x="59.690625" xlink:href="#m279c028e09" y="61.72561"/>
      </g>
     </g>
     <g id="text_13">
      <!-- 12000 -->
      <g transform="translate(20.878125 65.524829)scale(0.1 -0.1)">
       <use xlink:href="#DejaVuSans-49"/>
       <use x="63.623047" xlink:href="#DejaVuSans-50"/>
       <use x="127.246094" xlink:href="#DejaVuSans-48"/>
       <use x="190.869141" xlink:href="#DejaVuSans-48"/>
       <use x="254.492188" xlink:href="#DejaVuSans-48"/>
      </g>
     </g>
    </g>
    <g id="text_14">
     <!-- Weekly Attendance -->
     <defs>
      <path d="M 3.328125 72.90625 
L 13.28125 72.90625 
L 28.609375 11.28125 
L 43.890625 72.90625 
L 54.984375 72.90625 
L 70.3125 11.28125 
L 85.59375 72.90625 
L 95.609375 72.90625 
L 77.296875 0 
L 64.890625 0 
L 49.515625 63.28125 
L 33.984375 0 
L 21.578125 0 
z
" id="DejaVuSans-87"/>
      <path d="M 9.078125 75.984375 
L 18.109375 75.984375 
L 18.109375 31.109375 
L 44.921875 54.6875 
L 56.390625 54.6875 
L 27.390625 29.109375 
L 57.625 0 
L 45.90625 0 
L 18.109375 26.703125 
L 18.109375 0 
L 9.078125 0 
z
" id="DejaVuSans-107"/>
      <path d="M 9.421875 75.984375 
L 18.40625 75.984375 
L 18.40625 0 
L 9.421875 0 
z
" id="DejaVuSans-108"/>
      <path d="M 32.171875 -5.078125 
Q 28.375 -14.84375 24.75 -17.8125 
Q 21.140625 -20.796875 15.09375 -20.796875 
L 7.90625 -20.796875 
L 7.90625 -13.28125 
L 13.1875 -13.28125 
Q 16.890625 -13.28125 18.9375 -11.515625 
Q 21 -9.765625 23.484375 -3.21875 
L 25.09375 0.875 
L 2.984375 54.6875 
L 12.5 54.6875 
L 29.59375 11.921875 
L 46.6875 54.6875 
L 56.203125 54.6875 
z
" id="DejaVuSans-121"/>
      <path id="DejaVuSans-32"/>
      <path d="M 34.1875 63.1875 
L 20.796875 26.90625 
L 47.609375 26.90625 
z
M 28.609375 72.90625 
L 39.796875 72.90625 
L 67.578125 0 
L 57.328125 0 
L 50.6875 18.703125 
L 17.828125 18.703125 
L 11.1875 0 
L 0.78125 0 
z
" id="DejaVuSans-65"/>
      <path d="M 54.890625 33.015625 
L 54.890625 0 
L 45.90625 0 
L 45.90625 32.71875 
Q 45.90625 40.484375 42.875 44.328125 
Q 39.84375 48.1875 33.796875 48.1875 
Q 26.515625 48.1875 22.3125 43.546875 
Q 18.109375 38.921875 18.109375 30.90625 
L 18.109375 0 
L 9.078125 0 
L 9.078125 54.6875 
L 18.109375 54.6875 
L 18.109375 46.1875 
Q 21.34375 51.125 25.703125 53.5625 
Q 30.078125 56 35.796875 56 
Q 45.21875 56 50.046875 50.171875 
Q 54.890625 44.34375 54.890625 33.015625 
z
" id="DejaVuSans-110"/>
      <path d="M 45.40625 46.390625 
L 45.40625 75.984375 
L 54.390625 75.984375 
L 54.390625 0 
L 45.40625 0 
L 45.40625 8.203125 
Q 42.578125 3.328125 38.25 0.953125 
Q 33.9375 -1.421875 27.875 -1.421875 
Q 17.96875 -1.421875 11.734375 6.484375 
Q 5.515625 14.40625 5.515625 27.296875 
Q 5.515625 40.1875 11.734375 48.09375 
Q 17.96875 56 27.875 56 
Q 33.9375 56 38.25 53.625 
Q 42.578125 51.265625 45.40625 46.390625 
z
M 14.796875 27.296875 
Q 14.796875 17.390625 18.875 11.75 
Q 22.953125 6.109375 30.078125 6.109375 
Q 37.203125 6.109375 41.296875 11.75 
Q 45.40625 17.390625 45.40625 27.296875 
Q 45.40625 37.203125 41.296875 42.84375 
Q 37.203125 48.484375 30.078125 48.484375 
Q 22.953125 48.484375 18.875 42.84375 
Q 14.796875 37.203125 14.796875 27.296875 
z
" id="DejaVuSans-100"/>
      <path d="M 48.78125 52.59375 
L 48.78125 44.1875 
Q 44.96875 46.296875 41.140625 47.34375 
Q 37.3125 48.390625 33.40625 48.390625 
Q 24.65625 48.390625 19.8125 42.84375 
Q 14.984375 37.3125 14.984375 27.296875 
Q 14.984375 17.28125 19.8125 11.734375 
Q 24.65625 6.203125 33.40625 6.203125 
Q 37.3125 6.203125 41.140625 7.25 
Q 44.96875 8.296875 48.78125 10.40625 
L 48.78125 2.09375 
Q 45.015625 0.34375 40.984375 -0.53125 
Q 36.96875 -1.421875 32.421875 -1.421875 
Q 20.0625 -1.421875 12.78125 6.34375 
Q 5.515625 14.109375 5.515625 27.296875 
Q 5.515625 40.671875 12.859375 48.328125 
Q 20.21875 56 33.015625 56 
Q 37.15625 56 41.109375 55.140625 
Q 45.0625 54.296875 48.78125 52.59375 
z
" id="DejaVuSans-99"/>
     </defs>
     <g transform="translate(14.798438 206.961875)rotate(-90)scale(0.1 -0.1)">
      <use xlink:href="#DejaVuSans-87"/>
      <use x="98.798828" xlink:href="#DejaVuSans-101"/>
      <use x="160.322266" xlink:href="#DejaVuSans-101"/>
      <use x="221.845703" xlink:href="#DejaVuSans-107"/>
      <use x="279.755859" xlink:href="#DejaVuSans-108"/>
      <use x="307.539062" xlink:href="#DejaVuSans-121"/>
      <use x="366.71875" xlink:href="#DejaVuSans-32"/>
      <use x="398.505859" xlink:href="#DejaVuSans-65"/>
      <use x="466.898438" xlink:href="#DejaVuSans-116"/>
      <use x="506.107422" xlink:href="#DejaVuSans-116"/>
      <use x="545.316406" xlink:href="#DejaVuSans-101"/>
      <use x="606.839844" xlink:href="#DejaVuSans-110"/>
      <use x="670.21875" xlink:href="#DejaVuSans-100"/>
      <use x="733.695312" xlink:href="#DejaVuSans-97"/>
      <use x="794.974609" xlink:href="#DejaVuSans-110"/>
      <use x="858.353516" xlink:href="#DejaVuSans-99"/>
      <use x="913.333984" xlink:href="#DejaVuSans-101"/>
     </g>
    </g>
   </g>
   <g id="line2d_13">
    <path clip-path="url(#p38f5a47e39)" d="M 85.054261 137.961682 
L 85.532369 114.634065 
L 86.010478 144.170553 
L 86.488586 125.344368 
L 86.966694 114.478843 
L 87.444802 116.674123 
L 87.92291 123.681278 
L 88.401018 146.166262 
L 88.879126 134.702024 
L 89.357235 141.576132 
L 89.835343 122.12906 
L 90.313451 130.08972 
L 90.791559 103.103304 
L 91.269667 116.607599 
L 91.747775 113.303592 
L 92.703991 129.446658 
L 93.1821 145.811469 
L 93.660208 123.858674 
L 94.138316 133.371552 
L 94.616424 128.515327 
L 95.094532 189.96098 
L 95.57264 211.780729 
L 96.050748 201.979581 
L 97.485073 140.999594 
L 106.091019 133.46025 
L 106.569127 71.526757 
L 107.047235 75.562524 
L 107.525344 74.897288 
L 108.003452 67.202722 
L 108.48156 66.714882 
L 108.959668 65.34006 
L 109.437776 65.58398 
L 109.915884 66.537486 
L 110.393992 66.005297 
L 110.8721 66.027471 
L 111.350209 67.335769 
L 111.828317 69.287129 
L 112.306425 67.003151 
L 112.784533 66.382264 
L 113.262641 66.360089 
L 113.740749 66.049646 
L 114.218857 65.960948 
L 114.696966 66.847929 
L 115.175074 66.626184 
L 115.653182 66.759231 
L 116.13129 66.604009 
L 116.609398 66.958802 
L 117.087506 66.07182 
L 117.565614 66.049646 
L 118.043722 66.648358 
L 118.521831 66.093995 
L 118.999939 66.648358 
L 119.956155 67.0475 
L 120.434263 66.781406 
L 120.912371 65.650504 
L 121.390479 65.428759 
L 122.824804 65.805726 
L 123.78102 65.029617 
L 124.259128 67.867958 
L 124.737236 65.58398 
L 125.215344 65.783551 
L 125.693453 64.830046 
L 126.171561 64.696999 
L 126.649669 64.807872 
L 127.127777 64.65265 
L 127.605885 64.852221 
L 128.083993 64.475253 
L 128.562101 67.668387 
L 129.040209 86.161954 
L 129.518318 95.164818 
L 129.996426 90.862957 
L 130.474534 97.337923 
L 130.952642 88.645503 
L 131.43075 69.841492 
L 131.908858 86.073256 
L 132.386966 82.569679 
L 132.865074 76.892996 
L 133.343183 65.539631 
L 133.821291 65.983122 
L 134.299399 82.636202 
L 134.777507 65.317886 
L 135.255615 65.251362 
L 135.733723 70.462379 
L 136.211831 68.134053 
L 136.68994 72.36939 
L 137.646156 67.091849 
L 138.124264 71.792852 
L 138.602372 69.531049 
L 139.08048 68.178402 
L 139.558588 64.89657 
L 140.036696 65.739202 
L 140.514805 72.036772 
L 140.992913 67.091849 
L 141.471021 65.517457 
L 141.949129 70.440205 
L 142.427237 65.473108 
L 142.905345 66.493137 
L 143.383453 65.295711 
L 143.861562 67.269246 
L 144.33967 73.699862 
L 145.295886 92.082557 
L 145.773994 82.170537 
L 146.252102 79.531767 
L 146.73021 88.224187 
L 147.208318 70.706299 
L 147.686427 68.75494 
L 148.164535 71.415885 
L 148.642643 93.945218 
L 149.120751 81.638348 
L 149.598859 78.556087 
L 150.076967 81.948792 
L 150.555075 66.049646 
L 151.033183 74.254226 
L 151.511292 72.724183 
L 151.9894 87.204158 
L 152.467508 71.39371 
L 152.945616 74.07683 
L 153.423724 96.49529 
L 153.901832 97.581843 
L 154.37994 78.66696 
L 154.858049 123.570405 
L 155.336157 121.840791 
L 156.292373 96.0518 
L 156.770481 118.869402 
L 157.248589 107.427339 
L 157.726697 80.063956 
L 158.204805 81.948792 
L 158.682914 78.023898 
L 159.161022 84.321467 
L 159.63913 68.244925 
L 160.117238 115.033207 
L 160.595346 102.903733 
L 161.551562 126.785713 
L 162.507779 98.779268 
L 163.463995 134.19201 
L 163.942103 135.611181 
L 164.420211 131.99673 
L 164.898319 117.383708 
L 165.376427 146.01104 
L 165.854536 154.21562 
L 166.332644 119.800733 
L 166.810752 131.375843 
L 167.28886 133.415901 
L 167.766968 113.92448 
L 168.245076 123.459532 
L 168.723184 124.856528 
L 169.201292 140.777849 
L 169.679401 140.223485 
L 170.635617 87.669823 
L 171.113725 97.426621 
L 171.591833 103.125478 
L 172.069941 87.869394 
L 172.548049 106.562532 
L 173.026158 110.176982 
L 173.504266 142.219194 
L 174.460482 122.239932 
L 174.93859 136.298591 
L 175.416698 96.672687 
L 175.894806 128.227058 
L 176.372914 127.273553 
L 176.851023 148.073273 
L 177.329131 177.698459 
L 177.807239 97.315748 
L 178.285347 174.837943 
L 178.763455 146.875847 
L 179.241563 145.27928 
L 179.719671 128.470978 
L 180.197779 130.267116 
L 180.675888 112.172691 
L 181.153996 86.228478 
L 181.632104 96.273545 
L 182.110212 151.421628 
L 182.58832 130.488862 
L 183.066428 100.664104 
L 184.022645 162.797168 
L 184.500753 160.823634 
L 184.978861 140.090438 
L 185.456969 101.57326 
L 185.935077 111.773549 
L 186.413185 129.978847 
L 186.891293 154.880857 
L 187.369401 140.156961 
L 187.84751 134.258534 
L 188.325618 153.616908 
L 188.803726 148.139796 
L 189.281834 136.453813 
L 189.759942 133.127632 
L 190.23805 117.006741 
L 190.716158 137.473842 
L 191.194267 151.33293 
L 191.672375 153.483861 
L 192.150483 147.829353 
L 192.628591 147.918051 
L 193.106699 142.862255 
L 193.584807 144.192728 
L 194.062915 146.964546 
L 194.541023 126.96311 
L 195.019132 146.920196 
L 195.49724 133.393726 
L 195.975348 123.415183 
L 196.453456 140.977419 
L 196.931564 127.783568 
L 197.409672 125.832208 
L 197.88778 120.709889 
L 198.365888 126.164826 
L 198.843997 137.385144 
L 199.322105 122.882994 
L 199.800213 135.433784 
L 200.278321 119.601162 
L 200.756429 146.25496 
L 201.234537 133.659821 
L 201.712645 148.051098 
L 202.190754 175.614052 
L 202.668862 86.250653 
L 203.14697 154.060399 
L 203.625078 143.416619 
L 204.103186 161.799313 
L 204.581294 164.948098 
L 205.059402 158.650529 
L 205.53751 158.717052 
L 206.015619 117.583279 
L 206.493727 101.440213 
L 206.971835 137.651238 
L 207.449943 152.996021 
L 207.928051 151.133359 
L 208.406159 139.003885 
L 208.884267 132.706316 
L 209.362375 171.64481 
L 209.840484 135.300737 
L 210.318592 122.927343 
L 210.7967 137.296446 
L 211.752916 183.70776 
L 212.231024 171.112621 
L 212.709132 136.897304 
L 213.187241 179.450248 
L 213.665349 166.544665 
L 214.143457 168.008185 
L 214.621565 138.626918 
L 215.099673 153.062544 
L 215.577781 123.348659 
L 216.055889 145.301455 
L 216.533997 139.669122 
L 217.012106 120.133351 
L 217.490214 112.394436 
L 217.968322 131.885858 
L 218.44643 130.621909 
L 218.924538 134.325057 
L 219.402646 124.989575 
L 219.880754 131.708461 
L 220.358863 242.048977 
L 220.836971 207.83366 
L 221.315079 152.30861 
L 221.793187 131.398018 
L 222.271295 139.048234 
L 222.749403 138.338649 
L 223.227511 134.125486 
L 223.705619 173.618344 
L 224.183728 148.69416 
L 224.661836 185.814341 
L 225.139944 149.780712 
L 225.618052 168.806468 
L 226.09616 156.056107 
L 226.574268 160.335794 
L 227.052376 159.249241 
L 227.530484 51.724892 
L 228.008593 138.826489 
L 228.486701 149.913759 
L 228.964809 123.614754 
L 229.442917 140.844372 
L 229.921025 168.518199 
L 230.877241 107.471688 
L 231.35535 103.125478 
L 231.833458 126.830062 
L 232.311566 114.146225 
L 232.789674 122.461678 
L 233.267782 106.89515 
L 233.74589 106.828626 
L 234.223998 126.852237 
L 234.702106 161.222775 
L 235.180215 149.514618 
L 235.658323 142.573986 
L 236.136431 181.579004 
L 236.614539 173.55182 
L 237.570755 143.416619 
L 238.048863 201.358694 
L 238.526971 169.028214 
L 239.00508 179.184153 
L 239.483188 156.388725 
L 239.961296 163.218484 
L 240.439404 190.825787 
L 240.917512 183.486014 
L 241.873728 159.936652 
L 242.351837 172.354395 
L 242.829945 124.013896 
L 243.308053 149.38157 
L 243.786161 161.621917 
L 244.264269 153.639082 
L 244.742377 231.75999 
L 245.220485 222.047541 
L 245.698593 176.589732 
L 246.176702 168.008185 
L 246.65481 165.302891 
L 247.132918 114.567541 
L 247.611026 141.886576 
L 248.567242 161.710615 
L 249.04535 124.27999 
L 249.523459 151.754246 
L 250.001567 155.989584 
L 250.479675 118.315039 
L 250.957783 127.340077 
L 251.435891 141.620481 
L 251.913999 124.634783 
L 252.392107 79.997432 
L 252.870215 118.492435 
L 253.348324 122.949518 
L 253.826432 110.354378 
L 254.30454 119.423766 
L 259.563729 147.9624 
L 260.041837 125.144797 
L 260.519946 124.302165 
L 260.998054 132.905887 
L 261.476162 143.682713 
L 261.95427 85.496718 
L 262.432378 84.698435 
L 262.910486 95.763531 
L 263.388594 83.478835 
L 263.866702 81.815744 
L 264.344811 76.205586 
L 264.822919 72.081121 
L 265.301027 84.454515 
L 265.779135 84.587562 
L 266.257243 76.649076 
L 266.735351 88.379408 
L 267.213459 78.66696 
L 267.691568 74.143353 
L 268.169676 110.5096 
L 268.647784 95.852229 
L 269.125892 102.526766 
L 269.604 157.364405 
L 270.082108 143.416619 
L 270.560216 124.501736 
L 271.038324 129.380135 
L 271.516433 210.317209 
L 271.994541 121.419474 
L 272.472649 105.564678 
L 272.950757 120.687715 
L 273.428865 162.065408 
L 273.906973 133.615472 
L 274.385081 139.02606 
L 274.863189 158.694878 
L 275.341298 116.762821 
L 275.819406 114.85581 
L 276.297514 126.297873 
L 276.775622 169.294308 
L 277.731838 97.404447 
L 278.209946 163.617626 
L 278.688055 171.733508 
L 279.166163 189.739235 
L 279.644271 203.154832 
L 281.078595 91.129052 
L 281.556703 149.558967 
L 282.034811 160.624063 
L 282.51292 122.528201 
L 282.991028 111.463106 
L 283.469136 108.380844 
L 283.947244 144.303601 
L 284.425352 94.566105 
L 284.90346 146.099738 
L 285.381568 163.041088 
L 285.859676 194.617634 
L 286.337785 200.294316 
L 286.815893 163.573277 
L 287.294001 153.372988 
L 287.772109 138.382998 
L 291.596974 246.572583 
L 292.075082 246.594758 
L 293.031298 228.38946 
L 293.509407 226.593322 
L 293.987515 242.292897 
L 296.378055 271.60764 
L 296.856164 258.32509 
L 297.334272 272.162003 
L 297.81238 273.714221 
L 298.290488 281.76358 
L 298.768596 280.943122 
L 299.246704 269.944549 
L 299.724812 271.430243 
L 300.20292 248.701339 
L 305.940218 115.011032 
L 306.418326 76.493855 
L 306.896434 95.674832 
L 307.374542 77.957374 
L 307.852651 112.261389 
L 308.330759 76.915171 
L 308.808867 68.99886 
L 309.286975 69.220605 
L 309.765083 68.799289 
L 310.243191 69.73062 
L 310.721299 71.992423 
L 311.199407 73.012452 
L 311.677516 76.516029 
L 312.155624 73.034626 
L 312.633732 72.214168 
L 313.589948 68.02318 
L 314.068056 68.333624 
L 314.546164 67.934482 
L 315.024273 68.156227 
L 315.502381 67.646213 
L 315.980489 67.712736 
L 316.458597 67.557515 
L 316.936705 67.77926 
L 317.892921 67.757085 
L 318.371029 67.490991 
L 318.849138 67.690562 
L 319.327246 67.712736 
L 319.805354 67.53534 
L 320.283462 67.890133 
L 320.76157 67.801435 
L 321.239678 67.513166 
L 321.717786 67.823609 
L 322.195894 67.513166 
L 322.674003 67.845784 
L 323.152111 67.424467 
L 323.630219 67.646213 
L 324.586435 67.757085 
L 325.064543 67.357944 
L 325.542651 67.579689 
L 326.02076 67.446642 
L 326.498868 67.890133 
L 326.976976 100.15409 
L 327.455084 34.783543 
L 327.933192 67.513166 
L 328.4113 68.710591 
L 329.367516 82.28141 
L 329.845625 92.969538 
L 330.323733 93.213458 
L 330.801841 83.279264 
L 331.279949 68.932336 
L 331.758057 85.031053 
L 332.714273 68.51102 
L 333.192381 69.065383 
L 333.67049 68.178402 
L 334.148598 72.258517 
L 334.626706 67.468816 
L 335.104814 67.357944 
L 335.582922 80.707017 
L 336.06103 86.095431 
L 336.539138 83.301439 
L 337.017247 75.806444 
L 337.495355 75.939491 
L 337.973463 77.048218 
L 338.451571 67.668387 
L 338.929679 67.690562 
L 339.407787 67.867958 
L 339.885895 69.309303 
L 340.364003 69.4867 
L 340.842112 69.4867 
L 341.798328 76.006015 
L 342.276436 76.427331 
L 343.232652 84.365817 
L 343.71076 95.963101 
L 344.188869 70.551078 
L 344.666977 135.234213 
L 345.145085 117.450232 
L 345.623193 124.546085 
L 346.101301 95.253516 
L 346.579409 86.960238 
L 347.057517 82.902297 
L 347.535625 81.882268 
L 348.013734 84.18842 
L 348.491842 116.940217 
L 348.96995 88.800725 
L 349.448058 102.637638 
L 349.926166 73.012452 
L 350.404274 109.755666 
L 350.882382 98.712745 
L 351.36049 99.821472 
L 351.838599 108.070401 
L 352.316707 34.67267 
L 352.794815 71.083267 
L 353.272923 77.846502 
L 353.751031 95.56396 
L 354.229139 96.273545 
L 354.707247 91.018179 
L 355.185356 101.551086 
L 355.663464 88.445932 
L 356.141572 83.124042 
L 356.61968 127.517473 
L 357.097788 95.386563 
L 357.575896 96.096149 
L 358.054004 72.657659 
L 358.532112 72.12547 
L 359.010221 71.948074 
L 359.488329 79.664814 
L 359.966437 101.728482 
L 360.444545 106.983848 
L 360.922653 130.843654 
L 361.400761 126.896586 
L 361.878869 104.611172 
L 362.356977 98.424476 
L 362.835086 130.311465 
L 363.313194 103.968111 
L 363.791302 98.668395 
L 364.26941 90.796433 
L 364.747518 91.90516 
L 365.225626 85.89586 
L 365.703734 93.302157 
L 366.181843 90.574688 
L 366.659951 84.144071 
L 367.138059 79.953083 
L 367.616167 83.345788 
L 368.094275 89.044645 
L 368.572383 92.703444 
L 369.050491 85.385845 
L 369.528599 177.055397 
L 370.006708 155.102602 
L 370.484816 157.231358 
L 370.962924 146.299309 
L 371.441032 128.315757 
L 371.91914 118.825053 
L 372.397248 117.716326 
L 372.875356 121.685569 
L 373.353465 136.697733 
L 373.831573 240.94025 
L 375.265897 200.60476 
L 375.744005 142.463114 
L 376.222113 136.675559 
L 377.17833 67.712736 
L 377.656438 84.875831 
L 378.134546 115.033207 
L 378.612654 102.948082 
L 379.090762 153.306464 
L 379.56887 174.017485 
L 380.046978 128.249233 
L 380.525086 96.384418 
L 381.003195 103.258525 
L 381.481303 148.006749 
L 381.959411 136.609035 
L 382.437519 93.546077 
L 382.915627 73.012452 
L 383.393735 80.307876 
L 383.871843 111.352233 
L 384.82806 113.991003 
L 385.306168 98.380126 
L 385.784276 112.594007 
L 386.262384 154.193446 
L 387.2186 111.928771 
L 387.696708 159.914477 
L 388.174817 161.599742 
L 388.652925 158.450958 
L 389.131033 125.98743 
L 389.609141 128.470978 
L 390.087249 97.559668 
L 390.565357 138.53822 
L 391.043465 125.676986 
L 391.521574 116.430203 
L 391.999682 114.101876 
L 392.47779 119.778558 
L 392.955898 129.579705 
L 393.434006 154.94738 
L 393.912114 117.073264 
L 394.390222 220.739243 
L 394.86833 187.654828 
L 395.346439 175.569703 
L 395.824547 188.563984 
L 396.302655 189.805758 
L 396.780763 147.208465 
L 397.258871 167.298599 
L 397.736979 163.329357 
L 398.215087 195.548965 
L 398.693195 151.554675 
L 399.171304 176.67843 
L 399.649412 185.969563 
L 400.12752 121.485998 
L 400.605628 140.046089 
L 401.083736 132.573268 
L 401.561844 110.26568 
L 402.039952 75.850793 
L 402.518061 68.954511 
L 402.996169 72.768532 
L 406.342926 220.118356 
L 406.821034 176.101892 
L 407.299142 183.907331 
L 407.77725 121.707743 
L 408.255358 124.989575 
L 408.733466 140.334358 
L 409.211574 131.442367 
L 409.689682 143.150524 
L 410.167791 171.733508 
L 410.645899 178.674139 
L 411.602115 158.051816 
L 412.080223 148.139796 
L 412.558331 175.148387 
L 413.036439 178.341521 
L 413.514548 153.372988 
L 413.992656 149.603316 
L 414.470764 149.847236 
L 414.948872 150.534647 
L 415.42698 147.607607 
L 415.905088 117.05109 
L 420.68617 159.182718 
L 421.164278 120.155526 
L 422.120494 89.931626 
L 422.598602 110.199157 
L 423.07671 170.890875 
L 423.554818 118.891577 
L 424.032926 105.742074 
L 424.511035 121.88514 
L 424.989143 162.22063 
L 425.467251 140.511754 
L 425.945359 141.221339 
L 426.423467 174.837943 
L 426.901575 155.102602 
L 427.379683 110.465251 
L 427.857791 168.385152 
L 428.3359 125.898732 
L 428.814008 146.898022 
L 429.292116 135.034643 
L 429.770224 152.06469 
L 430.248332 135.65553 
L 430.72644 96.49529 
L 431.204548 145.833644 
L 431.682657 138.205602 
L 432.160765 134.147661 
L 432.638873 100.974548 
L 433.116981 136.165544 
L 433.595089 86.051082 
L 434.073197 105.91947 
L 434.551305 134.280708 
L 435.029413 138.2943 
L 435.507522 147.119767 
L 435.98563 147.319338 
L 436.463738 134.413755 
L 436.941846 115.720617 
L 437.419954 112.194865 
L 437.898062 149.758538 
L 438.37617 113.946654 
L 439.332387 88.645503 
L 439.810495 101.595435 
L 440.288603 96.118323 
L 440.766711 82.52533 
L 441.244819 79.531767 
L 441.722927 105.67555 
L 442.201035 93.568251 
L 442.679144 99.511028 
L 443.157252 114.722763 
L 443.63536 120.111176 
L 444.113468 110.221331 
L 444.591576 138.516045 
L 445.547792 108.713462 
L 446.0259 115.09973 
L 446.504009 94.211313 
L 447.460225 97.71489 
L 447.938333 145.345804 
L 448.416441 131.442367 
L 448.894549 104.74422 
L 449.372657 133.593297 
L 449.850766 105.23206 
L 450.328874 109.933062 
L 450.806982 108.203448 
L 451.28509 135.611181 
L 451.763198 143.549666 
L 452.241306 80.08613 
L 453.197522 124.169117 
L 453.675631 108.935208 
L 454.153739 127.317902 
L 454.631847 126.142652 
L 455.109955 123.503881 
L 455.588063 127.694869 
L 456.066171 82.259235 
L 456.544279 131.885858 
L 457.022387 96.894432 
L 457.500496 89.465961 
L 457.978604 93.812171 
L 458.456712 99.843646 
L 458.93482 108.026052 
L 459.412928 103.147653 
L 459.891036 73.411593 
L 460.369144 101.795006 
L 460.847253 102.815035 
L 461.325361 99.045363 
L 461.803469 81.416603 
L 462.281577 95.231342 
L 462.759685 130.466687 
L 463.237793 111.285709 
L 463.715901 97.315748 
L 464.194009 92.326477 
L 464.672118 107.227768 
L 465.150226 130.111894 
L 465.628334 132.528919 
L 466.106442 132.129778 
L 466.58455 125.477415 
L 467.062658 139.203456 
L 467.540766 148.849381 
L 468.018875 153.439511 
L 468.496983 216.725651 
L 468.975091 143.815761 
L 469.453199 169.538228 
L 469.931307 142.928779 
L 470.409415 98.291428 
L 470.887523 114.656239 
L 471.365631 116.141934 
L 472.321848 103.480271 
L 472.799956 138.161253 
L 473.278064 134.901595 
L 473.756172 111.817898 
L 474.23428 153.195591 
L 474.712388 131.79716 
L 475.190496 138.715616 
L 475.668605 119.712035 
L 476.146713 155.790013 
L 476.624821 180.159833 
L 477.102929 58.709873 
L 477.581037 121.596871 
L 478.059145 122.417329 
L 478.537253 154.259969 
L 479.015362 132.218476 
L 479.49347 139.913041 
L 479.971578 160.557539 
L 480.449686 108.868684 
L 480.927794 106.052518 
L 481.405902 154.769984 
L 481.88401 126.009604 
L 482.362118 118.603308 
L 482.840227 114.678414 
L 483.318335 118.913751 
L 483.796443 126.009604 
L 484.274551 98.158381 
L 485.230767 146.033215 
L 485.708875 153.151242 
L 486.186983 149.137651 
L 486.665092 120.044653 
L 487.1432 146.121913 
L 487.621308 161.954535 
L 488.099416 150.468123 
L 488.577524 156.300027 
L 489.055632 149.226349 
L 489.53374 154.326493 
L 490.011849 150.335076 
L 490.489957 130.555385 
L 490.968065 125.965255 
L 491.446173 124.102594 
L 491.924281 116.053236 
L 506.745633 145.367979 
L 507.223741 107.272117 
L 507.701849 107.516037 
L 508.179958 106.119041 
L 508.658066 106.16339 
L 509.136174 109.023906 
L 509.614282 74.985986 
L 510.09239 73.83291 
L 513.439147 73.788561 
L 514.873471 73.810735 
L 515.35158 72.480263 
L 515.829688 71.948074 
L 516.785904 71.88155 
L 517.264012 71.970248 
L 517.74212 71.88155 
L 518.698336 71.925899 
L 519.176445 103.812889 
L 519.654553 95.32004 
L 520.132661 83.545359 
L 520.610769 83.611882 
L 521.566985 72.835055 
L 522.045093 88.933772 
L 522.523201 76.870822 
L 523.00131 89.155517 
L 523.479418 84.875831 
L 523.957526 99.887995 
L 524.435634 104.367252 
L 524.913742 71.837201 
L 525.39185 81.194857 
L 525.869958 79.953083 
L 526.348067 78.023898 
L 526.826175 71.837201 
L 527.304283 71.837201 
L 527.782391 78.999578 
L 528.260499 92.903015 
L 528.738607 81.54965 
L 529.216715 85.89586 
L 529.694823 100.686279 
L 530.172932 98.535348 
L 530.65104 72.990277 
L 531.129148 85.940209 
L 531.607256 93.523902 
L 532.085364 73.899433 
L 532.563472 72.391565 
L 533.04158 72.280692 
L 533.519688 78.511738 
L 533.997797 75.73992 
L 534.475905 71.88155 
L 534.954013 72.435914 
L 535.432121 101.950228 
L 535.910229 101.262817 
L 536.388337 97.116178 
L 536.866445 79.59829 
L 537.344554 94.34436 
L 537.822662 92.104731 
L 538.30077 79.043927 
L 538.778878 72.081121 
L 539.256986 72.724183 
L 539.735094 74.010306 
L 540.69131 71.837201 
L 541.169419 71.925899 
L 541.647527 71.792852 
L 542.125635 72.901579 
L 542.603743 73.722037 
L 543.081851 73.877259 
L 543.559959 75.074684 
L 544.038067 105.542503 
L 544.516176 104.965965 
L 544.994284 155.390871 
L 545.472392 133.548948 
L 545.9505 145.877993 
L 546.428608 84.742784 
L 546.906716 88.002441 
L 547.384824 111.108313 
L 547.862932 118.47026 
L 548.341041 108.469543 
L 548.819149 137.606889 
L 549.297257 141.154816 
L 549.775365 73.633339 
L 550.253473 121.929489 
L 550.731581 120.820762 
L 551.209689 99.134061 
L 551.687797 71.903725 
L 552.165906 71.859376 
L 552.644014 91.882986 
L 553.122122 82.990995 
L 554.078338 126.364397 
L 554.556446 120.975984 
L 555.034554 106.606881 
L 555.512663 73.212023 
L 555.990771 133.061108 
L 556.468879 128.426629 
L 556.946987 82.414457 
L 557.425095 72.502437 
L 557.903203 73.123324 
L 558.381311 72.968103 
L 558.859419 74.387273 
L 559.337528 85.385845 
L 559.815636 77.336487 
L 560.293744 118.71418 
L 560.771852 112.527484 
L 561.24996 90.707735 
L 561.728068 85.430195 
L 562.206176 91.417321 
L 562.684284 86.405874 
L 563.162393 74.010306 
L 563.640501 75.584698 
L 564.118609 72.923753 
L 565.074825 74.675542 
L 566.50915 73.256372 
L 566.987258 74.054655 
L 567.465366 82.192712 
L 567.943474 87.137634 
L 568.89969 121.552522 
L 569.377798 113.902305 
L 569.855906 102.105449 
L 570.334015 149.403745 
L 570.812123 146.543229 
L 571.290231 116.541075 
L 571.768339 115.565396 
L 572.246447 119.889431 
L 572.724555 161.821488 
L 573.202663 100.531057 
L 573.680772 131.597589 
L 574.15888 143.283572 
L 574.636988 95.32004 
L 575.115096 130.422338 
L 575.593204 132.617618 
L 576.071312 113.769258 
L 576.54942 108.203448 
L 577.027528 40.72632 
L 577.505637 128.515327 
L 577.983745 134.945944 
L 578.461853 205.128366 
L 578.939961 122.328631 
L 579.418069 151.377279 
L 579.896177 110.953091 
L 580.374285 111.174837 
L 580.852393 167.675567 
L 581.330502 159.825779 
L 581.80861 133.903741 
L 582.286718 84.521038 
L 582.764826 75.185557 
L 583.242934 89.643357 
L 583.721042 110.598298 
L 584.19915 116.518901 
L 584.677259 113.813607 
L 585.155367 127.583997 
L 585.633475 134.968119 
L 586.111583 150.490298 
L 586.589691 113.946654 
L 587.067799 106.65123 
L 588.024015 83.656231 
L 588.502124 99.17841 
L 588.980232 78.17912 
L 589.45834 82.857948 
L 589.936448 86.206303 
L 590.414556 85.474544 
L 590.892664 86.938063 
L 591.370772 80.063956 
L 592.326989 98.513174 
L 592.326989 98.513174 
" style="fill:none;stroke:#1f77b4;stroke-linecap:square;"/>
   </g>
   <g id="patch_3">
    <path d="M 59.690625 294.118125 
L 59.690625 22.318125 
" style="fill:none;stroke:#000000;stroke-linecap:square;stroke-linejoin:miter;stroke-width:0.8;"/>
   </g>
   <g id="patch_4">
    <path d="M 617.690625 294.118125 
L 617.690625 22.318125 
" style="fill:none;stroke:#000000;stroke-linecap:square;stroke-linejoin:miter;stroke-width:0.8;"/>
   </g>
   <g id="patch_5">
    <path d="M 59.690625 294.118125 
L 617.690625 294.118125 
" style="fill:none;stroke:#000000;stroke-linecap:square;stroke-linejoin:miter;stroke-width:0.8;"/>
   </g>
   <g id="patch_6">
    <path d="M 59.690625 22.318125 
L 617.690625 22.318125 
" style="fill:none;stroke:#000000;stroke-linecap:square;stroke-linejoin:miter;stroke-width:0.8;"/>
   </g>
   <g id="text_15">
    <!-- Weekly Attendance, Shubert Theatre -->
    <defs>
     <path d="M 11.71875 12.40625 
L 22.015625 12.40625 
L 22.015625 4 
L 14.015625 -11.625 
L 7.71875 -11.625 
L 11.71875 4 
z
" id="DejaVuSans-44"/>
     <path d="M 53.515625 70.515625 
L 53.515625 60.890625 
Q 47.90625 63.578125 42.921875 64.890625 
Q 37.9375 66.21875 33.296875 66.21875 
Q 25.25 66.21875 20.875 63.09375 
Q 16.5 59.96875 16.5 54.203125 
Q 16.5 49.359375 19.40625 46.890625 
Q 22.3125 44.4375 30.421875 42.921875 
L 36.375 41.703125 
Q 47.40625 39.59375 52.65625 34.296875 
Q 57.90625 29 57.90625 20.125 
Q 57.90625 9.515625 50.796875 4.046875 
Q 43.703125 -1.421875 29.984375 -1.421875 
Q 24.8125 -1.421875 18.96875 -0.25 
Q 13.140625 0.921875 6.890625 3.21875 
L 6.890625 13.375 
Q 12.890625 10.015625 18.65625 8.296875 
Q 24.421875 6.59375 29.984375 6.59375 
Q 38.421875 6.59375 43.015625 9.90625 
Q 47.609375 13.234375 47.609375 19.390625 
Q 47.609375 24.75 44.3125 27.78125 
Q 41.015625 30.8125 33.5 32.328125 
L 27.484375 33.5 
Q 16.453125 35.6875 11.515625 40.375 
Q 6.59375 45.0625 6.59375 53.421875 
Q 6.59375 63.09375 13.40625 68.65625 
Q 20.21875 74.21875 32.171875 74.21875 
Q 37.3125 74.21875 42.625 73.28125 
Q 47.953125 72.359375 53.515625 70.515625 
z
" id="DejaVuSans-83"/>
     <path d="M 54.890625 33.015625 
L 54.890625 0 
L 45.90625 0 
L 45.90625 32.71875 
Q 45.90625 40.484375 42.875 44.328125 
Q 39.84375 48.1875 33.796875 48.1875 
Q 26.515625 48.1875 22.3125 43.546875 
Q 18.109375 38.921875 18.109375 30.90625 
L 18.109375 0 
L 9.078125 0 
L 9.078125 75.984375 
L 18.109375 75.984375 
L 18.109375 46.1875 
Q 21.34375 51.125 25.703125 53.5625 
Q 30.078125 56 35.796875 56 
Q 45.21875 56 50.046875 50.171875 
Q 54.890625 44.34375 54.890625 33.015625 
z
" id="DejaVuSans-104"/>
     <path d="M 8.5 21.578125 
L 8.5 54.6875 
L 17.484375 54.6875 
L 17.484375 21.921875 
Q 17.484375 14.15625 20.5 10.265625 
Q 23.53125 6.390625 29.59375 6.390625 
Q 36.859375 6.390625 41.078125 11.03125 
Q 45.3125 15.671875 45.3125 23.6875 
L 45.3125 54.6875 
L 54.296875 54.6875 
L 54.296875 0 
L 45.3125 0 
L 45.3125 8.40625 
Q 42.046875 3.421875 37.71875 1 
Q 33.40625 -1.421875 27.6875 -1.421875 
Q 18.265625 -1.421875 13.375 4.4375 
Q 8.5 10.296875 8.5 21.578125 
z
M 31.109375 56 
z
" id="DejaVuSans-117"/>
     <path d="M 48.6875 27.296875 
Q 48.6875 37.203125 44.609375 42.84375 
Q 40.53125 48.484375 33.40625 48.484375 
Q 26.265625 48.484375 22.1875 42.84375 
Q 18.109375 37.203125 18.109375 27.296875 
Q 18.109375 17.390625 22.1875 11.75 
Q 26.265625 6.109375 33.40625 6.109375 
Q 40.53125 6.109375 44.609375 11.75 
Q 48.6875 17.390625 48.6875 27.296875 
z
M 18.109375 46.390625 
Q 20.953125 51.265625 25.265625 53.625 
Q 29.59375 56 35.59375 56 
Q 45.5625 56 51.78125 48.09375 
Q 58.015625 40.1875 58.015625 27.296875 
Q 58.015625 14.40625 51.78125 6.484375 
Q 45.5625 -1.421875 35.59375 -1.421875 
Q 29.59375 -1.421875 25.265625 0.953125 
Q 20.953125 3.328125 18.109375 8.203125 
L 18.109375 0 
L 9.078125 0 
L 9.078125 75.984375 
L 18.109375 75.984375 
z
" id="DejaVuSans-98"/>
     <path d="M 41.109375 46.296875 
Q 39.59375 47.171875 37.8125 47.578125 
Q 36.03125 48 33.890625 48 
Q 26.265625 48 22.1875 43.046875 
Q 18.109375 38.09375 18.109375 28.8125 
L 18.109375 0 
L 9.078125 0 
L 9.078125 54.6875 
L 18.109375 54.6875 
L 18.109375 46.1875 
Q 20.953125 51.171875 25.484375 53.578125 
Q 30.03125 56 36.53125 56 
Q 37.453125 56 38.578125 55.875 
Q 39.703125 55.765625 41.0625 55.515625 
z
" id="DejaVuSans-114"/>
     <path d="M -0.296875 72.90625 
L 61.375 72.90625 
L 61.375 64.59375 
L 35.5 64.59375 
L 35.5 0 
L 25.59375 0 
L 25.59375 64.59375 
L -0.296875 64.59375 
z
" id="DejaVuSans-84"/>
    </defs>
    <g transform="translate(227.399063 16.318125)scale(0.12 -0.12)">
     <use xlink:href="#DejaVuSans-87"/>
     <use x="98.798828" xlink:href="#DejaVuSans-101"/>
     <use x="160.322266" xlink:href="#DejaVuSans-101"/>
     <use x="221.845703" xlink:href="#DejaVuSans-107"/>
     <use x="279.755859" xlink:href="#DejaVuSans-108"/>
     <use x="307.539062" xlink:href="#DejaVuSans-121"/>
     <use x="366.71875" xlink:href="#DejaVuSans-32"/>
     <use x="398.505859" xlink:href="#DejaVuSans-65"/>
     <use x="466.898438" xlink:href="#DejaVuSans-116"/>
     <use x="506.107422" xlink:href="#DejaVuSans-116"/>
     <use x="545.316406" xlink:href="#DejaVuSans-101"/>
     <use x="606.839844" xlink:href="#DejaVuSans-110"/>
     <use x="670.21875" xlink:href="#DejaVuSans-100"/>
     <use x="733.695312" xlink:href="#DejaVuSans-97"/>
     <use x="794.974609" xlink:href="#DejaVuSans-110"/>
     <use x="858.353516" xlink:href="#DejaVuSans-99"/>
     <use x="913.333984" xlink:href="#DejaVuSans-101"/>
     <use x="974.857422" xlink:href="#DejaVuSans-44"/>
     <use x="1006.644531" xlink:href="#DejaVuSans-32"/>
     <use x="1038.431641" xlink:href="#DejaVuSans-83"/>
     <use x="1101.908203" xlink:href="#DejaVuSans-104"/>
     <use x="1165.287109" xlink:href="#DejaVuSans-117"/>
     <use x="1228.666016" xlink:href="#DejaVuSans-98"/>
     <use x="1292.142578" xlink:href="#DejaVuSans-101"/>
     <use x="1353.666016" xlink:href="#DejaVuSans-114"/>
     <use x="1394.779297" xlink:href="#DejaVuSans-116"/>
     <use x="1433.988281" xlink:href="#DejaVuSans-32"/>
     <use x="1465.775391" xlink:href="#DejaVuSans-84"/>
     <use x="1526.859375" xlink:href="#DejaVuSans-104"/>
     <use x="1590.238281" xlink:href="#DejaVuSans-101"/>
     <use x="1651.761719" xlink:href="#DejaVuSans-97"/>
     <use x="1713.041016" xlink:href="#DejaVuSans-116"/>
     <use x="1752.25" xlink:href="#DejaVuSans-114"/>
     <use x="1793.332031" xlink:href="#DejaVuSans-101"/>
    </g>
   </g>
  </g>
 </g>
 <defs>
  <clipPath id="p38f5a47e39">
   <rect height="271.8" width="558" x="59.690625" y="22.318125"/>
  </clipPath>
 </defs>
</svg>
